SplineFontDB: 3.2
FontName: Pretension-ExtraBoldItalic
FullName: Pretension ExtraBold Italic
FamilyName: Pretension ExtraBold
Weight: Heavy
Copyright: Copyright 2016 The Inter Project Authors
Version: 4.000;git-a52131595
ItalicAngle: -9.39999
UnderlinePosition: -325
UnderlineWidth: 221
Ascent: 1638
Descent: 410
InvalidEm: 0
sfntRevision: 0x00040000
LayerCount: 2
Layer: 0 1 "Back" 1
Layer: 1 1 "Fore" 0
XUID: [1021 89 -1234937351 10471759]
StyleMap: 0x0001
FSType: 0
OS2Version: 4
OS2_WeightWidthSlopeOnly: 0
OS2_UseTypoMetrics: 1
CreationTime: 1700438797
ModificationTime: 1707762072
PfmFamily: 17
TTFWeight: 800
TTFWidth: 5
LineGap: 0
VLineGap: 0
Panose: 2 0 5 3 0 0 0 2 0 4
OS2TypoAscent: 1984
OS2TypoAOffset: 0
OS2TypoDescent: -494
OS2TypoDOffset: 0
OS2TypoLinegap: 0
OS2WinAscent: 1984
OS2WinAOffset: 0
OS2WinDescent: 494
OS2WinDOffset: 0
HheadAscent: 1984
HheadAOffset: 0
HheadDescent: -494
HheadDOffset: 0
OS2SubXSize: 1331
OS2SubYSize: 1229
OS2SubXOff: -25
OS2SubYOff: 154
OS2SupXSize: 1331
OS2SupYSize: 1229
OS2SupXOff: 119
OS2SupYOff: 717
OS2StrikeYSize: 221
OS2StrikeYPos: 653
OS2CapHeight: 1490
OS2XHeight: 1087
OS2Vendor: 'RSMS'
OS2CodePages: 0000019f.00000000
OS2UnicodeRanges: e0000aff.5200a1ff.00000021.00000000
Lookup: 1 0 0 "'aalt' Access All Alternates in Latin lookup 0" { "'aalt' Access All Alternates in Latin lookup 0 subtable"  } ['aalt' ('DFLT' <'dflt' > 'latn' <'CAT ' 'MOL ' 'ROM ' 'dflt' > ) ]
Lookup: 3 0 0 "'aalt' Access All Alternates in Latin lookup 1" { "'aalt' Access All Alternates in Latin lookup 1 subtable"  } ['aalt' ('DFLT' <'dflt' > 'latn' <'CAT ' 'MOL ' 'ROM ' 'dflt' > ) ]
Lookup: 1 0 0 "Single Substitution lookup 2" { "Single Substitution lookup 2 subtable"  } []
Lookup: 4 0 0 "'ccmp' Glyph Composition/Decomposition in Latin lookup 3" { "'ccmp' Glyph Composition/Decomposition in Latin lookup 3 subtable"  } ['ccmp' ('DFLT' <'dflt' > 'latn' <'CAT ' 'MOL ' 'ROM ' 'dflt' > ) ]

StartChar: .notdef
Encoding: 1114112 -1 0
Width: 1344
Flags: W
LayerCount: 2
Fore
SplineSet
858 -416 m 1,0,-1
 170 -416 l 1,1,-1
 546 1856 l 1,2,-1
 1234 1856 l 1,3,-1
 858 -416 l 1,0,-1
391 -192 m 1,4,-1
 381 -256 l 1,5,-1
 701 -256 l 1,6,-1
 711 -192 l 1,7,-1
 496 -192 l 1,8,-1
 732 -65 l 1,9,-1
 743 0 l 1,10,-1
 423 0 l 1,11,-1
 412 -64 l 1,12,-1
 628 -64 l 1,13,-1
 391 -192 l 1,4,-1
476 320 m 1,14,-1
 434 64 l 1,15,-1
 754 64 l 1,16,-1
 796 320 l 1,17,-1
 476 320 l 1,14,-1
700 128 m 1,18,-1
 508 128 l 1,19,-1
 529 256 l 1,20,-1
 721 256 l 1,21,-1
 700 128 l 1,18,-1
540 704 m 1,22,-1
 497 448 l 1,23,-1
 817 448 l 1,24,-1
 860 704 l 1,25,-1
 668 704 l 1,26,-1
 646 576 l 1,27,-1
 710 576 l 1,28,-1
 721 640 l 1,29,-1
 785 640 l 1,30,-1
 764 512 l 1,31,-1
 572 512 l 1,32,-1
 604 704 l 1,33,-1
 540 704 l 1,22,-1
561 832 m 1,34,-1
 550 768 l 1,35,-1
 870 768 l 1,36,-1
 907 992 l 1,37,-1
 843 992 l 1,38,-1
 817 832 l 1,39,-1
 561 832 l 1,34,-1
582 960 m 1,40,-1
 571 896 l 1,41,-1
 763 896 l 1,42,-1
 790 1056 l 1,43,-1
 918 1056 l 1,44,-1
 928 1120 l 1,45,-1
 608 1120 l 1,46,-1
 598 1056 l 1,47,-1
 726 1056 l 1,48,-1
 710 960 l 1,49,-1
 582 960 l 1,40,-1
758 1248 m 1,50,-1
 694 1248 l 1,51,-1
 709 1344 l 1,52,-1
 773 1344 l 1,53,-1
 758 1248 l 1,50,-1
656 1408 m 1,54,-1
 619 1184 l 1,55,-1
 939 1184 l 1,56,-1
 950 1248 l 1,57,-1
 822 1248 l 1,58,-1
 848 1408 l 1,59,-1
 656 1408 l 1,54,-1
677 1536 m 1,60,-1
 667 1472 l 1,61,-1
 987 1472 l 1,62,-1
 997 1536 l 1,63,-1
 853 1536 l 1,64,-1
 869 1632 l 1,65,-1
 1013 1632 l 1,66,-1
 1024 1696 l 1,67,-1
 704 1696 l 1,68,-1
 693 1632 l 1,69,-1
 805 1632 l 1,70,-1
 789 1536 l 1,71,-1
 677 1536 l 1,60,-1
EndSplineSet
EndChar

StartChar: A
Encoding: 65 65 2
Width: 1544
GlyphClass: 2
Flags: W
AnchorPoint: "Anchor-4" 1428 0 basechar 0
AnchorPoint: "Anchor-1" 928 1490 basechar 0
AnchorPoint: "Anchor-0" 681 0 basechar 0
LayerCount: 2
Fore
SplineSet
-64 0 m 1,0,-1
 688 1490 l 1,1,-1
 1162 1490 l 1,2,-1
 1428 0 l 1,3,-1
 1042 0 l 1,4,-1
 945 653 l 2,5,6
 924 815 924 815 905.5 991.5 c 128,-1,7
 887 1168 887 1168 870 1364 c 1,8,-1
 959 1364 l 1,9,10
 879 1168 879 1168 804.5 992.5 c 128,-1,11
 730 817 730 817 654 653 c 2,12,-1
 341 0 l 1,13,-1
 -64 0 l 1,0,-1
331 302 m 1,14,-1
 376 578 l 1,15,-1
 1180 578 l 1,16,-1
 1134 302 l 1,17,-1
 331 302 l 1,14,-1
EndSplineSet
Substitution2: "'c2sc' Capitals to Small Capitals in Latin lookup 67 subtable" a.sc
Substitution2: "'ss06' Style Set 6 in Latin lookup 52 subtable" A.squared
Substitution2: "'ss05' Style Set 5 in Latin lookup 51 subtable" uni24B6
Substitution2: "Single Substitution lookup 44 subtable" ordfeminine
AlternateSubs2: "'aalt' Access All Alternates in Latin lookup 1 subtable" ordfeminine a.sc
Position2: "'cpsp' Capital Spacing in Latin lookup 0 subtable" dx=0 dy=0 dh=0 dv=0
EndChar

StartChar: uni023A
Encoding: 570 570 46
Width: 1544
GlyphClass: 2
Flags: W
AnchorPoint: "Anchor-4" 1428 0 basechar 0
AnchorPoint: "Anchor-1" 928 1490 basechar 0
AnchorPoint: "Anchor-0" 681 0 basechar 0
LayerCount: 2
Fore
SplineSet
1325 1678 m 1,0,-1
 428 -190 l 1,1,-1
 329 -190 l 1,2,-1
 1226 1678 l 1,3,-1
 1325 1678 l 1,0,-1
-64 0 m 1,4,-1
 688 1490 l 1,5,-1
 1162 1490 l 1,6,-1
 1428 0 l 1,7,-1
 1042 0 l 1,8,-1
 945 653 l 2,9,10
 924 815 924 815 905.5 991.5 c 128,-1,11
 887 1168 887 1168 870 1364 c 1,12,-1
 959 1364 l 1,13,14
 879 1168 879 1168 804.5 992.5 c 128,-1,15
 730 817 730 817 654 653 c 2,16,-1
 341 0 l 1,17,-1
 -64 0 l 1,4,-1
331 302 m 1,18,-1
 376 578 l 1,19,-1
 1180 578 l 1,20,-1
 1134 302 l 1,21,-1
 331 302 l 1,18,-1
EndSplineSet
Position2: "'cpsp' Capital Spacing in Latin lookup 0 subtable" dx=0 dy=0 dh=0 dv=0
EndChar

StartChar: Lambda
Encoding: 923 923 60
Width: 1544
GlyphClass: 2
Flags: W
AnchorPoint: "Anchor-1" 928 1490 basechar 0
AnchorPoint: "Anchor-0" 681 0 basechar 0
LayerCount: 2
Fore
SplineSet
-64 0 m 1,0,-1
 688 1490 l 1,1,-1
 1162 1490 l 1,2,-1
 1428 0 l 1,3,-1
 1042 0 l 1,4,-1
 945 653 l 2,5,6
 923 815 923 815 905 991.5 c 128,-1,7
 887 1168 887 1168 870 1364 c 1,8,-1
 959 1364 l 1,9,10
 879 1168 879 1168 804 992.5 c 128,-1,11
 729 817 729 817 654 653 c 2,12,-1
 341 0 l 1,13,-1
 -64 0 l 1,0,-1
EndSplineSet
Position2: "'cpsp' Capital Spacing in Latin lookup 0 subtable" dx=0 dy=0 dh=0 dv=0
EndChar

StartChar: AE
Encoding: 198 198 61
Width: 2096
GlyphClass: 2
Flags: W
AnchorPoint: "Anchor-1" 1484 1490 basechar 0
LayerCount: 2
Fore
SplineSet
-64 0 m 1,0,-1
 792 1490 l 1,1,-1
 2165 1490 l 1,2,-1
 2117 1197 l 1,3,-1
 1433 1197 l 1,4,-1
 1381 888 l 1,5,-1
 1995 888 l 1,6,-1
 1948 605 l 1,7,-1
 1335 605 l 1,8,-1
 1283 295 l 1,9,-1
 1967 295 l 1,10,-1
 1918 0 l 1,11,-1
 885 0 l 1,12,-1
 1079 1165 l 1,13,-1
 964 1165 l 1,14,-1
 316 0 l 1,15,-1
 -64 0 l 1,0,-1
343 327 m 1,16,-1
 387 596 l 1,17,-1
 1140 596 l 1,18,-1
 1095 327 l 1,19,-1
 343 327 l 1,16,-1
EndSplineSet
Position2: "'cpsp' Capital Spacing in Latin lookup 0 subtable" dx=0 dy=0 dh=0 dv=0
EndChar

StartChar: B
Encoding: 66 66 65
Width: 1344
GlyphClass: 2
Flags: W
AnchorPoint: "Anchor-1" 809 1490 basechar 0
AnchorPoint: "Anchor-0" 564 0 basechar 0
LayerCount: 2
Fore
SplineSet
16 0 m 1,0,-1
 263 1490 l 1,1,-1
 873 1490 l 2,2,3
 1039 1490 1039 1490 1146 1439.5 c 128,-1,4
 1253 1389 1253 1389 1298.5 1298.5 c 128,-1,5
 1344 1208 1344 1208 1324 1090 c 0,6,7
 1310 1010 1310 1010 1263 948 c 128,-1,8
 1216 886 1216 886 1145 844 c 128,-1,9
 1074 802 1074 802 989 784 c 1,10,-1
 989 777 l 1,11,12
 1080 771 1080 771 1149 723 c 128,-1,13
 1218 675 1218 675 1250.5 592 c 128,-1,14
 1283 509 1283 509 1264 397 c 0,15,16
 1245 281 1245 281 1172 191.5 c 128,-1,17
 1099 102 1099 102 977.5 51 c 128,-1,18
 856 0 856 0 691 0 c 2,19,-1
 16 0 l 1,0,-1
414 281 m 1,20,-1
 650 281 l 2,21,22
 760 281 760 281 827 331 c 128,-1,23
 894 381 894 381 908 465 c 0,24,25
 917 518 917 518 898 556.5 c 128,-1,26
 879 595 879 595 835 615 c 128,-1,27
 791 635 791 635 725 635 c 2,28,-1
 474 635 l 1,29,-1
 414 281 l 1,20,-1
514 880 m 1,30,-1
 729 880 l 2,31,32
 787 880 787 880 836 902 c 128,-1,33
 885 924 885 924 918 964.5 c 128,-1,34
 951 1005 951 1005 959 1060 c 0,35,36
 972 1131 972 1131 929 1171.5 c 128,-1,37
 886 1212 886 1212 798 1212 c 2,38,-1
 569 1212 l 1,39,-1
 514 880 l 1,30,-1
EndSplineSet
Substitution2: "'ss06' Style Set 6 in Latin lookup 52 subtable" B.squared
Substitution2: "'ss05' Style Set 5 in Latin lookup 51 subtable" uni24B7
Position2: "'cpsp' Capital Spacing in Latin lookup 0 subtable" dx=0 dy=0 dh=0 dv=0
EndChar

StartChar: uni0181
Encoding: 385 385 70
Width: 1776
GlyphClass: 2
Flags: W
AnchorPoint: "Anchor-1" 1241 1490 basechar 0
AnchorPoint: "Anchor-0" 996 0 basechar 0
LayerCount: 2
Fore
SplineSet
118 1036 m 1,0,-1
 135 1140 l 2,1,2
 163 1310 163 1310 273 1400 c 128,-1,3
 383 1490 383 1490 578 1490 c 2,4,-1
 695 1490 l 1,5,-1
 646 1199 l 1,6,-1
 580 1199 l 2,7,8
 526 1199 526 1199 494.5 1175 c 128,-1,9
 463 1151 463 1151 456 1102 c 2,10,-1
 445 1036 l 1,11,-1
 118 1036 l 1,0,-1
448 0 m 1,12,-1
 695 1490 l 1,13,-1
 1305 1490 l 2,14,15
 1471 1490 1471 1490 1578 1439.5 c 128,-1,16
 1685 1389 1685 1389 1730.5 1298.5 c 128,-1,17
 1776 1208 1776 1208 1756 1090 c 0,18,19
 1742 1010 1742 1010 1695 948 c 128,-1,20
 1648 886 1648 886 1577 844 c 128,-1,21
 1506 802 1506 802 1421 784 c 1,22,-1
 1421 777 l 1,23,24
 1512 771 1512 771 1581 723 c 128,-1,25
 1650 675 1650 675 1682.5 592 c 128,-1,26
 1715 509 1715 509 1696 397 c 0,27,28
 1677 281 1677 281 1604 191.5 c 128,-1,29
 1531 102 1531 102 1409.5 51 c 128,-1,30
 1288 0 1288 0 1123 0 c 2,31,-1
 448 0 l 1,12,-1
846 281 m 1,32,-1
 1082 281 l 2,33,34
 1192 281 1192 281 1259 331 c 128,-1,35
 1326 381 1326 381 1340 465 c 0,36,37
 1349 518 1349 518 1330 556.5 c 128,-1,38
 1311 595 1311 595 1267 615 c 128,-1,39
 1223 635 1223 635 1157 635 c 2,40,-1
 906 635 l 1,41,-1
 846 281 l 1,32,-1
946 880 m 1,42,-1
 1161 880 l 2,43,44
 1219 880 1219 880 1268 902 c 128,-1,45
 1317 924 1317 924 1350 964.5 c 128,-1,46
 1383 1005 1383 1005 1391 1060 c 0,47,48
 1404 1131 1404 1131 1361 1171.5 c 128,-1,49
 1318 1212 1318 1212 1230 1212 c 2,50,-1
 1001 1212 l 1,51,-1
 946 880 l 1,42,-1
EndSplineSet
Position2: "'cpsp' Capital Spacing in Latin lookup 0 subtable" dx=0 dy=0 dh=0 dv=0
EndChar

StartChar: C
Encoding: 67 67 73
Width: 1513
GlyphClass: 2
Flags: W
AnchorPoint: "Anchor-3" 677 4 basechar 0
AnchorPoint: "Anchor-1" 930 1490 basechar 0
LayerCount: 2
Fore
SplineSet
703 -22 m 0,0,1
 521 -22 521 -22 383 50.5 c 128,-1,2
 245 123 245 123 168 260.5 c 128,-1,3
 91 398 91 398 91 593 c 0,4,5
 91 777 91 777 149 943 c 128,-1,6
 207 1109 207 1109 316 1237 c 128,-1,7
 425 1365 425 1365 578 1438.5 c 128,-1,8
 731 1512 731 1512 921 1512 c 0,9,10
 1056 1512 1056 1512 1167.5 1474.5 c 128,-1,11
 1279 1437 1279 1437 1358 1365.5 c 128,-1,12
 1437 1294 1437 1294 1477 1191 c 128,-1,13
 1517 1088 1517 1088 1512 956 c 1,14,-1
 1153 956 l 1,15,16
 1152 1013 1152 1013 1136 1058.5 c 128,-1,17
 1120 1104 1120 1104 1089.5 1135.5 c 128,-1,18
 1059 1167 1059 1167 1014.5 1183.5 c 128,-1,19
 970 1200 970 1200 913 1200 c 0,20,21
 797 1200 797 1200 710 1146.5 c 128,-1,22
 623 1093 623 1093 565 1004.5 c 128,-1,23
 507 916 507 916 478 808.5 c 128,-1,24
 449 701 449 701 449 596 c 0,25,26
 449 497 449 497 481 428.5 c 128,-1,27
 513 360 513 360 574.5 325 c 128,-1,28
 636 290 636 290 725 290 c 0,29,30
 789 290 789 290 845 307 c 128,-1,31
 901 324 901 324 947.5 355.5 c 128,-1,32
 994 387 994 387 1028.5 432 c 128,-1,33
 1063 477 1063 477 1084 534 c 1,34,-1
 1443 534 l 1,35,36
 1411 420 1411 420 1344 320 c 128,-1,37
 1277 220 1277 220 1181 143 c 128,-1,38
 1085 66 1085 66 964.5 22 c 128,-1,39
 844 -22 844 -22 703 -22 c 0,0,1
EndSplineSet
Substitution2: "'ss06' Style Set 6 in Latin lookup 52 subtable" C.squared
Substitution2: "'ss05' Style Set 5 in Latin lookup 51 subtable" uni24B8
Position2: "'cpsp' Capital Spacing in Latin lookup 0 subtable" dx=0 dy=0 dh=0 dv=0
EndChar

StartChar: uni0187
Encoding: 391 391 74
Width: 1513
GlyphClass: 2
Flags: W
AnchorPoint: "Anchor-3" 677 4 basechar 0
AnchorPoint: "Anchor-1" 930 1490 basechar 0
LayerCount: 2
Fore
SplineSet
1169 956 m 1,0,-1
 1234 1342 l 2,1,2
 1262 1514 1262 1514 1370.5 1600.5 c 128,-1,3
 1479 1687 1479 1687 1673 1687 c 0,4,5
 1727 1687 1727 1687 1773.5 1684 c 128,-1,6
 1820 1681 1820 1681 1853 1676 c 1,7,-1
 1811 1418 l 1,8,9
 1788 1420 1788 1420 1758 1421 c 128,-1,10
 1728 1422 1728 1422 1697 1422 c 0,11,12
 1640 1422 1640 1422 1611.5 1401 c 128,-1,13
 1583 1380 1583 1380 1575 1333 c 2,14,-1
 1513 956 l 1,15,-1
 1169 956 l 1,0,-1
703 -22 m 0,16,17
 521 -22 521 -22 383 50.5 c 128,-1,18
 245 123 245 123 168 260.5 c 128,-1,19
 91 398 91 398 91 593 c 0,20,21
 91 777 91 777 149 943 c 128,-1,22
 207 1109 207 1109 316 1237 c 128,-1,23
 425 1365 425 1365 578 1438.5 c 128,-1,24
 731 1512 731 1512 921 1512 c 0,25,26
 1056 1512 1056 1512 1167.5 1474.5 c 128,-1,27
 1279 1437 1279 1437 1358 1365.5 c 128,-1,28
 1437 1294 1437 1294 1477 1191 c 128,-1,29
 1517 1088 1517 1088 1512 956 c 1,30,-1
 1153 956 l 1,31,32
 1152 1013 1152 1013 1136 1058.5 c 128,-1,33
 1120 1104 1120 1104 1089.5 1135.5 c 128,-1,34
 1059 1167 1059 1167 1014.5 1183.5 c 128,-1,35
 970 1200 970 1200 913 1200 c 0,36,37
 797 1200 797 1200 710 1146.5 c 128,-1,38
 623 1093 623 1093 565 1004.5 c 128,-1,39
 507 916 507 916 478 808.5 c 128,-1,40
 449 701 449 701 449 596 c 0,41,42
 449 497 449 497 481 428.5 c 128,-1,43
 513 360 513 360 574.5 325 c 128,-1,44
 636 290 636 290 725 290 c 0,45,46
 789 290 789 290 845 307 c 128,-1,47
 901 324 901 324 947.5 355.5 c 128,-1,48
 994 387 994 387 1028.5 432 c 128,-1,49
 1063 477 1063 477 1084 534 c 1,50,-1
 1443 534 l 1,51,52
 1411 420 1411 420 1344 320 c 128,-1,53
 1277 220 1277 220 1181 143 c 128,-1,54
 1085 66 1085 66 964.5 22 c 128,-1,55
 844 -22 844 -22 703 -22 c 0,16,17
EndSplineSet
Position2: "'cpsp' Capital Spacing in Latin lookup 0 subtable" dx=0 dy=0 dh=0 dv=0
EndChar

StartChar: uni023B
Encoding: 571 571 81
Width: 1513
GlyphClass: 2
Flags: W
AnchorPoint: "Anchor-3" 677 4 basechar 0
AnchorPoint: "Anchor-1" 930 1490 basechar 0
LayerCount: 2
Fore
SplineSet
257 -190 m 1,0,-1
 1154 1678 l 1,1,-1
 1352 1678 l 1,2,-1
 454 -190 l 1,3,-1
 257 -190 l 1,0,-1
703 -22 m 0,4,5
 521 -22 521 -22 383 50.5 c 128,-1,6
 245 123 245 123 168 260.5 c 128,-1,7
 91 398 91 398 91 593 c 0,8,9
 91 777 91 777 149 943 c 128,-1,10
 207 1109 207 1109 316 1237 c 128,-1,11
 425 1365 425 1365 578 1438.5 c 128,-1,12
 731 1512 731 1512 921 1512 c 0,13,14
 1056 1512 1056 1512 1167.5 1474.5 c 128,-1,15
 1279 1437 1279 1437 1358 1365.5 c 128,-1,16
 1437 1294 1437 1294 1477 1191 c 128,-1,17
 1517 1088 1517 1088 1512 956 c 1,18,-1
 1153 956 l 1,19,20
 1152 1013 1152 1013 1136 1058.5 c 128,-1,21
 1120 1104 1120 1104 1089.5 1135.5 c 128,-1,22
 1059 1167 1059 1167 1014.5 1183.5 c 128,-1,23
 970 1200 970 1200 913 1200 c 0,24,25
 797 1200 797 1200 710 1146.5 c 128,-1,26
 623 1093 623 1093 565 1004.5 c 128,-1,27
 507 916 507 916 478 808.5 c 128,-1,28
 449 701 449 701 449 596 c 0,29,30
 449 497 449 497 481 428.5 c 128,-1,31
 513 360 513 360 574.5 325 c 128,-1,32
 636 290 636 290 725 290 c 0,33,34
 789 290 789 290 845 307 c 128,-1,35
 901 324 901 324 947.5 355.5 c 128,-1,36
 994 387 994 387 1028.5 432 c 128,-1,37
 1063 477 1063 477 1084 534 c 1,38,-1
 1443 534 l 1,39,40
 1411 420 1411 420 1344 320 c 128,-1,41
 1277 220 1277 220 1181 143 c 128,-1,42
 1085 66 1085 66 964.5 22 c 128,-1,43
 844 -22 844 -22 703 -22 c 0,4,5
EndSplineSet
Ligature2: "'ccmp' Glyph Composition/Decomposition in Latin lookup 6 subtable" C uni0338
Position2: "'cpsp' Capital Spacing in Latin lookup 0 subtable" dx=0 dy=0 dh=0 dv=0
EndChar

StartChar: uni0186
Encoding: 390 390 82
Width: 1513
GlyphClass: 2
Flags: W
AnchorPoint: "Anchor-3" 902 1488 basechar 0
AnchorPoint: "Anchor-1" 650 0 basechar 0
LayerCount: 2
Fore
SplineSet
877 1512 m 0,0,1
 1059 1512 1059 1512 1197 1440 c 128,-1,2
 1335 1368 1335 1368 1412.5 1230.5 c 128,-1,3
 1490 1093 1490 1093 1490 898 c 0,4,5
 1490 714 1490 714 1431.5 548 c 128,-1,6
 1373 382 1373 382 1264 253.5 c 128,-1,7
 1155 125 1155 125 1002 51.5 c 128,-1,8
 849 -22 849 -22 660 -22 c 0,9,10
 524 -22 524 -22 413 16 c 128,-1,11
 302 54 302 54 223 125.5 c 128,-1,12
 144 197 144 197 103.5 300.5 c 128,-1,13
 63 404 63 404 68 535 c 1,14,-1
 428 535 l 1,15,16
 428 478 428 478 444 432.5 c 128,-1,17
 460 387 460 387 491 355.5 c 128,-1,18
 522 324 522 324 566 307 c 128,-1,19
 610 290 610 290 667 290 c 0,20,21
 784 290 784 290 871 344 c 128,-1,22
 958 398 958 398 1016 487 c 128,-1,23
 1074 576 1074 576 1103 682.5 c 128,-1,24
 1132 789 1132 789 1132 895 c 0,25,26
 1132 994 1132 994 1100 1062 c 128,-1,27
 1068 1130 1068 1130 1006.5 1165 c 128,-1,28
 945 1200 945 1200 855 1200 c 0,29,30
 792 1200 792 1200 736 1184 c 128,-1,31
 680 1168 680 1168 633.5 1136 c 128,-1,32
 587 1104 587 1104 552 1059 c 128,-1,33
 517 1014 517 1014 497 957 c 1,34,-1
 137 957 l 1,35,36
 170 1071 170 1071 236.5 1171.5 c 128,-1,37
 303 1272 303 1272 399 1349 c 128,-1,38
 495 1426 495 1426 616 1469 c 128,-1,39
 737 1512 737 1512 877 1512 c 0,0,1
EndSplineSet
Position2: "'cpsp' Capital Spacing in Latin lookup 0 subtable" dx=0 dy=0 dh=0 dv=0
EndChar

StartChar: D
Encoding: 68 68 84
Width: 1462
GlyphClass: 2
Flags: W
AnchorPoint: "Anchor-1" 751 1490 basechar 0
AnchorPoint: "Anchor-0" 565 0 basechar 0
LayerCount: 2
Fore
SplineSet
622 0 m 2,0,-1
 171 0 l 1,1,-1
 220 301 l 1,2,-1
 600 301 l 2,3,4
 733 301 733 301 829.5 348 c 128,-1,5
 926 395 926 395 986 493.5 c 128,-1,6
 1046 592 1046 592 1071 745 c 0,7,8
 1097 900 1097 900 1070.5 998 c 128,-1,9
 1044 1096 1044 1096 964.5 1142.5 c 128,-1,10
 885 1189 885 1189 750 1189 c 2,11,-1
 361 1189 l 1,12,-1
 412 1490 l 1,13,-1
 795 1490 l 2,14,15
 1022 1490 1022 1490 1177.5 1400 c 128,-1,16
 1333 1310 1333 1310 1400 1143 c 128,-1,17
 1467 976 1467 976 1428 745 c 0,18,19
 1391 515 1391 515 1287 348 c 128,-1,20
 1183 181 1183 181 1016.5 90.5 c 128,-1,21
 850 0 850 0 622 0 c 2,0,-1
619 1490 m 1,22,-1
 372 0 l 1,23,-1
 16 0 l 1,24,-1
 263 1490 l 1,25,-1
 619 1490 l 1,22,-1
EndSplineSet
Substitution2: "'ss06' Style Set 6 in Latin lookup 52 subtable" D.squared
Substitution2: "'ss05' Style Set 5 in Latin lookup 51 subtable" uni24B9
Position2: "'cpsp' Capital Spacing in Latin lookup 0 subtable" dx=0 dy=0 dh=0 dv=0
EndChar

StartChar: uni018A
Encoding: 394 394 85
Width: 1894
GlyphClass: 2
Flags: W
AnchorPoint: "Anchor-1" 1183 1490 basechar 0
AnchorPoint: "Anchor-0" 997 0 basechar 0
LayerCount: 2
Fore
SplineSet
118 1036 m 1,0,-1
 135 1140 l 2,1,2
 163 1310 163 1310 273 1400 c 128,-1,3
 383 1490 383 1490 579 1490 c 2,4,-1
 695 1490 l 1,5,-1
 647 1199 l 1,6,-1
 581 1199 l 2,7,8
 526 1199 526 1199 494.5 1175 c 128,-1,9
 463 1151 463 1151 456 1102 c 2,10,-1
 445 1036 l 1,11,-1
 118 1036 l 1,0,-1
1054 0 m 2,12,-1
 603 0 l 1,13,-1
 652 301 l 1,14,-1
 1032 301 l 2,15,16
 1165 301 1165 301 1261.5 348 c 128,-1,17
 1358 395 1358 395 1418 493.5 c 128,-1,18
 1478 592 1478 592 1503 745 c 0,19,20
 1529 900 1529 900 1502.5 998 c 128,-1,21
 1476 1096 1476 1096 1396.5 1142.5 c 128,-1,22
 1317 1189 1317 1189 1182 1189 c 2,23,-1
 793 1189 l 1,24,-1
 844 1490 l 1,25,-1
 1227 1490 l 2,26,27
 1454 1490 1454 1490 1609.5 1400 c 128,-1,28
 1765 1310 1765 1310 1832 1143 c 128,-1,29
 1899 976 1899 976 1860 745 c 0,30,31
 1823 515 1823 515 1719 348 c 128,-1,32
 1615 181 1615 181 1448.5 90.5 c 128,-1,33
 1282 0 1282 0 1054 0 c 2,12,-1
1051 1490 m 1,34,-1
 804 0 l 1,35,-1
 448 0 l 1,36,-1
 695 1490 l 1,37,-1
 1051 1490 l 1,34,-1
EndSplineSet
Position2: "'cpsp' Capital Spacing in Latin lookup 0 subtable" dx=0 dy=0 dh=0 dv=0
EndChar

StartChar: E
Encoding: 69 69 95
Width: 1264
GlyphClass: 2
Flags: W
AnchorPoint: "Anchor-4" 1088 0 basechar 0
AnchorPoint: "Anchor-3" 554 0 basechar 0
AnchorPoint: "Anchor-1" 801 1490 basechar 0
AnchorPoint: "Anchor-0" 554 0 basechar 0
LayerCount: 2
Fore
SplineSet
16 0 m 1,0,-1
 263 1490 l 1,1,-1
 1335 1490 l 1,2,-1
 1286 1194 l 1,3,-1
 570 1194 l 1,4,-1
 521 896 l 1,5,-1
 1181 896 l 1,6,-1
 1133 606 l 1,7,-1
 473 606 l 1,8,-1
 422 298 l 1,9,-1
 1137 298 l 1,10,-1
 1088 0 l 1,11,-1
 16 0 l 1,0,-1
EndSplineSet
Substitution2: "'ss06' Style Set 6 in Latin lookup 52 subtable" E.squared
Substitution2: "'ss05' Style Set 5 in Latin lookup 51 subtable" uni24BA
Position2: "'cpsp' Capital Spacing in Latin lookup 0 subtable" dx=0 dy=0 dh=0 dv=0
EndChar

StartChar: uni0246
Encoding: 582 582 121
Width: 1264
GlyphClass: 2
Flags: W
AnchorPoint: "Anchor-4" 1088 0 basechar 0
AnchorPoint: "Anchor-3" 554 0 basechar 0
AnchorPoint: "Anchor-1" 801 1490 basechar 0
AnchorPoint: "Anchor-0" 554 0 basechar 0
LayerCount: 2
Fore
SplineSet
191 -190 m 1,0,-1
 1040 1678 l 1,1,-1
 1205 1678 l 1,2,-1
 357 -190 l 1,3,-1
 191 -190 l 1,0,-1
16 0 m 1,4,-1
 263 1490 l 1,5,-1
 1335 1490 l 1,6,-1
 1286 1194 l 1,7,-1
 570 1194 l 1,8,-1
 521 896 l 1,9,-1
 1181 896 l 1,10,-1
 1133 606 l 1,11,-1
 473 606 l 1,12,-1
 422 298 l 1,13,-1
 1137 298 l 1,14,-1
 1088 0 l 1,15,-1
 16 0 l 1,4,-1
EndSplineSet
Position2: "'cpsp' Capital Spacing in Latin lookup 0 subtable" dx=0 dy=0 dh=0 dv=0
EndChar

StartChar: Eturn
Encoding: 398 398 122
Width: 1264
GlyphClass: 2
Flags: W
AnchorPoint: "Anchor-4" 244 1490 basechar 0
AnchorPoint: "Anchor-3" 529 0 basechar 0
AnchorPoint: "Anchor-1" 776 1490 basechar 0
AnchorPoint: "Anchor-0" 527 0 basechar 0
LayerCount: 2
Fore
SplineSet
1315 1490 m 1,0,-1
 1068 0 l 1,1,-1
 -4 0 l 1,2,-1
 46 298 l 1,3,-1
 761 298 l 1,4,-1
 811 596 l 1,5,-1
 150 596 l 1,6,-1
 199 884 l 1,7,-1
 858 884 l 1,8,-1
 910 1194 l 1,9,-1
 195 1194 l 1,10,-1
 244 1490 l 1,11,-1
 1315 1490 l 1,0,-1
EndSplineSet
Position2: "'cpsp' Capital Spacing in Latin lookup 0 subtable" dx=0 dy=0 dh=0 dv=0
EndChar

StartChar: F
Encoding: 70 70 137
Width: 1208
GlyphClass: 2
Flags: W
AnchorPoint: "Anchor-1" 786 1490 basechar 0
AnchorPoint: "Anchor-0" 195 0 basechar 0
LayerCount: 2
Fore
SplineSet
16 0 m 1,0,-1
 263 1490 l 1,1,-1
 1308 1490 l 1,2,-1
 1259 1194 l 1,3,-1
 570 1194 l 1,4,-1
 512 845 l 1,5,-1
 1146 845 l 1,6,-1
 1098 558 l 1,7,-1
 465 558 l 1,8,-1
 372 0 l 1,9,-1
 16 0 l 1,0,-1
EndSplineSet
Substitution2: "'ss06' Style Set 6 in Latin lookup 52 subtable" F.squared
Substitution2: "'ss05' Style Set 5 in Latin lookup 51 subtable" uni24BB
Position2: "'cpsp' Capital Spacing in Latin lookup 0 subtable" dx=0 dy=0 dh=0 dv=0
EndChar

StartChar: uni0191
Encoding: 401 401 138
Width: 1208
GlyphClass: 2
Flags: W
AnchorPoint: "Anchor-1" 786 1490 basechar 0
AnchorPoint: "Anchor-0" 195 0 basechar 0
LayerCount: 2
Fore
SplineSet
-269 -417 m 1,0,-1
 -224 -144 l 1,1,2
 -202 -147 -202 -147 -172 -148 c 128,-1,3
 -142 -149 -142 -149 -110 -149 c 0,4,5
 -54 -149 -54 -149 -27.5 -128.5 c 128,-1,6
 -1 -108 -1 -108 6 -63 c 2,7,-1
 36 122 l 1,8,-1
 392 122 l 1,9,-1
 359 -83 l 2,10,11
 330 -254 330 -254 218.5 -340.5 c 128,-1,12
 107 -427 107 -427 -87 -427 c 0,13,14
 -143 -427 -143 -427 -189.5 -424.5 c 128,-1,15
 -236 -422 -236 -422 -269 -417 c 1,0,-1
16 0 m 1,16,-1
 263 1490 l 1,17,-1
 1308 1490 l 1,18,-1
 1259 1194 l 1,19,-1
 570 1194 l 1,20,-1
 512 845 l 1,21,-1
 1146 845 l 1,22,-1
 1098 558 l 1,23,-1
 465 558 l 1,24,-1
 372 0 l 1,25,-1
 16 0 l 1,16,-1
EndSplineSet
Position2: "'cpsp' Capital Spacing in Latin lookup 0 subtable" dx=0 dy=0 dh=0 dv=0
EndChar

StartChar: Fturn
Encoding: 8498 8498 140
Width: 1208
GlyphClass: 2
Flags: W
AnchorPoint: "Anchor-1" 1082 1490 basechar 0
AnchorPoint: "Anchor-0" 482 0 basechar 0
LayerCount: 2
Fore
SplineSet
1259 1490 m 1,0,-1
 1012 0 l 1,1,-1
 -33 0 l 1,2,-1
 16 298 l 1,3,-1
 705 298 l 1,4,-1
 763 645 l 1,5,-1
 129 645 l 1,6,-1
 177 934 l 1,7,-1
 810 934 l 1,8,-1
 903 1490 l 1,9,-1
 1259 1490 l 1,0,-1
EndSplineSet
Position2: "'cpsp' Capital Spacing in Latin lookup 0 subtable" dx=0 dy=0 dh=0 dv=0
EndChar

StartChar: G
Encoding: 1114113 -1 141
Width: 1527
GlyphClass: 2
Flags: W
AnchorPoint: "Anchor-1" 931 1490 basechar 0
AnchorPoint: "Anchor-0" 681 0 basechar 0
LayerCount: 2
Fore
SplineSet
710 -22 m 0,0,1
 518 -22 518 -22 379.5 53 c 128,-1,2
 241 128 241 128 166 266 c 128,-1,3
 91 404 91 404 91 594 c 0,4,5
 91 780 91 780 150.5 945.5 c 128,-1,6
 210 1111 210 1111 320 1239 c 128,-1,7
 430 1367 430 1367 583 1439.5 c 128,-1,8
 736 1512 736 1512 922 1512 c 0,9,10
 1050 1512 1050 1512 1160 1476.5 c 128,-1,11
 1270 1441 1270 1441 1351.5 1373 c 128,-1,12
 1433 1305 1433 1305 1476 1209.5 c 128,-1,13
 1519 1114 1519 1114 1511 995 c 1,14,-1
 1150 995 l 1,15,16
 1148 1042 1148 1042 1131.5 1080 c 128,-1,17
 1115 1118 1115 1118 1085.5 1145 c 128,-1,18
 1056 1172 1056 1172 1014 1186 c 128,-1,19
 972 1200 972 1200 917 1200 c 0,20,21
 801 1200 801 1200 713 1147 c 128,-1,22
 625 1094 625 1094 566.5 1006 c 128,-1,23
 508 918 508 918 478.5 811.5 c 128,-1,24
 449 705 449 705 449 599 c 0,25,26
 449 450 449 450 521.5 370 c 128,-1,27
 594 290 594 290 733 290 c 0,28,29
 835 290 835 290 915 326.5 c 128,-1,30
 995 363 995 363 1045.5 425.5 c 128,-1,31
 1096 488 1096 488 1108 570 c 1,32,-1
 1179 551 l 1,33,-1
 807 551 l 1,34,-1
 850 812 l 1,35,-1
 1495 812 l 1,36,-1
 1461 602 l 2,37,38
 1436 456 1436 456 1370 341 c 128,-1,39
 1304 226 1304 226 1205 145 c 128,-1,40
 1106 64 1106 64 979.5 21 c 128,-1,41
 853 -22 853 -22 710 -22 c 0,0,1
EndSplineSet
Substitution2: "'c2sc' Capitals to Small Capitals in Latin lookup 67 subtable" g.sc
Substitution2: "'cv10' Character Variants 10 in Latin lookup 64 subtable" G.1
Substitution2: "'ss06' Style Set 6 in Latin lookup 52 subtable" G.squared
Substitution2: "'ss05' Style Set 5 in Latin lookup 51 subtable" uni24BC
Substitution2: "'salt' Stylistic Alternatives in Latin lookup 46 subtable" G.1
Substitution2: "'aalt' Access All Alternates in Latin lookup 0 subtable" g.sc
Position2: "'cpsp' Capital Spacing in Latin lookup 0 subtable" dx=0 dy=0 dh=0 dv=0
EndChar

StartChar: uni0193
Encoding: 1114115 -1 143
Width: 1527
GlyphClass: 2
Flags: W
AnchorPoint: "Anchor-1" 931 1490 basechar 0
AnchorPoint: "Anchor-0" 681 0 basechar 0
LayerCount: 2
Fore
SplineSet
1278 1030 m 1,0,-1
 1277 1351 l 2,1,2
 1275 1468 1275 1468 1318.5 1540 c 128,-1,3
 1362 1612 1362 1612 1449.5 1646 c 128,-1,4
 1537 1680 1537 1680 1665 1680 c 0,5,6
 1720 1680 1720 1680 1766 1678 c 128,-1,7
 1812 1676 1812 1676 1845 1671 c 1,8,-1
 1802 1411 l 1,9,10
 1781 1413 1781 1413 1750.5 1414 c 128,-1,11
 1720 1415 1720 1415 1688 1415 c 0,12,13
 1632 1415 1632 1415 1603.5 1394.5 c 128,-1,14
 1575 1374 1575 1374 1566 1328 c 2,15,-1
 1512 995 l 1,16,-1
 1278 1030 l 1,0,-1
710 -22 m 0,17,18
 518 -22 518 -22 379.5 53 c 128,-1,19
 241 128 241 128 166 266 c 128,-1,20
 91 404 91 404 91 594 c 0,21,22
 91 780 91 780 150.5 945.5 c 128,-1,23
 210 1111 210 1111 320 1239 c 128,-1,24
 430 1367 430 1367 583 1439.5 c 128,-1,25
 736 1512 736 1512 922 1512 c 0,26,27
 1050 1512 1050 1512 1160 1476.5 c 128,-1,28
 1270 1441 1270 1441 1351.5 1373 c 128,-1,29
 1433 1305 1433 1305 1476 1209.5 c 128,-1,30
 1519 1114 1519 1114 1511 995 c 1,31,-1
 1150 995 l 1,32,33
 1148 1042 1148 1042 1131.5 1080 c 128,-1,34
 1115 1118 1115 1118 1085.5 1145 c 128,-1,35
 1056 1172 1056 1172 1014 1186 c 128,-1,36
 972 1200 972 1200 917 1200 c 0,37,38
 801 1200 801 1200 713 1147 c 128,-1,39
 625 1094 625 1094 566.5 1006 c 128,-1,40
 508 918 508 918 478.5 811.5 c 128,-1,41
 449 705 449 705 449 599 c 0,42,43
 449 450 449 450 521.5 370 c 128,-1,44
 594 290 594 290 733 290 c 0,45,46
 835 290 835 290 915 326.5 c 128,-1,47
 995 363 995 363 1045.5 425.5 c 128,-1,48
 1096 488 1096 488 1108 570 c 1,49,-1
 1179 551 l 1,50,-1
 807 551 l 1,51,-1
 850 812 l 1,52,-1
 1495 812 l 1,53,-1
 1461 602 l 2,54,55
 1436 456 1436 456 1370 341 c 128,-1,56
 1304 226 1304 226 1205 145 c 128,-1,57
 1106 64 1106 64 979.5 21 c 128,-1,58
 853 -22 853 -22 710 -22 c 0,17,18
EndSplineSet
Substitution2: "'c2sc' Capitals to Small Capitals in Latin lookup 67 subtable" uni0260.sc
Substitution2: "'cv10' Character Variants 10 in Latin lookup 64 subtable" uni0193.1
Substitution2: "'salt' Stylistic Alternatives in Latin lookup 46 subtable" uni0193.1
Substitution2: "'aalt' Access All Alternates in Latin lookup 0 subtable" uni0260.sc
Position2: "'cpsp' Capital Spacing in Latin lookup 0 subtable" dx=0 dy=0 dh=0 dv=0
EndChar

StartChar: G.1
Encoding: 57346 57346 151
AltUni2: 000047.ffffffff.0
Width: 1526
GlyphClass: 2
Flags: W
AnchorPoint: "Anchor-1" 936 1490 basechar 0
AnchorPoint: "Anchor-0" 675 2 basechar 0
LayerCount: 2
Fore
SplineSet
650 -22 m 0,0,1
 461 -22 461 -22 323.5 72 c 128,-1,2
 186 166 186 166 123.5 338 c 128,-1,3
 61 510 61 510 100 743 c 0,4,5
 131 926 131 926 209 1069 c 128,-1,6
 287 1212 287 1212 400.5 1311 c 128,-1,7
 514 1410 514 1410 652 1461 c 128,-1,8
 790 1512 790 1512 940 1512 c 0,9,10
 1071 1512 1071 1512 1178 1475 c 128,-1,11
 1285 1438 1285 1438 1362 1368.5 c 128,-1,12
 1439 1299 1439 1299 1478 1204 c 128,-1,13
 1517 1109 1517 1109 1512 995 c 1,14,-1
 1150 995 l 1,15,16
 1147 1042 1147 1042 1129 1080 c 128,-1,17
 1111 1118 1111 1118 1079 1145 c 128,-1,18
 1047 1172 1047 1172 1001.5 1186 c 128,-1,19
 956 1200 956 1200 898 1200 c 0,20,21
 787 1200 787 1200 697 1147 c 128,-1,22
 607 1094 607 1094 547 992 c 128,-1,23
 487 890 487 890 463 746 c 0,24,25
 438 602 438 602 464.5 500 c 128,-1,26
 491 398 491 398 564.5 344 c 128,-1,27
 638 290 638 290 754 290 c 0,28,29
 849 290 849 290 924 324 c 128,-1,30
 999 358 999 358 1046.5 419.5 c 128,-1,31
 1094 481 1094 481 1108 564 c 1,32,-1
 1258 564 l 1,33,-1
 1241 459 l 2,34,35
 1223 352 1223 352 1173 263.5 c 128,-1,36
 1123 175 1123 175 1045 111.5 c 128,-1,37
 967 48 967 48 867.5 13 c 128,-1,38
 768 -22 768 -22 650 -22 c 0,0,1
1135 0 m 1,39,-1
 1140 324 l 1,40,-1
 1178 551 l 1,41,-1
 806 551 l 1,42,-1
 850 812 l 1,43,-1
 1495 812 l 1,44,-1
 1360 0 l 1,45,-1
 1135 0 l 1,39,-1
EndSplineSet
Substitution2: "'ss06' Style Set 6 in Latin lookup 52 subtable" G.1.squared
EndChar

StartChar: uni0193.1
Encoding: 57348 57348 153
AltUni2: 000193.ffffffff.0
Width: 1526
GlyphClass: 2
Flags: W
AnchorPoint: "Anchor-1" 936 1490 basechar 0
AnchorPoint: "Anchor-0" 675 2 basechar 0
LayerCount: 2
Fore
SplineSet
1277 1030 m 1,0,-1
 1276 1351 l 2,1,2
 1274 1468 1274 1468 1317.5 1540 c 128,-1,3
 1361 1612 1361 1612 1448.5 1646 c 128,-1,4
 1536 1680 1536 1680 1664 1680 c 0,5,6
 1719 1680 1719 1680 1765 1678 c 128,-1,7
 1811 1676 1811 1676 1844 1671 c 1,8,-1
 1801 1411 l 1,9,10
 1780 1413 1780 1413 1749.5 1414 c 128,-1,11
 1719 1415 1719 1415 1687 1415 c 0,12,13
 1631 1415 1631 1415 1603 1394.5 c 128,-1,14
 1575 1374 1575 1374 1566 1328 c 2,15,-1
 1512 995 l 1,16,-1
 1277 1030 l 1,0,-1
650 -22 m 0,17,18
 461 -22 461 -22 323.5 72 c 128,-1,19
 186 166 186 166 123.5 338 c 128,-1,20
 61 510 61 510 100 743 c 0,21,22
 131 926 131 926 209 1069 c 128,-1,23
 287 1212 287 1212 400.5 1311 c 128,-1,24
 514 1410 514 1410 652 1461 c 128,-1,25
 790 1512 790 1512 940 1512 c 0,26,27
 1071 1512 1071 1512 1178 1475 c 128,-1,28
 1285 1438 1285 1438 1362 1368.5 c 128,-1,29
 1439 1299 1439 1299 1478 1204 c 128,-1,30
 1517 1109 1517 1109 1512 995 c 1,31,-1
 1150 995 l 1,32,33
 1147 1042 1147 1042 1129 1080 c 128,-1,34
 1111 1118 1111 1118 1079 1145 c 128,-1,35
 1047 1172 1047 1172 1001.5 1186 c 128,-1,36
 956 1200 956 1200 898 1200 c 0,37,38
 787 1200 787 1200 697 1147 c 128,-1,39
 607 1094 607 1094 547 992 c 128,-1,40
 487 890 487 890 463 746 c 0,41,42
 438 602 438 602 464.5 500 c 128,-1,43
 491 398 491 398 564.5 344 c 128,-1,44
 638 290 638 290 754 290 c 0,45,46
 849 290 849 290 924 324 c 128,-1,47
 999 358 999 358 1046.5 419.5 c 128,-1,48
 1094 481 1094 481 1108 564 c 1,49,-1
 1258 564 l 1,50,-1
 1241 459 l 2,51,52
 1223 352 1223 352 1173 263.5 c 128,-1,53
 1123 175 1123 175 1045 111.5 c 128,-1,54
 967 48 967 48 867.5 13 c 128,-1,55
 768 -22 768 -22 650 -22 c 0,17,18
1135 0 m 1,56,-1
 1140 324 l 1,57,-1
 1178 551 l 1,58,-1
 806 551 l 1,59,-1
 850 812 l 1,60,-1
 1495 812 l 1,61,-1
 1360 0 l 1,62,-1
 1135 0 l 1,56,-1
EndSplineSet
EndChar

StartChar: H
Encoding: 72 72 161
Width: 1507
GlyphClass: 2
Flags: W
AnchorPoint: "Anchor-3" 196 0 basechar 0
AnchorPoint: "Anchor-1" 911 1490 basechar 0
AnchorPoint: "Anchor-0" 664 0 basechar 0
LayerCount: 2
Fore
SplineSet
16 0 m 1,0,-1
 263 1490 l 1,1,-1
 619 1490 l 1,2,-1
 523 909 l 1,3,-1
 1104 909 l 1,4,-1
 1201 1490 l 1,5,-1
 1557 1490 l 1,6,-1
 1310 0 l 1,7,-1
 954 0 l 1,8,-1
 1055 612 l 1,9,-1
 474 612 l 1,10,-1
 372 0 l 1,11,-1
 16 0 l 1,0,-1
EndSplineSet
Substitution2: "'c2sc' Capitals to Small Capitals in Latin lookup 67 subtable" h.sc
Substitution2: "'ss06' Style Set 6 in Latin lookup 52 subtable" H.squared
Substitution2: "'ss05' Style Set 5 in Latin lookup 51 subtable" uni24BD
Substitution2: "'aalt' Access All Alternates in Latin lookup 0 subtable" h.sc
Position2: "'cpsp' Capital Spacing in Latin lookup 0 subtable" dx=0 dy=0 dh=0 dv=0
EndChar

StartChar: Hbar
Encoding: 294 294 169
Width: 1656
GlyphClass: 2
Flags: W
AnchorPoint: "Anchor-3" 267 0 basechar 0
AnchorPoint: "Anchor-1" 982 1490 basechar 0
AnchorPoint: "Anchor-0" 735 0 basechar 0
LayerCount: 2
Fore
SplineSet
1718 1246 m 1,0,-1
 1687 1064 l 1,1,-1
 142 1064 l 1,2,-1
 172 1246 l 1,3,-1
 1718 1246 l 1,0,-1
88 0 m 1,4,-1
 335 1490 l 1,5,-1
 691 1490 l 1,6,-1
 594 909 l 1,7,-1
 1175 909 l 1,8,-1
 1272 1490 l 1,9,-1
 1628 1490 l 1,10,-1
 1381 0 l 1,11,-1
 1025 0 l 1,12,-1
 1126 612 l 1,13,-1
 545 612 l 1,14,-1
 444 0 l 1,15,-1
 88 0 l 1,4,-1
EndSplineSet
Position2: "'cpsp' Capital Spacing in Latin lookup 0 subtable" dx=0 dy=0 dh=0 dv=0
EndChar

StartChar: uni04C7
Encoding: 1223 1223 170
Width: 1507
GlyphClass: 2
Flags: W
AnchorPoint: "Anchor-3" 196 0 basechar 0
AnchorPoint: "Anchor-1" 911 1490 basechar 0
AnchorPoint: "Anchor-0" 664 0 basechar 0
LayerCount: 2
Fore
SplineSet
669 -417 m 1,0,-1
 714 -144 l 1,1,2
 735 -147 735 -147 765.5 -148 c 128,-1,3
 796 -149 796 -149 828 -149 c 0,4,5
 884 -149 884 -149 910 -128.5 c 128,-1,6
 936 -108 936 -108 943 -63 c 2,7,-1
 974 122 l 1,8,-1
 1330 122 l 1,9,-1
 1297 -83 l 2,10,11
 1267 -254 1267 -254 1155.5 -340.5 c 128,-1,12
 1044 -427 1044 -427 850 -427 c 0,13,14
 795 -427 795 -427 748 -424.5 c 128,-1,15
 701 -422 701 -422 669 -417 c 1,0,-1
16 0 m 1,16,-1
 263 1490 l 1,17,-1
 619 1490 l 1,18,-1
 523 909 l 1,19,-1
 1104 909 l 1,20,-1
 1201 1490 l 1,21,-1
 1557 1490 l 1,22,-1
 1310 0 l 1,23,-1
 954 0 l 1,24,-1
 1055 612 l 1,25,-1
 474 612 l 1,26,-1
 372 0 l 1,27,-1
 16 0 l 1,16,-1
EndSplineSet
Position2: "'cpsp' Capital Spacing in Latin lookup 0 subtable" dx=0 dy=0 dh=0 dv=0
EndChar

StartChar: uni04A4
Encoding: 1188 1188 173
Width: 2051
GlyphClass: 2
Flags: W
AnchorPoint: "Anchor-3" 196 0 basechar 0
AnchorPoint: "Anchor-1" 911 1490 basechar 0
AnchorPoint: "Anchor-0" 664 0 basechar 0
LayerCount: 2
Fore
SplineSet
2154 1490 m 1,0,-1
 2106 1204 l 1,1,-1
 1456 1204 l 1,2,-1
 1212 1490 l 1,3,-1
 2154 1490 l 1,0,-1
16 0 m 1,4,-1
 263 1490 l 1,5,-1
 619 1490 l 1,6,-1
 523 909 l 1,7,-1
 1104 909 l 1,8,-1
 1201 1490 l 1,9,-1
 1557 1490 l 1,10,-1
 1310 0 l 1,11,-1
 954 0 l 1,12,-1
 1055 612 l 1,13,-1
 474 612 l 1,14,-1
 372 0 l 1,15,-1
 16 0 l 1,4,-1
EndSplineSet
Position2: "'cpsp' Capital Spacing in Latin lookup 0 subtable" dx=0 dy=0 dh=0 dv=0
EndChar

StartChar: uni01F6
Encoding: 502 502 174
Width: 2252
Flags: W
LayerCount: 2
Fore
SplineSet
1523 -22 m 0,0,1
 1352 -22 1352 -22 1233 42 c 128,-1,2
 1114 106 1114 106 1062 219.5 c 128,-1,3
 1010 333 1010 333 1034 483 c 2,4,-1
 1054 604 l 1,5,-1
 473 604 l 1,6,-1
 372 0 l 1,7,-1
 16 0 l 1,8,-1
 263 1490 l 1,9,-1
 619 1490 l 1,10,-1
 522 901 l 1,11,-1
 1103 901 l 1,12,-1
 1201 1490 l 1,13,-1
 1557 1490 l 1,14,-1
 1388 471 l 2,15,16
 1371 369 1371 369 1409.5 318 c 128,-1,17
 1448 267 1448 267 1535 267 c 0,18,19
 1602 267 1602 267 1655 295 c 128,-1,20
 1708 323 1708 323 1743 375 c 128,-1,21
 1778 427 1778 427 1790 494 c 2,22,-1
 1884 1068 l 1,23,-1
 2233 1068 l 1,24,-1
 2133 461 l 2,25,26
 2109 310 2109 310 2025.5 202.5 c 128,-1,27
 1942 95 1942 95 1813 36.5 c 128,-1,28
 1684 -22 1684 -22 1523 -22 c 0,0,1
EndSplineSet
Position2: "'cpsp' Capital Spacing in Latin lookup 0 subtable" dx=0 dy=0 dh=0 dv=0
EndChar

StartChar: I
Encoding: 73 73 197
Width: 569
GlyphClass: 2
Flags: W
AnchorPoint: "Anchor-4" 372 0 basechar 0
AnchorPoint: "Anchor-1" 443 1490 basechar 0
AnchorPoint: "Anchor-0" 194 0 basechar 0
LayerCount: 2
Fore
SplineSet
619 1490 m 1,0,-1
 372 0 l 1,1,-1
 16 0 l 1,2,-1
 263 1490 l 1,3,-1
 619 1490 l 1,0,-1
EndSplineSet
Substitution2: "'c2sc' Capitals to Small Capitals in Latin lookup 67 subtable" i.sc
Substitution2: "'cv08' Character Variants 08 in Latin lookup 62 subtable" I.1
Substitution2: "'ss06' Style Set 6 in Latin lookup 52 subtable" I.squared
Substitution2: "'ss05' Style Set 5 in Latin lookup 51 subtable" uni24BE
Substitution2: "'ss04' Style Set 4 in Latin lookup 50 subtable" I.1
Substitution2: "'ss02' Style Set 2 in Latin lookup 48 subtable" I.1
Substitution2: "'salt' Stylistic Alternatives in Latin lookup 46 subtable" I.1
Substitution2: "'aalt' Access All Alternates in Latin lookup 0 subtable" i.sc
Position2: "'cpsp' Capital Spacing in Latin lookup 0 subtable" dx=0 dy=0 dh=0 dv=0
EndChar

StartChar: I.1
Encoding: 57356 57356 235
Width: 927
GlyphClass: 2
Flags: W
AnchorPoint: "Anchor-4" 775 0 basechar 0
AnchorPoint: "Anchor-1" 621 1490 basechar 0
AnchorPoint: "Anchor-0" 374 0 basechar 0
LayerCount: 2
Fore
SplineSet
-28 0 m 1,0,-1
 19 287 l 1,1,-1
 242 287 l 1,2,-1
 395 1203 l 1,3,-1
 172 1203 l 1,4,-1
 219 1490 l 1,5,-1
 1022 1490 l 1,6,-1
 973 1203 l 1,7,-1
 751 1203 l 1,8,-1
 598 287 l 1,9,-1
 823 287 l 1,10,-1
 775 0 l 1,11,-1
 -28 0 l 1,0,-1
EndSplineSet
EndChar

StartChar: J
Encoding: 74 74 267
Width: 1192
GlyphClass: 2
Flags: W
AnchorPoint: "Anchor-1" 1066 1490 basechar 0
LayerCount: 2
Fore
SplineSet
490 -22 m 0,0,1
 274 -22 274 -22 152 76 c 128,-1,2
 30 174 30 174 30 358 c 0,3,4
 30 374 30 374 32 394.5 c 128,-1,5
 34 415 34 415 39.5 453.5 c 128,-1,6
 45 492 45 492 57 559 c 1,7,-1
 401 559 l 1,8,9
 390 498 390 498 385.5 468 c 128,-1,10
 381 438 381 438 380 425.5 c 128,-1,11
 379 413 379 413 379 405 c 0,12,13
 379 338 379 338 415.5 303.5 c 128,-1,14
 452 269 452 269 520 269 c 0,15,16
 597 269 597 269 650 316 c 128,-1,17
 703 363 703 363 719 455 c 2,18,-1
 890 1490 l 1,19,-1
 1244 1490 l 1,20,-1
 1072 455 l 2,21,22
 1034 226 1034 226 885 102 c 128,-1,23
 736 -22 736 -22 490 -22 c 0,0,1
EndSplineSet
Substitution2: "'ss06' Style Set 6 in Latin lookup 52 subtable" J.squared
Substitution2: "'ss05' Style Set 5 in Latin lookup 51 subtable" uni24BF
Position2: "'cpsp' Capital Spacing in Latin lookup 0 subtable" dx=0 dy=0 dh=0 dv=0
EndChar

StartChar: K
Encoding: 75 75 272
Width: 1479
GlyphClass: 2
Flags: W
AnchorPoint: "Anchor-1" 885 1490 basechar 0
AnchorPoint: "Anchor-0" 638 0 basechar 0
LayerCount: 2
Fore
SplineSet
326 282 m 1,0,-1
 372 657 l 1,1,2
 432 734 432 734 490 801.5 c 128,-1,3
 548 869 548 869 610 937 c 128,-1,4
 672 1005 672 1005 747 1084 c 2,5,-1
 1148 1490 l 1,6,-1
 1588 1490 l 1,7,-1
 838 744 l 1,8,-1
 807 751 l 1,9,-1
 326 282 l 1,0,-1
16 0 m 1,10,-1
 263 1490 l 1,11,-1
 625 1490 l 1,12,-1
 563 1124 l 1,13,-1
 493 721 l 1,14,-1
 468 550 l 1,15,-1
 378 0 l 1,16,-1
 16 0 l 1,10,-1
969 0 m 1,17,-1
 672 639 l 1,18,-1
 913 905 l 1,19,-1
 1363 0 l 1,20,-1
 969 0 l 1,17,-1
EndSplineSet
Substitution2: "'ss06' Style Set 6 in Latin lookup 52 subtable" K.squared
Substitution2: "'ss05' Style Set 5 in Latin lookup 51 subtable" uni24C0
Position2: "'cpsp' Capital Spacing in Latin lookup 0 subtable" dx=0 dy=0 dh=0 dv=0
EndChar

StartChar: uni04A0
Encoding: 1184 1184 278
Width: 1823
GlyphClass: 2
Flags: W
AnchorPoint: "Anchor-1" 1196 1490 basechar 0
LayerCount: 2
Fore
SplineSet
777 1490 m 1,0,-1
 728 1194 l 1,1,-1
 163 1194 l 1,2,-1
 212 1490 l 1,3,-1
 777 1490 l 1,0,-1
359 0 m 1,4,-1
 606 1490 l 1,5,-1
 962 1490 l 1,6,-1
 867 909 l 1,7,-1
 990 909 l 1,8,-1
 1500 1490 l 1,9,-1
 1927 1490 l 1,10,-1
 1269 766 l 1,11,-1
 1706 0 l 1,12,-1
 1306 0 l 1,13,-1
 967 614 l 1,14,-1
 817 614 l 1,15,-1
 715 0 l 1,16,-1
 359 0 l 1,4,-1
EndSplineSet
Position2: "'cpsp' Capital Spacing in Latin lookup 0 subtable" dx=0 dy=0 dh=0 dv=0
EndChar

StartChar: uni0198
Encoding: 408 408 280
Width: 1506
Flags: W
LayerCount: 2
Fore
SplineSet
16 0 m 1,0,-1
 263 1490 l 1,1,-1
 615 1490 l 1,2,-1
 512 876 l 1,3,-1
 532 876 l 1,4,-1
 1075 1357 l 2,5,6
 1170 1440 1170 1440 1267 1478 c 128,-1,7
 1364 1516 1364 1516 1460.5 1507 c 128,-1,8
 1557 1498 1557 1498 1651 1439 c 1,9,-1
 1502 1192 l 1,10,11
 1443 1224 1443 1224 1397.5 1205.5 c 128,-1,12
 1352 1187 1352 1187 1295 1138 c 2,13,-1
 907 799 l 1,14,-1
 1386 0 l 1,15,-1
 966 0 l 1,16,-1
 641 548 l 1,17,-1
 427 358 l 1,18,-1
 369 0 l 1,19,-1
 16 0 l 1,0,-1
EndSplineSet
Position2: "'cpsp' Capital Spacing in Latin lookup 0 subtable" dx=0 dy=0 dh=0 dv=0
EndChar

StartChar: L
Encoding: 76 76 282
Width: 1158
GlyphClass: 2
Flags: W
AnchorPoint: "Anchor-1" 441 1490 basechar 0
AnchorPoint: "Anchor-0" 507 0 basechar 0
LayerCount: 2
Fore
SplineSet
16 0 m 1,0,-1
 263 1490 l 1,1,-1
 619 1490 l 1,2,-1
 422 298 l 1,3,-1
 1064 298 l 1,4,-1
 1014 0 l 1,5,-1
 16 0 l 1,0,-1
EndSplineSet
Substitution2: "'c2sc' Capitals to Small Capitals in Latin lookup 67 subtable" l.sc
Substitution2: "'ss06' Style Set 6 in Latin lookup 52 subtable" L.squared
Substitution2: "'ss05' Style Set 5 in Latin lookup 51 subtable" uni24C1
Substitution2: "'aalt' Access All Alternates in Latin lookup 0 subtable" l.sc
Position2: "'cpsp' Capital Spacing in Latin lookup 0 subtable" dx=0 dy=0 dh=0 dv=0
EndChar

StartChar: M
Encoding: 77 77 293
Width: 1897
GlyphClass: 2
Flags: W
AnchorPoint: "Anchor-1" 1105 1490 basechar 0
AnchorPoint: "Anchor-0" 859 0 basechar 0
LayerCount: 2
Fore
SplineSet
16 0 m 1,0,-1
 264 1490 l 1,1,-1
 804 1490 l 1,2,-1
 898 908 l 2,3,4
 906 854 906 854 913.5 771.5 c 128,-1,5
 921 689 921 689 928 597 c 128,-1,6
 935 505 935 505 939.5 420 c 128,-1,7
 944 335 944 335 946 275 c 1,8,-1
 866 277 l 1,9,10
 887 337 887 337 920 421.5 c 128,-1,11
 953 506 953 506 990 598.5 c 128,-1,12
 1027 691 1027 691 1061.5 773.5 c 128,-1,13
 1096 856 1096 856 1120 908 c 2,14,-1
 1406 1490 l 1,15,-1
 1948 1490 l 1,16,-1
 1700 0 l 1,17,-1
 1346 0 l 1,18,-1
 1453 645 l 2,19,20
 1462 696 1462 696 1477 772.5 c 128,-1,21
 1492 849 1492 849 1509 939 c 128,-1,22
 1526 1029 1526 1029 1543.5 1119.5 c 128,-1,23
 1561 1210 1561 1210 1574 1289 c 1,24,-1
 1606 1288 l 1,25,26
 1571 1202 1571 1202 1532 1109.5 c 128,-1,27
 1493 1017 1493 1017 1454.5 929 c 128,-1,28
 1416 841 1416 841 1382.5 766.5 c 128,-1,29
 1349 692 1349 692 1325 644 c 2,30,-1
 1006 0 l 1,31,-1
 713 0 l 1,32,-1
 603 644 l 2,33,34
 593 710 593 710 580 817.5 c 128,-1,35
 567 925 567 925 554.5 1050 c 128,-1,36
 542 1175 542 1175 531 1289 c 1,37,-1
 568 1288 l 1,38,39
 556 1208 556 1208 543 1117 c 128,-1,40
 530 1026 530 1026 518 936.5 c 128,-1,41
 506 847 506 847 495.5 770.5 c 128,-1,42
 485 694 485 694 476 644 c 2,43,-1
 370 0 l 1,44,-1
 16 0 l 1,0,-1
EndSplineSet
Substitution2: "'c2sc' Capitals to Small Capitals in Latin lookup 67 subtable" m.sc
Substitution2: "'ss06' Style Set 6 in Latin lookup 52 subtable" M.squared
Substitution2: "'ss05' Style Set 5 in Latin lookup 51 subtable" uni24C2
Substitution2: "'aalt' Access All Alternates in Latin lookup 0 subtable" m.sc
Position2: "'cpsp' Capital Spacing in Latin lookup 0 subtable" dx=0 dy=0 dh=0 dv=0
EndChar

StartChar: N
Encoding: 78 78 301
Width: 1534
GlyphClass: 2
Flags: W
AnchorPoint: "Anchor-1" 925 1490 basechar 0
AnchorPoint: "Anchor-0" 678 0 basechar 0
LayerCount: 2
Fore
SplineSet
16 0 m 1,0,-1
 263 1490 l 1,1,-1
 642 1490 l 1,2,-1
 949 816 l 2,3,4
 972 764 972 764 998 697.5 c 128,-1,5
 1024 631 1024 631 1050 552 c 128,-1,6
 1076 473 1076 473 1097 384 c 1,7,-1
 1053 335 l 1,8,9
 1061 413 1061 413 1072 511 c 128,-1,10
 1083 609 1083 609 1096 700.5 c 128,-1,11
 1109 792 1109 792 1117 850 c 2,12,-1
 1224 1490 l 1,13,-1
 1585 1490 l 1,14,-1
 1338 0 l 1,15,-1
 960 0 l 1,16,-1
 677 619 l 2,17,18
 648 684 648 684 618.5 758 c 128,-1,19
 589 832 589 832 557 922.5 c 128,-1,20
 525 1013 525 1013 490 1123 c 1,21,-1
 543 1138 l 1,22,23
 533 1029 533 1029 521.5 929.5 c 128,-1,24
 510 830 510 830 499 749.5 c 128,-1,25
 488 669 488 669 479 619 c 2,26,-1
 378 0 l 1,27,-1
 16 0 l 1,0,-1
EndSplineSet
Substitution2: "'c2sc' Capitals to Small Capitals in Latin lookup 67 subtable" n.sc
Substitution2: "'ss06' Style Set 6 in Latin lookup 52 subtable" N.squared
Substitution2: "'ss05' Style Set 5 in Latin lookup 51 subtable" uni24C3
Substitution2: "'aalt' Access All Alternates in Latin lookup 0 subtable" n.sc
Position2: "'cpsp' Capital Spacing in Latin lookup 0 subtable" dx=0 dy=0 dh=0 dv=0
EndChar

StartChar: Nhook
Encoding: 413 413 311
Width: 1534
GlyphClass: 2
Flags: W
AnchorPoint: "Anchor-1" 925 1490 basechar 0
AnchorPoint: "Anchor-0" 678 0 basechar 0
LayerCount: 2
Fore
SplineSet
-269 -417 m 1,0,-1
 -224 -144 l 1,1,2
 -202 -147 -202 -147 -172 -148 c 128,-1,3
 -142 -149 -142 -149 -110 -149 c 0,4,5
 -54 -149 -54 -149 -27.5 -128.5 c 128,-1,6
 -1 -108 -1 -108 6 -63 c 2,7,-1
 36 122 l 1,8,-1
 392 122 l 1,9,-1
 359 -83 l 2,10,11
 330 -254 330 -254 218.5 -340.5 c 128,-1,12
 107 -427 107 -427 -87 -427 c 0,13,14
 -143 -427 -143 -427 -189.5 -424.5 c 128,-1,15
 -236 -422 -236 -422 -269 -417 c 1,0,-1
16 0 m 1,16,-1
 263 1490 l 1,17,-1
 642 1490 l 1,18,-1
 949 816 l 2,19,20
 972 764 972 764 998 697.5 c 128,-1,21
 1024 631 1024 631 1050 552 c 128,-1,22
 1076 473 1076 473 1097 384 c 1,23,-1
 1053 335 l 1,24,25
 1061 413 1061 413 1072 511 c 128,-1,26
 1083 609 1083 609 1096 700.5 c 128,-1,27
 1109 792 1109 792 1117 850 c 2,28,-1
 1224 1490 l 1,29,-1
 1585 1490 l 1,30,-1
 1338 0 l 1,31,-1
 960 0 l 1,32,-1
 677 619 l 2,33,34
 648 684 648 684 618.5 758 c 128,-1,35
 589 832 589 832 557 922.5 c 128,-1,36
 525 1013 525 1013 490 1123 c 1,37,-1
 543 1138 l 1,38,39
 533 1029 533 1029 521.5 929.5 c 128,-1,40
 510 830 510 830 499 749.5 c 128,-1,41
 488 669 488 669 479 619 c 2,42,-1
 378 0 l 1,43,-1
 16 0 l 1,16,-1
EndSplineSet
Position2: "'cpsp' Capital Spacing in Latin lookup 0 subtable" dx=0 dy=0 dh=0 dv=0
EndChar

StartChar: Eng
Encoding: 330 330 312
Width: 1534
GlyphClass: 2
Flags: W
AnchorPoint: "Anchor-1" 925 1490 basechar 0
AnchorPoint: "Anchor-0" 678 0 basechar 0
LayerCount: 2
Fore
SplineSet
697 -417 m 1,0,-1
 742 -144 l 1,1,2
 764 -147 764 -147 794 -148 c 128,-1,3
 824 -149 824 -149 856 -149 c 0,4,5
 912 -149 912 -149 938.5 -128.5 c 128,-1,6
 965 -108 965 -108 972 -63 c 2,7,-1
 1002 122 l 1,8,-1
 1358 122 l 1,9,-1
 1325 -83 l 2,10,11
 1296 -254 1296 -254 1184.5 -340.5 c 128,-1,12
 1073 -427 1073 -427 879 -427 c 0,13,14
 823 -427 823 -427 776.5 -424.5 c 128,-1,15
 730 -422 730 -422 697 -417 c 1,0,-1
16 0 m 1,16,-1
 263 1490 l 1,17,-1
 642 1490 l 1,18,-1
 949 816 l 2,19,20
 972 764 972 764 998 697.5 c 128,-1,21
 1024 631 1024 631 1050 552 c 128,-1,22
 1076 473 1076 473 1097 384 c 1,23,-1
 1053 335 l 1,24,25
 1061 413 1061 413 1072 511 c 128,-1,26
 1083 609 1083 609 1096 700.5 c 128,-1,27
 1109 792 1109 792 1117 850 c 2,28,-1
 1224 1490 l 1,29,-1
 1585 1490 l 1,30,-1
 1338 0 l 1,31,-1
 960 0 l 1,32,-1
 677 619 l 2,33,34
 648 684 648 684 618.5 758 c 128,-1,35
 589 832 589 832 557 922.5 c 128,-1,36
 525 1013 525 1013 490 1123 c 1,37,-1
 543 1138 l 1,38,39
 533 1029 533 1029 521.5 929.5 c 128,-1,40
 510 830 510 830 499 749.5 c 128,-1,41
 488 669 488 669 479 619 c 2,42,-1
 378 0 l 1,43,-1
 16 0 l 1,16,-1
EndSplineSet
Position2: "'cpsp' Capital Spacing in Latin lookup 0 subtable" dx=0 dy=0 dh=0 dv=0
EndChar

StartChar: uni0418
Encoding: 1048 1048 313
Width: 1534
GlyphClass: 2
Flags: W
AnchorPoint: "Anchor-1" 907 1490 basechar 0
AnchorPoint: "Anchor-0" 677 0 basechar 0
LayerCount: 2
Fore
SplineSet
1338 0 m 1,0,-1
 977 0 l 1,1,-1
 1080 619 l 2,2,3
 1088 670 1088 670 1103.5 750 c 128,-1,4
 1119 830 1119 830 1140.5 930 c 128,-1,5
 1162 1030 1162 1030 1186 1138 c 1,6,-1
 1245 1121 l 1,7,8
 1172 1011 1172 1011 1110.5 920.5 c 128,-1,9
 1049 830 1049 830 995.5 755.5 c 128,-1,10
 942 681 942 681 891 617 c 2,11,-1
 404 0 l 1,12,-1
 16 0 l 1,13,-1
 263 1490 l 1,14,-1
 625 1490 l 1,15,-1
 518 850 l 2,16,17
 508 791 508 791 490 699 c 128,-1,18
 472 607 472 607 451.5 510 c 128,-1,19
 431 413 431 413 412 335 c 1,20,-1
 379 396 l 1,21,22
 431 483 431 483 482.5 560 c 128,-1,23
 534 637 534 637 582 701.5 c 128,-1,24
 630 766 630 766 670 817 c 2,25,-1
 1201 1490 l 1,26,-1
 1585 1490 l 1,27,-1
 1338 0 l 1,0,-1
EndSplineSet
Position2: "'cpsp' Capital Spacing in Latin lookup 0 subtable" dx=0 dy=0 dh=0 dv=0
EndChar

StartChar: O
Encoding: 79 79 322
Width: 1559
GlyphClass: 2
Flags: W
AnchorPoint: "Anchor-4" 1534 896 basechar 0
AnchorPoint: "Anchor-1" 936 1490 basechar 0
AnchorPoint: "Anchor-0" 690 0 basechar 0
LayerCount: 2
Fore
SplineSet
704 -22 m 0,0,1
 523 -22 523 -22 384.5 50.5 c 128,-1,2
 246 123 246 123 168.5 261 c 128,-1,3
 91 399 91 399 91 595 c 0,4,5
 91 778 91 778 149 944 c 128,-1,6
 207 1110 207 1110 316.5 1237.5 c 128,-1,7
 426 1365 426 1365 579 1438.5 c 128,-1,8
 732 1512 732 1512 921 1512 c 0,9,10
 1102 1512 1102 1512 1240 1440 c 128,-1,11
 1378 1368 1378 1368 1456 1230.5 c 128,-1,12
 1534 1093 1534 1093 1534 896 c 0,13,14
 1534 710 1534 710 1475 544.5 c 128,-1,15
 1416 379 1416 379 1306.5 251.5 c 128,-1,16
 1197 124 1197 124 1044.5 51 c 128,-1,17
 892 -22 892 -22 704 -22 c 0,0,1
720 290 m 0,18,19
 835 290 835 290 920.5 344.5 c 128,-1,20
 1006 399 1006 399 1063 488 c 128,-1,21
 1120 577 1120 577 1148.5 684 c 128,-1,22
 1177 791 1177 791 1177 896 c 0,23,24
 1177 996 1177 996 1145 1063.5 c 128,-1,25
 1113 1131 1113 1131 1052.5 1165.5 c 128,-1,26
 992 1200 992 1200 906 1200 c 0,27,28
 792 1200 792 1200 706 1146 c 128,-1,29
 620 1092 620 1092 562.5 1003 c 128,-1,30
 505 914 505 914 477 807.5 c 128,-1,31
 449 701 449 701 449 596 c 0,32,33
 449 497 449 497 480.5 428.5 c 128,-1,34
 512 360 512 360 572.5 325 c 128,-1,35
 633 290 633 290 720 290 c 0,18,19
EndSplineSet
Substitution2: "'ss06' Style Set 6 in Latin lookup 52 subtable" O.squared
Substitution2: "'ss05' Style Set 5 in Latin lookup 51 subtable" uni24C4
Substitution2: "Single Substitution lookup 44 subtable" ordmasculine
Substitution2: "'aalt' Access All Alternates in Latin lookup 0 subtable" ordmasculine
Position2: "'cpsp' Capital Spacing in Latin lookup 0 subtable" dx=0 dy=0 dh=0 dv=0
EndChar

StartChar: Ohorn
Encoding: 416 416 326
Width: 1571
GlyphClass: 2
Flags: W
AnchorPoint: "Anchor-4" 1534 896 basechar 0
AnchorPoint: "Anchor-1" 936 1490 basechar 0
AnchorPoint: "Anchor-0" 690 0 basechar 0
LayerCount: 2
Fore
SplineSet
910 1300 m 1,0,-1
 946 1512 l 1,1,2
 984 1512 984 1512 1013.5 1510 c 128,-1,3
 1043 1508 1043 1508 1072 1504.5 c 128,-1,4
 1101 1501 1101 1501 1135 1498 c 128,-1,5
 1169 1495 1169 1495 1213.5 1492.5 c 128,-1,6
 1258 1490 1258 1490 1319 1490 c 0,7,8
 1347 1490 1347 1490 1352 1519 c 2,9,-1
 1383 1714 l 1,10,-1
 1689 1714 l 1,11,-1
 1652 1489 l 2,12,13
 1634 1379 1634 1379 1559 1331 c 128,-1,14
 1484 1283 1484 1283 1381 1283 c 0,15,16
 1327 1283 1327 1283 1275 1286 c 128,-1,17
 1223 1289 1223 1289 1167.5 1292.5 c 128,-1,18
 1112 1296 1112 1296 1049 1298 c 128,-1,19
 986 1300 986 1300 910 1300 c 1,0,-1
704 -22 m 0,20,21
 523 -22 523 -22 384.5 50.5 c 128,-1,22
 246 123 246 123 168.5 261 c 128,-1,23
 91 399 91 399 91 595 c 0,24,25
 91 778 91 778 149 944 c 128,-1,26
 207 1110 207 1110 316.5 1237.5 c 128,-1,27
 426 1365 426 1365 579 1438.5 c 128,-1,28
 732 1512 732 1512 921 1512 c 0,29,30
 1102 1512 1102 1512 1240 1440 c 128,-1,31
 1378 1368 1378 1368 1456 1230.5 c 128,-1,32
 1534 1093 1534 1093 1534 896 c 0,33,34
 1534 710 1534 710 1475 544.5 c 128,-1,35
 1416 379 1416 379 1306.5 251.5 c 128,-1,36
 1197 124 1197 124 1044.5 51 c 128,-1,37
 892 -22 892 -22 704 -22 c 0,20,21
720 290 m 0,38,39
 835 290 835 290 920.5 344.5 c 128,-1,40
 1006 399 1006 399 1063 488 c 128,-1,41
 1120 577 1120 577 1148.5 684 c 128,-1,42
 1177 791 1177 791 1177 896 c 0,43,44
 1177 996 1177 996 1145 1063.5 c 128,-1,45
 1113 1131 1113 1131 1052.5 1165.5 c 128,-1,46
 992 1200 992 1200 906 1200 c 0,47,48
 792 1200 792 1200 706 1146 c 128,-1,49
 620 1092 620 1092 562.5 1003 c 128,-1,50
 505 914 505 914 477 807.5 c 128,-1,51
 449 701 449 701 449 596 c 0,52,53
 449 497 449 497 480.5 428.5 c 128,-1,54
 512 360 512 360 572.5 325 c 128,-1,55
 633 290 633 290 720 290 c 0,38,39
EndSplineSet
Position2: "'cpsp' Capital Spacing in Latin lookup 0 subtable" dx=0 dy=0 dh=0 dv=0
EndChar

StartChar: uni03F4
Encoding: 1012 1012 368
Width: 1559
GlyphClass: 2
Flags: W
AnchorPoint: "Anchor-4" 1534 896 basechar 0
AnchorPoint: "Anchor-1" 936 1490 basechar 0
AnchorPoint: "Anchor-0" 690 0 basechar 0
LayerCount: 2
Fore
SplineSet
1316 853 m 1,0,-1
 1284 637 l 1,1,-1
 344 637 l 1,2,-1
 376 853 l 1,3,-1
 1316 853 l 1,0,-1
704 -22 m 0,4,5
 523 -22 523 -22 384.5 50.5 c 128,-1,6
 246 123 246 123 168.5 261 c 128,-1,7
 91 399 91 399 91 595 c 0,8,9
 91 778 91 778 149 944 c 128,-1,10
 207 1110 207 1110 316.5 1237.5 c 128,-1,11
 426 1365 426 1365 579 1438.5 c 128,-1,12
 732 1512 732 1512 921 1512 c 0,13,14
 1102 1512 1102 1512 1240 1440 c 128,-1,15
 1378 1368 1378 1368 1456 1230.5 c 128,-1,16
 1534 1093 1534 1093 1534 896 c 0,17,18
 1534 710 1534 710 1475 544.5 c 128,-1,19
 1416 379 1416 379 1306.5 251.5 c 128,-1,20
 1197 124 1197 124 1044.5 51 c 128,-1,21
 892 -22 892 -22 704 -22 c 0,4,5
720 290 m 0,22,23
 835 290 835 290 920.5 344.5 c 128,-1,24
 1006 399 1006 399 1063 488 c 128,-1,25
 1120 577 1120 577 1148.5 684 c 128,-1,26
 1177 791 1177 791 1177 896 c 0,27,28
 1177 996 1177 996 1145 1063.5 c 128,-1,29
 1113 1131 1113 1131 1052.5 1165.5 c 128,-1,30
 992 1200 992 1200 906 1200 c 0,31,32
 792 1200 792 1200 706 1146 c 128,-1,33
 620 1092 620 1092 562.5 1003 c 128,-1,34
 505 914 505 914 477 807.5 c 128,-1,35
 449 701 449 701 449 596 c 0,36,37
 449 497 449 497 480.5 428.5 c 128,-1,38
 512 360 512 360 572.5 325 c 128,-1,39
 633 290 633 290 720 290 c 0,22,23
EndSplineSet
Position2: "'cpsp' Capital Spacing in Latin lookup 0 subtable" dx=0 dy=0 dh=0 dv=0
EndChar

StartChar: OE
Encoding: 338 338 375
Width: 2120
GlyphClass: 2
Flags: W
AnchorPoint: "Anchor-4" 1944 0 basechar 0
AnchorPoint: "Anchor-3" 1410 0 basechar 0
AnchorPoint: "Anchor-1" 1657 1490 basechar 0
AnchorPoint: "Anchor-0" 1410 0 basechar 0
LayerCount: 2
Fore
SplineSet
691 0 m 2,0,1
 479 0 479 0 333 88 c 128,-1,2
 187 176 187 176 124.5 342 c 128,-1,3
 62 508 62 508 100 744 c 0,4,5
 140 982 140 982 258 1148.5 c 128,-1,6
 376 1315 376 1315 551.5 1402.5 c 128,-1,7
 727 1490 727 1490 937 1490 c 2,8,-1
 1290 1490 l 1,9,-1
 1242 1197 l 1,10,-1
 900 1197 l 2,11,12
 783 1197 783 1197 693 1149.5 c 128,-1,13
 603 1102 603 1102 543.5 1001.5 c 128,-1,14
 484 901 484 901 457 744 c 0,15,16
 431 588 431 588 458 488.5 c 128,-1,17
 485 389 485 389 558.5 341 c 128,-1,18
 632 293 632 293 749 293 c 2,19,-1
 1090 293 l 1,20,-1
 1040 0 l 1,21,-1
 691 0 l 2,0,1
872 0 m 1,22,-1
 1119 1490 l 1,23,-1
 2191 1490 l 1,24,-1
 2142 1194 l 1,25,-1
 1426 1194 l 1,26,-1
 1377 896 l 1,27,-1
 2037 896 l 1,28,-1
 1989 606 l 1,29,-1
 1329 606 l 1,30,-1
 1278 298 l 1,31,-1
 1993 298 l 1,32,-1
 1944 0 l 1,33,-1
 872 0 l 1,22,-1
EndSplineSet
Substitution2: "'c2sc' Capitals to Small Capitals in Latin lookup 67 subtable" oe.sc
Substitution2: "'aalt' Access All Alternates in Latin lookup 0 subtable" oe.sc
Position2: "'cpsp' Capital Spacing in Latin lookup 0 subtable" dx=0 dy=0 dh=0 dv=0
EndChar

StartChar: P
Encoding: 80 80 376
Width: 1321
GlyphClass: 2
Flags: W
AnchorPoint: "Anchor-1" 808 1490 basechar 0
LayerCount: 2
Fore
SplineSet
16 0 m 1,0,-1
 263 1490 l 1,1,-1
 872 1490 l 2,2,3
 1043 1490 1043 1490 1156.5 1427 c 128,-1,4
 1270 1364 1270 1364 1318.5 1249 c 128,-1,5
 1367 1134 1367 1134 1342 980 c 256,6,7
 1317 826 1317 826 1229.5 712.5 c 128,-1,8
 1142 599 1142 599 1006 536.5 c 128,-1,9
 870 474 870 474 698 474 c 2,10,-1
 308 474 l 1,11,-1
 355 763 l 1,12,-1
 702 763 l 2,13,14
 781 763 781 763 839.5 790 c 128,-1,15
 898 817 898 817 935 866.5 c 128,-1,16
 972 916 972 916 982 982 c 0,17,18
 994 1049 994 1049 973 1097 c 128,-1,19
 952 1145 952 1145 902.5 1172 c 128,-1,20
 853 1199 853 1199 775 1199 c 2,21,-1
 571 1199 l 1,22,-1
 372 0 l 1,23,-1
 16 0 l 1,0,-1
EndSplineSet
Substitution2: "'ss06' Style Set 6 in Latin lookup 52 subtable" P.squared
Substitution2: "'ss05' Style Set 5 in Latin lookup 51 subtable" uni24C5
Position2: "'cpsp' Capital Spacing in Latin lookup 0 subtable" dx=0 dy=0 dh=0 dv=0
EndChar

StartChar: uni048E
Encoding: 1166 1166 379
Width: 1348
GlyphClass: 2
Flags: W
AnchorPoint: "Anchor-1" 815 1490 basechar 0
LayerCount: 2
Fore
SplineSet
803 984 m 1,0,-1
 1114 386 l 1,1,-1
 972 302 l 1,2,-1
 660 899 l 1,3,-1
 803 984 l 1,0,-1
24 0 m 1,4,-1
 271 1490 l 1,5,-1
 880 1490 l 2,6,7
 1050 1490 1050 1490 1163.5 1427 c 128,-1,8
 1277 1364 1277 1364 1325.5 1249 c 128,-1,9
 1374 1134 1374 1134 1349 980 c 256,10,11
 1324 826 1324 826 1237 712.5 c 128,-1,12
 1150 599 1150 599 1014 536.5 c 128,-1,13
 878 474 878 474 706 474 c 2,14,-1
 315 474 l 1,15,-1
 363 763 l 1,16,-1
 710 763 l 2,17,18
 789 763 789 763 847.5 790 c 128,-1,19
 906 817 906 817 942.5 866.5 c 128,-1,20
 979 916 979 916 990 982 c 0,21,22
 1002 1049 1002 1049 981 1097 c 128,-1,23
 960 1145 960 1145 910.5 1172 c 128,-1,24
 861 1199 861 1199 782 1199 c 2,25,-1
 579 1199 l 1,26,-1
 380 0 l 1,27,-1
 24 0 l 1,4,-1
EndSplineSet
Position2: "'cpsp' Capital Spacing in Latin lookup 0 subtable" dx=0 dy=0 dh=0 dv=0
EndChar

StartChar: uni01A4
Encoding: 420 420 380
Width: 1753
GlyphClass: 2
Flags: W
AnchorPoint: "Anchor-1" 1240 1490 basechar 0
LayerCount: 2
Fore
SplineSet
120 1036 m 1,0,-1
 136 1140 l 2,1,2
 164 1310 164 1310 274 1400 c 128,-1,3
 384 1490 384 1490 580 1490 c 2,4,-1
 697 1490 l 1,5,-1
 648 1199 l 1,6,-1
 582 1199 l 2,7,8
 528 1199 528 1199 496.5 1175 c 128,-1,9
 465 1151 465 1151 457 1102 c 2,10,-1
 447 1036 l 1,11,-1
 120 1036 l 1,0,-1
448 0 m 1,12,-1
 695 1490 l 1,13,-1
 1304 1490 l 2,14,15
 1475 1490 1475 1490 1588.5 1427 c 128,-1,16
 1702 1364 1702 1364 1750.5 1249 c 128,-1,17
 1799 1134 1799 1134 1774 980 c 256,18,19
 1749 826 1749 826 1661.5 712.5 c 128,-1,20
 1574 599 1574 599 1438 536.5 c 128,-1,21
 1302 474 1302 474 1130 474 c 2,22,-1
 740 474 l 1,23,-1
 787 763 l 1,24,-1
 1134 763 l 2,25,26
 1213 763 1213 763 1271.5 790 c 128,-1,27
 1330 817 1330 817 1367 866.5 c 128,-1,28
 1404 916 1404 916 1414 982 c 0,29,30
 1426 1049 1426 1049 1405 1097 c 128,-1,31
 1384 1145 1384 1145 1334.5 1172 c 128,-1,32
 1285 1199 1285 1199 1207 1199 c 2,33,-1
 1003 1199 l 1,34,-1
 804 0 l 1,35,-1
 448 0 l 1,12,-1
EndSplineSet
Position2: "'cpsp' Capital Spacing in Latin lookup 0 subtable" dx=0 dy=0 dh=0 dv=0
EndChar

StartChar: Q
Encoding: 81 81 383
Width: 1559
GlyphClass: 2
Flags: W
AnchorPoint: "Anchor-4" 1534 896 basechar 0
AnchorPoint: "Anchor-1" 936 1490 basechar 0
AnchorPoint: "Anchor-0" 690 0 basechar 0
LayerCount: 2
Fore
SplineSet
650 531 m 1,0,-1
 912 531 l 1,1,-1
 1013 371 l 1,2,-1
 1139 192 l 1,3,-1
 1340 -117 l 1,4,-1
 1048 -117 l 1,5,-1
 912 92 l 1,6,-1
 826 236 l 1,7,-1
 650 531 l 1,0,-1
704 -22 m 0,8,9
 523 -22 523 -22 384.5 50.5 c 128,-1,10
 246 123 246 123 168.5 261 c 128,-1,11
 91 399 91 399 91 595 c 0,12,13
 91 778 91 778 149 944 c 128,-1,14
 207 1110 207 1110 316.5 1237.5 c 128,-1,15
 426 1365 426 1365 579 1438.5 c 128,-1,16
 732 1512 732 1512 921 1512 c 0,17,18
 1102 1512 1102 1512 1240 1440 c 128,-1,19
 1378 1368 1378 1368 1456 1230.5 c 128,-1,20
 1534 1093 1534 1093 1534 896 c 0,21,22
 1534 710 1534 710 1475 544.5 c 128,-1,23
 1416 379 1416 379 1306.5 251.5 c 128,-1,24
 1197 124 1197 124 1044.5 51 c 128,-1,25
 892 -22 892 -22 704 -22 c 0,8,9
720 290 m 0,26,27
 835 290 835 290 920.5 344.5 c 128,-1,28
 1006 399 1006 399 1063 488 c 128,-1,29
 1120 577 1120 577 1148.5 684 c 128,-1,30
 1177 791 1177 791 1177 896 c 0,31,32
 1177 996 1177 996 1145 1063.5 c 128,-1,33
 1113 1131 1113 1131 1052.5 1165.5 c 128,-1,34
 992 1200 992 1200 906 1200 c 0,35,36
 792 1200 792 1200 706 1146 c 128,-1,37
 620 1092 620 1092 562.5 1003 c 128,-1,38
 505 914 505 914 477 807.5 c 128,-1,39
 449 701 449 701 449 596 c 0,40,41
 449 497 449 497 480.5 428.5 c 128,-1,42
 512 360 512 360 572.5 325 c 128,-1,43
 633 290 633 290 720 290 c 0,26,27
EndSplineSet
Substitution2: "'ss06' Style Set 6 in Latin lookup 52 subtable" Q.squared
Substitution2: "'ss05' Style Set 5 in Latin lookup 51 subtable" uni24C6
Position2: "'cpsp' Capital Spacing in Latin lookup 0 subtable" dx=0 dy=0 dh=0 dv=0
EndChar

StartChar: Q_rthook
Encoding: 586 586 384
Width: 1569
GlyphClass: 2
Flags: W
LayerCount: 2
Fore
SplineSet
1619 1490 m 1,0,-1
 1372 0 l 1,1,-1
 1025 0 l 1,2,-1
 1060 214 l 1,3,-1
 1054 214 l 1,4,5
 978 108 978 108 862 43.5 c 128,-1,6
 746 -21 746 -21 601 -21 c 0,7,8
 464 -21 464 -21 359 36.5 c 128,-1,9
 254 94 254 94 187 197.5 c 128,-1,10
 120 301 120 301 97 440 c 128,-1,11
 74 579 74 579 101 743 c 0,12,13
 129 908 129 908 198.5 1048 c 128,-1,14
 268 1188 268 1188 369.5 1292 c 128,-1,15
 471 1396 471 1396 595 1453 c 128,-1,16
 719 1510 719 1510 854 1510 c 0,17,18
 999 1510 999 1510 1093.5 1446 c 128,-1,19
 1188 1382 1188 1382 1231 1279 c 1,20,-1
 1237 1279 l 1,21,-1
 1272 1490 l 1,22,-1
 1619 1490 l 1,0,-1
728 288 m 0,23,24
 841 288 841 288 926 343.5 c 128,-1,25
 1011 399 1011 399 1067.5 501 c 128,-1,26
 1124 603 1124 603 1148 745 c 256,27,28
 1172 887 1172 887 1149.5 990 c 128,-1,29
 1127 1093 1127 1093 1059 1147.5 c 128,-1,30
 991 1202 991 1202 880 1202 c 0,31,32
 773 1202 773 1202 687 1147.5 c 128,-1,33
 601 1093 601 1093 543 991 c 128,-1,34
 485 889 485 889 461 745 c 0,35,36
 438 601 438 601 461.5 498.5 c 128,-1,37
 485 396 485 396 553 342 c 128,-1,38
 621 288 621 288 728 288 c 0,23,24
1337 -427 m 0,39,40
 1144 -427 1144 -427 1063.5 -341 c 128,-1,41
 983 -255 983 -255 1012 -83 c 2,42,-1
 1025 0 l 1,43,-1
 1372 0 l 1,44,-1
 1360 -74 l 2,45,46
 1352 -120 1352 -120 1373 -141 c 128,-1,47
 1394 -162 1394 -162 1449 -162 c 0,48,49
 1481 -162 1481 -162 1511 -161.5 c 128,-1,50
 1541 -161 1541 -161 1564 -159 c 1,51,-1
 1521 -417 l 1,52,53
 1487 -422 1487 -422 1439.5 -424.5 c 128,-1,54
 1392 -427 1392 -427 1337 -427 c 0,39,40
EndSplineSet
Position2: "'cpsp' Capital Spacing in Latin lookup 0 subtable" dx=0 dy=0 dh=0 dv=0
EndChar

StartChar: R
Encoding: 82 82 385
Width: 1352
GlyphClass: 2
Flags: W
AnchorPoint: "Anchor-1" 824 1490 basechar 0
AnchorPoint: "Anchor-0" 596 0 basechar 0
LayerCount: 2
Fore
SplineSet
16 0 m 1,0,-1
 263 1490 l 1,1,-1
 875 1490 l 2,2,3
 1045 1490 1045 1490 1158.5 1429 c 128,-1,4
 1272 1368 1272 1368 1321.5 1256.5 c 128,-1,5
 1371 1145 1371 1145 1345 991 c 0,6,7
 1321 839 1321 839 1233 730 c 128,-1,8
 1145 621 1145 621 1008 562.5 c 128,-1,9
 871 504 871 504 697 504 c 2,10,-1
 315 504 l 1,11,-1
 361 785 l 1,12,-1
 709 785 l 2,13,14
 787 785 787 785 845 809 c 128,-1,15
 903 833 903 833 939.5 879.5 c 128,-1,16
 976 926 976 926 987 992 c 0,17,18
 1004 1092 1004 1092 948.5 1146 c 128,-1,19
 893 1200 893 1200 777 1200 c 2,20,-1
 572 1200 l 1,21,-1
 372 0 l 1,22,-1
 16 0 l 1,0,-1
849 0 m 1,23,-1
 613 679 l 1,24,-1
 982 679 l 1,25,-1
 1226 0 l 1,26,-1
 849 0 l 1,23,-1
EndSplineSet
Substitution2: "'c2sc' Capitals to Small Capitals in Latin lookup 67 subtable" r.sc
Substitution2: "'ss06' Style Set 6 in Latin lookup 52 subtable" R.squared
Substitution2: "'ss05' Style Set 5 in Latin lookup 51 subtable" uni24C7
Substitution2: "'aalt' Access All Alternates in Latin lookup 0 subtable" r.sc
Position2: "'cpsp' Capital Spacing in Latin lookup 0 subtable" dx=0 dy=0 dh=0 dv=0
EndChar

StartChar: uni211F
Encoding: 8479 8479 395
Width: 1346
GlyphClass: 2
Flags: W
AnchorPoint: "Anchor-1" 830 1490 basechar 0
AnchorPoint: "Anchor-0" 602 0 basechar 0
LayerCount: 2
Fore
SplineSet
1130 1702 m 1,0,-1
 374 -370 l 1,1,-1
 259 -355 l 1,2,-1
 986 1623 l 1,3,-1
 676 1694 l 1,4,-1
 725 1802 l 1,5,-1
 1130 1702 l 1,0,-1
22 0 m 1,6,-1
 269 1490 l 1,7,-1
 881 1490 l 2,8,9
 1051 1490 1051 1490 1164.5 1429 c 128,-1,10
 1278 1368 1278 1368 1327.5 1256.5 c 128,-1,11
 1377 1145 1377 1145 1351 991 c 0,12,13
 1327 839 1327 839 1239.5 730 c 128,-1,14
 1152 621 1152 621 1014.5 562.5 c 128,-1,15
 877 504 877 504 703 504 c 2,16,-1
 321 504 l 1,17,-1
 367 785 l 1,18,-1
 715 785 l 2,19,20
 793 785 793 785 851 809 c 128,-1,21
 909 833 909 833 945.5 879.5 c 128,-1,22
 982 926 982 926 993 992 c 0,23,24
 1010 1092 1010 1092 954.5 1146 c 128,-1,25
 899 1200 899 1200 783 1200 c 2,26,-1
 578 1200 l 1,27,-1
 378 0 l 1,28,-1
 22 0 l 1,6,-1
855 0 m 1,29,-1
 619 679 l 1,30,-1
 988 679 l 1,31,-1
 1232 0 l 1,32,-1
 855 0 l 1,29,-1
EndSplineSet
EndChar

StartChar: Rx
Encoding: 8478 8478 396
Width: 1597
Flags: W
LayerCount: 2
Fore
SplineSet
263 1490 m 1,0,-1
 859 1490 l 2,1,2
 1041 1490 1041 1490 1155.5 1435 c 128,-1,3
 1270 1380 1270 1380 1316 1276 c 128,-1,4
 1362 1172 1362 1172 1337 1024 c 0,5,6
 1317 905 1317 905 1259.5 816.5 c 128,-1,7
 1202 728 1202 728 1119.5 669.5 c 128,-1,8
 1037 611 1037 611 940 577 c 1,9,-1
 864 546 l 1,10,-1
 327 546 l 1,11,-1
 372 831 l 1,12,-1
 749 831 l 2,13,14
 812 830 812 830 861.5 850 c 128,-1,15
 911 870 911 870 944 911 c 128,-1,16
 977 952 977 952 987 1015 c 0,17,18
 996 1063 996 1063 987 1098 c 128,-1,19
 978 1133 978 1133 955 1156 c 128,-1,20
 932 1179 932 1179 895.5 1191 c 128,-1,21
 859 1203 859 1203 811 1203 c 2,22,-1
 567 1204 l 1,23,-1
 369 0 l 1,24,-1
 16 0 l 1,25,-1
 263 1490 l 1,0,-1
1126 0 m 1,26,-1
 750 679 l 1,27,-1
 1033 679 l 1,28,-1
 1416 0 l 1,29,-1
 1126 0 l 1,26,-1
882 0 m 1,30,-1
 657 0 l 1,31,-1
 1265 679 l 1,32,-1
 1481 679 l 1,33,-1
 882 0 l 1,30,-1
EndSplineSet
EndChar

StartChar: uni024C
Encoding: 588 588 397
Width: 1375
GlyphClass: 2
Flags: W
AnchorPoint: "Anchor-1" 860 1490 basechar 0
AnchorPoint: "Anchor-0" 632 0 basechar 0
LayerCount: 2
Fore
SplineSet
354 539 m 1,0,-1
 6 539 l 1,1,-1
 48 796 l 1,2,-1
 395 796 l 1,3,-1
 354 539 l 1,0,-1
52 0 m 1,4,-1
 299 1490 l 1,5,-1
 911 1490 l 2,6,7
 1082 1490 1082 1490 1195.5 1429 c 128,-1,8
 1309 1368 1309 1368 1358 1256.5 c 128,-1,9
 1407 1145 1407 1145 1381 991 c 0,10,11
 1357 839 1357 839 1269.5 730 c 128,-1,12
 1182 621 1182 621 1044.5 562.5 c 128,-1,13
 907 504 907 504 733 504 c 2,14,-1
 351 504 l 1,15,-1
 397 785 l 1,16,-1
 745 785 l 2,17,18
 823 785 823 785 881 809 c 128,-1,19
 939 833 939 833 975.5 879.5 c 128,-1,20
 1012 926 1012 926 1023 992 c 0,21,22
 1040 1092 1040 1092 984.5 1146 c 128,-1,23
 929 1200 929 1200 813 1200 c 2,24,-1
 608 1200 l 1,25,-1
 408 0 l 1,26,-1
 52 0 l 1,4,-1
885 0 m 1,27,-1
 649 679 l 1,28,-1
 1018 679 l 1,29,-1
 1262 0 l 1,30,-1
 885 0 l 1,27,-1
EndSplineSet
Position2: "'cpsp' Capital Spacing in Latin lookup 0 subtable" dx=0 dy=0 dh=0 dv=0
EndChar

StartChar: S
Encoding: 83 83 398
Width: 1360
GlyphClass: 2
Flags: W
AnchorPoint: "Anchor-3" 592 0 basechar 0
AnchorPoint: "Anchor-1" 837 1490 basechar 0
AnchorPoint: "Anchor-0" 595 0 basechar 0
LayerCount: 2
Fore
SplineSet
616 -22 m 0,0,1
 422 -22 422 -22 288.5 37 c 128,-1,2
 155 96 155 96 95.5 210.5 c 128,-1,3
 36 325 36 325 62 492 c 1,4,-1
 403 492 l 1,5,6
 394 421 394 421 420 371 c 128,-1,7
 446 321 446 321 503 295 c 128,-1,8
 560 269 560 269 643 269 c 0,9,10
 719 269 719 269 777 289.5 c 128,-1,11
 835 310 835 310 871.5 346.5 c 128,-1,12
 908 383 908 383 916 432 c 0,13,14
 923 474 923 474 902.5 505 c 128,-1,15
 882 536 882 536 832 559 c 128,-1,16
 782 582 782 582 700 601 c 2,17,-1
 550 635 l 2,18,19
 353 679 353 679 257 784.5 c 128,-1,20
 161 890 161 890 190 1061 c 0,21,22
 211 1196 211 1196 298 1298 c 128,-1,23
 385 1400 385 1400 521.5 1456 c 128,-1,24
 658 1512 658 1512 827 1512 c 0,25,26
 1003 1512 1003 1512 1126.5 1454 c 128,-1,27
 1250 1396 1250 1396 1308.5 1289 c 128,-1,28
 1367 1182 1367 1182 1345 1036 c 1,29,-1
 1010 1036 l 1,30,31
 1016 1124 1016 1124 962.5 1173 c 128,-1,32
 909 1222 909 1222 801 1222 c 0,33,34
 732 1222 732 1222 679 1202.5 c 128,-1,35
 626 1183 626 1183 593.5 1148.5 c 128,-1,36
 561 1114 561 1114 553 1069 c 0,37,38
 546 1026 546 1026 566 996 c 128,-1,39
 586 966 586 966 632.5 944.5 c 128,-1,40
 679 923 679 923 752 906 c 2,41,-1
 877 878 l 2,42,43
 989 854 989 854 1070 814.5 c 128,-1,44
 1151 775 1151 775 1201 720 c 128,-1,45
 1251 665 1251 665 1268.5 593.5 c 128,-1,46
 1286 522 1286 522 1271 432 c 0,47,48
 1249 289 1249 289 1164.5 187.5 c 128,-1,49
 1080 86 1080 86 941.5 32 c 128,-1,50
 803 -22 803 -22 616 -22 c 0,0,1
EndSplineSet
Substitution2: "'ss06' Style Set 6 in Latin lookup 52 subtable" S.squared
Substitution2: "'ss05' Style Set 5 in Latin lookup 51 subtable" uni24C8
Position2: "'cpsp' Capital Spacing in Latin lookup 0 subtable" dx=0 dy=0 dh=0 dv=0
EndChar

StartChar: uni01A7
Encoding: 423 423 410
Width: 1361
GlyphClass: 2
Flags: W
AnchorPoint: "Anchor-3" 588 0 basechar 0
AnchorPoint: "Anchor-1" 838 1490 basechar 0
AnchorPoint: "Anchor-0" 586 0 basechar 0
LayerCount: 2
Fore
SplineSet
594 -22 m 0,0,1
 405 -22 405 -22 275.5 34 c 128,-1,2
 146 90 146 90 87.5 194 c 128,-1,3
 29 298 29 298 54 442 c 0,4,5
 68 530 68 530 108.5 600 c 128,-1,6
 149 670 149 670 216 724 c 128,-1,7
 283 778 283 778 376.5 816.5 c 128,-1,8
 470 855 470 855 589 879 c 2,9,-1
 724 907 l 2,10,11
 803 924 803 924 857.5 945 c 128,-1,12
 912 966 912 966 943.5 996.5 c 128,-1,13
 975 1027 975 1027 982 1070 c 0,14,15
 989 1115 989 1115 970 1149.5 c 128,-1,16
 951 1184 951 1184 906.5 1203 c 128,-1,17
 862 1222 862 1222 793 1222 c 0,18,19
 722 1222 722 1222 664 1199 c 128,-1,20
 606 1176 606 1176 568 1135 c 128,-1,21
 530 1094 530 1094 515 1036 c 1,22,-1
 178 1036 l 1,23,24
 207 1181 207 1181 291 1288.5 c 128,-1,25
 375 1396 375 1396 509 1454 c 128,-1,26
 643 1512 643 1512 818 1512 c 0,27,28
 990 1512 990 1512 1116 1454 c 128,-1,29
 1242 1396 1242 1396 1303.5 1292.5 c 128,-1,30
 1365 1189 1365 1189 1341 1049 c 0,31,32
 1313 884 1313 884 1185 781 c 128,-1,33
 1057 678 1057 678 845 633 c 2,34,-1
 684 599 l 2,35,36
 596 581 596 581 536.5 558 c 128,-1,37
 477 535 477 535 446 504 c 128,-1,38
 415 473 415 473 408 430 c 0,39,40
 396 359 396 359 450.5 314 c 128,-1,41
 505 269 505 269 617 269 c 0,42,43
 700 269 700 269 768 295 c 128,-1,44
 836 321 836 321 881.5 371 c 128,-1,45
 927 421 927 421 942 492 c 1,46,-1
 1282 492 l 1,47,48
 1253 325 1253 325 1163 210 c 128,-1,49
 1073 95 1073 95 929.5 36.5 c 128,-1,50
 786 -22 786 -22 594 -22 c 0,0,1
EndSplineSet
Position2: "'cpsp' Capital Spacing in Latin lookup 0 subtable" dx=0 dy=0 dh=0 dv=0
EndChar

StartChar: uni1E9E
Encoding: 7838 7838 411
Width: 1477
Flags: W
LayerCount: 2
Fore
SplineSet
16 0 m 1,0,-1
 179 979 l 2,1,2
 207 1145 207 1145 294 1264 c 128,-1,3
 381 1383 381 1383 517 1447 c 128,-1,4
 653 1511 653 1511 829 1511 c 0,5,6
 944 1511 944 1511 1058 1477 c 128,-1,7
 1172 1443 1172 1443 1274 1383.5 c 128,-1,8
 1376 1324 1376 1324 1458 1243 c 1,9,-1
 1064 868 l 1,10,11
 1180 850 1180 850 1259.5 789.5 c 128,-1,12
 1339 729 1339 729 1373.5 637.5 c 128,-1,13
 1408 546 1408 546 1390 436 c 0,14,15
 1366 299 1366 299 1280.5 196.5 c 128,-1,16
 1195 94 1195 94 1064 37 c 128,-1,17
 933 -20 933 -20 775 -20 c 0,18,19
 689 -20 689 -20 599 -2.5 c 128,-1,20
 509 15 509 15 444 43 c 1,21,-1
 581 299 l 1,22,23
 628 279 628 279 683.5 265.5 c 128,-1,24
 739 252 739 252 792 253 c 0,25,26
 899 252 899 252 968.5 300.5 c 128,-1,27
 1038 349 1038 349 1053 436 c 0,28,29
 1061 486 1061 486 1052.5 524 c 128,-1,30
 1044 562 1044 562 1021.5 588.5 c 128,-1,31
 999 615 999 615 966.5 632 c 128,-1,32
 934 649 934 649 895 656.5 c 128,-1,33
 856 664 856 664 815 664 c 2,34,-1
 680 664 l 1,35,-1
 713 862 l 1,36,-1
 1024 1156 l 1,37,38
 989 1190 989 1190 926 1212.5 c 128,-1,39
 863 1235 863 1235 786 1235 c 256,40,41
 709 1235 709 1235 657 1203.5 c 128,-1,42
 605 1172 605 1172 574.5 1113 c 128,-1,43
 544 1054 544 1054 530 973 c 2,44,-1
 368 0 l 1,45,-1
 16 0 l 1,0,-1
EndSplineSet
Position2: "'cpsp' Capital Spacing in Latin lookup 0 subtable" dx=0 dy=0 dh=0 dv=0
EndChar

StartChar: T
Encoding: 84 84 412
Width: 1355
GlyphClass: 2
Flags: W
AnchorPoint: "Anchor-3" 583 0 basechar 0
AnchorPoint: "Anchor-1" 835 1490 basechar 0
AnchorPoint: "Anchor-0" 587 0 basechar 0
LayerCount: 2
Fore
SplineSet
162 1194 m 1,0,-1
 211 1490 l 1,1,-1
 1457 1490 l 1,2,-1
 1408 1194 l 1,3,-1
 963 1194 l 1,4,-1
 766 0 l 1,5,-1
 410 0 l 1,6,-1
 607 1194 l 1,7,-1
 162 1194 l 1,0,-1
EndSplineSet
Substitution2: "'c2sc' Capitals to Small Capitals in Latin lookup 67 subtable" t.sc
Substitution2: "'ss06' Style Set 6 in Latin lookup 52 subtable" T.squared
Substitution2: "'ss05' Style Set 5 in Latin lookup 51 subtable" uni24C9
Substitution2: "'aalt' Access All Alternates in Latin lookup 0 subtable" t.sc
Position2: "'cpsp' Capital Spacing in Latin lookup 0 subtable" dx=0 dy=0 dh=0 dv=0
EndChar

StartChar: uni01AC
Encoding: 428 428 420
Width: 1514
GlyphClass: 2
Flags: W
LayerCount: 2
Fore
SplineSet
194 1036 m 1,0,-1
 211 1140 l 2,1,2
 239 1310 239 1310 349 1400 c 128,-1,3
 459 1490 459 1490 654 1490 c 2,4,-1
 771 1490 l 1,5,-1
 722 1199 l 1,6,-1
 656 1199 l 2,7,8
 602 1199 602 1199 571 1175 c 128,-1,9
 540 1151 540 1151 532 1102 c 2,10,-1
 521 1036 l 1,11,-1
 194 1036 l 1,0,-1
722 1194 m 1,12,-1
 771 1490 l 1,13,-1
 1616 1490 l 1,14,-1
 1567 1194 l 1,15,-1
 1115 1194 l 1,16,-1
 918 0 l 1,17,-1
 562 0 l 1,18,-1
 759 1194 l 1,19,-1
 722 1194 l 1,12,-1
EndSplineSet
Position2: "'cpsp' Capital Spacing in Latin lookup 0 subtable" dx=0 dy=0 dh=0 dv=0
EndChar

StartChar: uni01AC.base
Encoding: 60940 60940 421
Width: 1371
GlyphClass: 2
Flags: W
LayerCount: 2
Fore
SplineSet
579 1194 m 1,0,-1
 628 1490 l 1,1,-1
 1473 1490 l 1,2,-1
 1424 1194 l 1,3,-1
 972 1194 l 1,4,-1
 775 0 l 1,5,-1
 419 0 l 1,6,-1
 616 1194 l 1,7,-1
 579 1194 l 1,0,-1
EndSplineSet
EndChar

StartChar: Trthook
Encoding: 430 430 422
Width: 1355
GlyphClass: 2
Flags: W
AnchorPoint: "Anchor-3" 583 0 basechar 0
AnchorPoint: "Anchor-1" 835 1490 basechar 0
AnchorPoint: "Anchor-0" 587 0 basechar 0
LayerCount: 2
Fore
SplineSet
765 0 m 1,0,-1
 756 -55 l 2,1,2
 746 -114 746 -114 791.5 -133.5 c 128,-1,3
 837 -153 837 -153 894 -153 c 2,4,-1
 959 -153 l 1,5,-1
 914 -418 l 1,6,-1
 758 -418 l 2,7,8
 682 -418 682 -418 611.5 -404.5 c 128,-1,9
 541 -391 541 -391 488.5 -353 c 128,-1,10
 436 -315 436 -315 413 -242.5 c 128,-1,11
 390 -170 390 -170 410 -54 c 2,12,-1
 419 0 l 1,13,-1
 765 0 l 1,0,-1
162 1194 m 1,14,-1
 211 1490 l 1,15,-1
 1457 1490 l 1,16,-1
 1408 1194 l 1,17,-1
 963 1194 l 1,18,-1
 766 0 l 1,19,-1
 410 0 l 1,20,-1
 607 1194 l 1,21,-1
 162 1194 l 1,14,-1
EndSplineSet
Position2: "'cpsp' Capital Spacing in Latin lookup 0 subtable" dx=0 dy=0 dh=0 dv=0
EndChar

StartChar: uni023E
Encoding: 574 574 423
Width: 1355
GlyphClass: 2
Flags: W
AnchorPoint: "Anchor-3" 583 0 basechar 0
AnchorPoint: "Anchor-1" 835 1490 basechar 0
AnchorPoint: "Anchor-0" 587 0 basechar 0
LayerCount: 2
Fore
SplineSet
195 -190 m 1,0,-1
 1092 1678 l 1,1,-1
 1290 1678 l 1,2,-1
 391 -190 l 1,3,-1
 195 -190 l 1,0,-1
162 1194 m 1,4,-1
 211 1490 l 1,5,-1
 1457 1490 l 1,6,-1
 1408 1194 l 1,7,-1
 963 1194 l 1,8,-1
 766 0 l 1,9,-1
 410 0 l 1,10,-1
 607 1194 l 1,11,-1
 162 1194 l 1,4,-1
EndSplineSet
Position2: "'cpsp' Capital Spacing in Latin lookup 0 subtable" dx=0 dy=0 dh=0 dv=0
EndChar

StartChar: U
Encoding: 85 85 425
Width: 1467
GlyphClass: 2
Flags: W
AnchorPoint: "Anchor-4" 1357 516 basechar 0
AnchorPoint: "Anchor-1" 890 1490 basechar 0
AnchorPoint: "Anchor-0" 643 0 basechar 0
LayerCount: 2
Fore
SplineSet
657 -22 m 0,0,1
 464 -22 464 -22 330 49 c 128,-1,2
 196 120 196 120 137 246.5 c 128,-1,3
 78 373 78 373 105 538 c 2,4,-1
 262 1490 l 1,5,-1
 614 1490 l 1,6,-1
 458 545 l 2,7,8
 445 466 445 466 467 408 c 128,-1,9
 489 350 489 350 542 318 c 128,-1,10
 595 286 595 286 672 286 c 0,11,12
 759 286 759 286 832 323.5 c 128,-1,13
 905 361 905 361 952.5 425 c 128,-1,14
 1000 489 1000 489 1013 568 c 2,15,-1
 1166 1490 l 1,16,-1
 1518 1490 l 1,17,-1
 1357 516 l 2,18,19
 1330 350 1330 350 1234 229 c 128,-1,20
 1138 108 1138 108 990 43 c 128,-1,21
 842 -22 842 -22 657 -22 c 0,0,1
EndSplineSet
Substitution2: "'ss06' Style Set 6 in Latin lookup 52 subtable" U.squared
Substitution2: "'ss05' Style Set 5 in Latin lookup 51 subtable" uni24CA
Position2: "'cpsp' Capital Spacing in Latin lookup 0 subtable" dx=0 dy=0 dh=0 dv=0
EndChar

StartChar: Uhorn
Encoding: 431 431 426
Width: 1465
GlyphClass: 2
Flags: W
AnchorPoint: "Anchor-4" 1357 516 basechar 0
AnchorPoint: "Anchor-1" 890 1490 basechar 0
AnchorPoint: "Anchor-0" 643 0 basechar 0
LayerCount: 2
Fore
SplineSet
1131 1277 m 1,0,-1
 1167 1490 l 1,1,-1
 1350 1490 l 2,2,3
 1378 1490 1378 1490 1383 1519 c 2,4,-1
 1415 1714 l 1,5,-1
 1720 1714 l 1,6,-1
 1682 1489 l 2,7,8
 1665 1379 1665 1379 1589 1328 c 128,-1,9
 1513 1277 1513 1277 1411 1277 c 2,10,-1
 1131 1277 l 1,0,-1
657 -22 m 0,11,12
 464 -22 464 -22 330 49 c 128,-1,13
 196 120 196 120 137 246.5 c 128,-1,14
 78 373 78 373 105 538 c 2,15,-1
 262 1490 l 1,16,-1
 614 1490 l 1,17,-1
 458 545 l 2,18,19
 445 466 445 466 467 408 c 128,-1,20
 489 350 489 350 542 318 c 128,-1,21
 595 286 595 286 672 286 c 0,22,23
 759 286 759 286 832 323.5 c 128,-1,24
 905 361 905 361 952.5 425 c 128,-1,25
 1000 489 1000 489 1013 568 c 2,26,-1
 1166 1490 l 1,27,-1
 1518 1490 l 1,28,-1
 1357 516 l 2,29,30
 1330 350 1330 350 1234 229 c 128,-1,31
 1138 108 1138 108 990 43 c 128,-1,32
 842 -22 842 -22 657 -22 c 0,11,12
EndSplineSet
Position2: "'cpsp' Capital Spacing in Latin lookup 0 subtable" dx=0 dy=0 dh=0 dv=0
EndChar

StartChar: uni0244
Encoding: 580 580 456
Width: 1547
GlyphClass: 2
Flags: W
AnchorPoint: "Anchor-4" 1404 516 basechar 0
AnchorPoint: "Anchor-1" 937 1490 basechar 0
AnchorPoint: "Anchor-0" 690 0 basechar 0
LayerCount: 2
Fore
SplineSet
1617 841 m 1,0,-1
 1584 645 l 1,1,-1
 -3 645 l 1,2,-1
 29 841 l 1,3,-1
 1617 841 l 1,0,-1
704 -22 m 0,4,5
 511 -22 511 -22 377 49 c 128,-1,6
 243 120 243 120 184 246.5 c 128,-1,7
 125 373 125 373 152 538 c 2,8,-1
 309 1490 l 1,9,-1
 661 1490 l 1,10,-1
 505 545 l 2,11,12
 492 466 492 466 514 408 c 128,-1,13
 536 350 536 350 589.5 318 c 128,-1,14
 643 286 643 286 719 286 c 0,15,16
 806 286 806 286 879 323.5 c 128,-1,17
 952 361 952 361 1000 425 c 128,-1,18
 1048 489 1048 489 1060 568 c 2,19,-1
 1213 1490 l 1,20,-1
 1565 1490 l 1,21,-1
 1404 516 l 2,22,23
 1377 350 1377 350 1281 229 c 128,-1,24
 1185 108 1185 108 1037.5 43 c 128,-1,25
 890 -22 890 -22 704 -22 c 0,4,5
EndSplineSet
Position2: "'cpsp' Capital Spacing in Latin lookup 0 subtable" dx=0 dy=0 dh=0 dv=0
EndChar

StartChar: V
Encoding: 86 86 457
Width: 1533
GlyphClass: 2
Flags: W
AnchorPoint: "Anchor-1" 923 1490 basechar 0
AnchorPoint: "Anchor-0" 676 0 basechar 0
LayerCount: 2
Fore
SplineSet
448 0 m 1,0,-1
 183 1490 l 1,1,-1
 572 1490 l 1,2,-1
 672 837 l 2,3,4
 695 675 695 675 713 500.5 c 128,-1,5
 731 326 731 326 748 133 c 1,6,-1
 657 133 l 1,7,8
 737 325 737 325 811 500.5 c 128,-1,9
 885 676 885 676 959 837 c 2,10,-1
 1267 1490 l 1,11,-1
 1663 1490 l 1,12,-1
 918 0 l 1,13,-1
 448 0 l 1,0,-1
EndSplineSet
Substitution2: "'ss06' Style Set 6 in Latin lookup 52 subtable" V.squared
Substitution2: "'ss05' Style Set 5 in Latin lookup 51 subtable" uni24CB
Position2: "'cpsp' Capital Spacing in Latin lookup 0 subtable" dx=0 dy=0 dh=0 dv=0
EndChar

StartChar: W
Encoding: 87 87 460
Width: 2125
GlyphClass: 2
Flags: W
AnchorPoint: "Anchor-1" 1219 1490 basechar 0
AnchorPoint: "Anchor-0" 972 0 basechar 0
LayerCount: 2
Fore
SplineSet
334 0 m 1,0,-1
 183 1490 l 1,1,-1
 571 1490 l 1,2,-1
 609 829 l 2,3,4
 614 730 614 730 615 621 c 128,-1,5
 616 512 616 512 615 404 c 128,-1,6
 614 296 614 296 616 194 c 1,7,-1
 543 194 l 1,8,9
 580 296 580 296 617 404 c 128,-1,10
 654 512 654 512 692.5 621 c 128,-1,11
 731 730 731 730 771 829 c 2,12,-1
 1039 1490 l 1,13,-1
 1397 1490 l 1,14,-1
 1446 829 l 2,15,16
 1453 730 1453 730 1456 621 c 128,-1,17
 1459 512 1459 512 1460 404 c 128,-1,18
 1461 296 1461 296 1464 194 c 1,19,-1
 1389 194 l 1,20,21
 1425 296 1425 296 1460 404 c 128,-1,22
 1495 512 1495 512 1532 621 c 128,-1,23
 1569 730 1569 730 1608 829 c 2,24,-1
 1865 1490 l 1,25,-1
 2256 1490 l 1,26,-1
 1610 0 l 1,27,-1
 1211 0 l 1,28,-1
 1148 721 l 2,29,30
 1138 835 1138 835 1139 972.5 c 128,-1,31
 1140 1110 1140 1110 1134 1268 c 1,32,-1
 1230 1268 l 1,33,34
 1169 1111 1169 1111 1126 973.5 c 128,-1,35
 1083 836 1083 836 1035 721 c 2,36,-1
 733 0 l 1,37,-1
 334 0 l 1,0,-1
EndSplineSet
Substitution2: "'ss06' Style Set 6 in Latin lookup 52 subtable" W.squared
Substitution2: "'ss05' Style Set 5 in Latin lookup 51 subtable" uni24CC
Position2: "'cpsp' Capital Spacing in Latin lookup 0 subtable" dx=0 dy=0 dh=0 dv=0
EndChar

StartChar: X
Encoding: 88 88 467
Width: 1516
GlyphClass: 2
Flags: W
AnchorPoint: "Anchor-1" 915 1490 basechar 0
AnchorPoint: "Anchor-0" 667 -2 basechar 0
LayerCount: 2
Fore
SplineSet
-63 0 m 1,0,-1
 713 892 l 1,1,-1
 668 624 l 1,2,-1
 239 1490 l 1,3,-1
 635 1490 l 1,4,-1
 739 1266 l 2,5,6
 767 1206 767 1206 787.5 1151 c 128,-1,7
 808 1096 808 1096 826 1044 c 128,-1,8
 844 992 844 992 864 940 c 1,9,-1
 764 940 l 1,10,11
 804 991 804 991 840 1043.5 c 128,-1,12
 876 1096 876 1096 915 1151.5 c 128,-1,13
 954 1207 954 1207 1003 1266 c 2,14,-1
 1186 1490 l 1,15,-1
 1594 1490 l 1,16,-1
 893 645 l 1,17,-1
 935 897 l 1,18,-1
 1398 0 l 1,19,-1
 988 0 l 1,20,-1
 850 286 l 2,21,22
 825 338 825 338 807 380 c 128,-1,23
 789 422 789 422 773.5 460.5 c 128,-1,24
 758 499 758 499 740 540 c 1,25,-1
 791 540 l 1,26,27
 758 498 758 498 730.5 460 c 128,-1,28
 703 422 703 422 670.5 380 c 128,-1,29
 638 338 638 338 594 286 c 2,30,-1
 354 0 l 1,31,-1
 -63 0 l 1,0,-1
EndSplineSet
Substitution2: "'ss06' Style Set 6 in Latin lookup 52 subtable" X.squared
Substitution2: "'ss05' Style Set 5 in Latin lookup 51 subtable" uni24CD
Position2: "'cpsp' Capital Spacing in Latin lookup 0 subtable" dx=0 dy=0 dh=0 dv=0
EndChar

StartChar: Y
Encoding: 89 89 473
Width: 1497
GlyphClass: 2
Flags: W
AnchorPoint: "Anchor-4" 839 0 basechar 0
AnchorPoint: "Anchor-1" 905 1490 basechar 0
AnchorPoint: "Anchor-0" 662 0 basechar 0
LayerCount: 2
Fore
SplineSet
489 0 m 1,0,-1
 578 537 l 1,1,-1
 183 1490 l 1,2,-1
 580 1490 l 1,3,-1
 740 1045 l 2,4,5
 764 984 764 984 781 922.5 c 128,-1,6
 798 861 798 861 814 788 c 1,7,-1
 751 788 l 1,8,9
 789 861 789 861 825.5 922.5 c 128,-1,10
 862 984 862 984 903 1045 c 2,11,-1
 1201 1490 l 1,12,-1
 1628 1490 l 1,13,-1
 928 537 l 1,14,-1
 839 0 l 1,15,-1
 489 0 l 1,0,-1
EndSplineSet
Substitution2: "'c2sc' Capitals to Small Capitals in Latin lookup 67 subtable" y.sc
Substitution2: "'ss06' Style Set 6 in Latin lookup 52 subtable" Y.squared
Substitution2: "'ss05' Style Set 5 in Latin lookup 51 subtable" uni24CE
Substitution2: "'aalt' Access All Alternates in Latin lookup 0 subtable" y.sc
Position2: "'cpsp' Capital Spacing in Latin lookup 0 subtable" dx=0 dy=0 dh=0 dv=0
EndChar

StartChar: uni01B3
Encoding: 435 435 474
Width: 1644
Flags: W
LayerCount: 2
Fore
SplineSet
837 829 m 1,0,-1
 843 863 l 1,1,-1
 878 863 l 1,2,-1
 873 829 l 1,3,-1
 837 829 l 1,0,-1
200 1490 m 1,4,-1
 581 1490 l 1,5,-1
 859 849 l 1,6,-1
 1196 1291 l 2,7,8
 1284 1404 1284 1404 1384.5 1454.5 c 128,-1,9
 1485 1505 1485 1505 1587 1506.5 c 128,-1,10
 1689 1508 1689 1508 1781 1472 c 1,11,-1
 1664 1210 l 1,12,13
 1589 1234 1589 1234 1540.5 1212.5 c 128,-1,14
 1492 1191 1492 1191 1434 1120 c 2,15,-1
 986 566 l 1,16,-1
 892 0 l 1,17,-1
 543 0 l 1,18,-1
 638 566 l 1,19,-1
 200 1490 l 1,4,-1
EndSplineSet
Position2: "'cpsp' Capital Spacing in Latin lookup 0 subtable" dx=0 dy=0 dh=0 dv=0
EndChar

StartChar: uni024E
Encoding: 590 590 484
Width: 1499
GlyphClass: 2
Flags: W
AnchorPoint: "Anchor-4" 839 0 basechar 0
AnchorPoint: "Anchor-1" 905 1490 basechar 0
AnchorPoint: "Anchor-0" 662 0 basechar 0
LayerCount: 2
Fore
SplineSet
1591 1178 m 1,0,-1
 1563 1005 l 1,1,-1
 88 1005 l 1,2,-1
 117 1178 l 1,3,-1
 1591 1178 l 1,0,-1
489 0 m 1,4,-1
 578 537 l 1,5,-1
 183 1490 l 1,6,-1
 580 1490 l 1,7,-1
 740 1045 l 2,8,9
 764 984 764 984 781 922.5 c 128,-1,10
 798 861 798 861 814 788 c 1,11,-1
 751 788 l 1,12,13
 789 861 789 861 825.5 922.5 c 128,-1,14
 862 984 862 984 903 1045 c 2,15,-1
 1201 1490 l 1,16,-1
 1628 1490 l 1,17,-1
 928 537 l 1,18,-1
 839 0 l 1,19,-1
 489 0 l 1,4,-1
EndSplineSet
Position2: "'cpsp' Capital Spacing in Latin lookup 0 subtable" dx=0 dy=0 dh=0 dv=0
EndChar

StartChar: Z
Encoding: 90 90 497
Width: 1370
GlyphClass: 2
Flags: W
AnchorPoint: "Anchor-1" 846 1490 basechar 0
AnchorPoint: "Anchor-0" 596 0 basechar 0
LayerCount: 2
Fore
SplineSet
10 0 m 1,0,-1
 43 202 l 1,1,-1
 936 1204 l 1,2,-1
 209 1204 l 1,3,-1
 256 1490 l 1,4,-1
 1428 1490 l 1,5,-1
 1395 1288 l 1,6,-1
 502 288 l 1,7,-1
 1229 288 l 1,8,-1
 1182 0 l 1,9,-1
 10 0 l 1,0,-1
EndSplineSet
Substitution2: "'ss06' Style Set 6 in Latin lookup 52 subtable" Z.squared
Substitution2: "'ss05' Style Set 5 in Latin lookup 51 subtable" uni24CF
Position2: "'cpsp' Capital Spacing in Latin lookup 0 subtable" dx=0 dy=0 dh=0 dv=0
EndChar

StartChar: uni0224
Encoding: 548 548 504
Width: 1370
GlyphClass: 2
Flags: W
AnchorPoint: "Anchor-1" 846 1490 basechar 0
AnchorPoint: "Anchor-0" 596 0 basechar 0
LayerCount: 2
Fore
SplineSet
540 -417 m 1,0,-1
 585 -144 l 1,1,2
 606 -147 606 -147 636.5 -148 c 128,-1,3
 667 -149 667 -149 699 -149 c 0,4,5
 754 -149 754 -149 781 -129 c 128,-1,6
 808 -109 808 -109 815 -63 c 2,7,-1
 826 0 l 1,8,-1
 1182 0 l 1,9,-1
 1168 -83 l 2,10,11
 1139 -255 1139 -255 1027 -341 c 128,-1,12
 915 -427 915 -427 721 -427 c 0,13,14
 667 -427 667 -427 620 -424.5 c 128,-1,15
 573 -422 573 -422 540 -417 c 1,0,-1
10 0 m 1,16,-1
 43 202 l 1,17,-1
 936 1204 l 1,18,-1
 209 1204 l 1,19,-1
 256 1490 l 1,20,-1
 1428 1490 l 1,21,-1
 1395 1288 l 1,22,-1
 502 288 l 1,23,-1
 1229 288 l 1,24,-1
 1182 0 l 1,25,-1
 10 0 l 1,16,-1
EndSplineSet
Position2: "'cpsp' Capital Spacing in Latin lookup 0 subtable" dx=0 dy=0 dh=0 dv=0
EndChar

StartChar: uni2C7F
Encoding: 11391 11391 507
Width: 1378
Flags: W
LayerCount: 2
Fore
SplineSet
941 -435 m 0,0,1
 844 -435 844 -435 773.5 -403 c 128,-1,2
 703 -371 703 -371 649 -322 c 128,-1,3
 595 -273 595 -273 544.5 -217 c 128,-1,4
 494 -161 494 -161 435.5 -111.5 c 128,-1,5
 377 -62 377 -62 300.5 -31 c 128,-1,6
 224 0 224 0 119 0 c 2,7,-1
 10 0 l 1,8,-1
 40 187 l 1,9,-1
 927 1210 l 1,10,-1
 210 1210 l 1,11,-1
 257 1490 l 1,12,-1
 1419 1490 l 1,13,-1
 1388 1305 l 1,14,-1
 473 240 l 1,15,16
 553 209 553 209 612.5 159.5 c 128,-1,17
 672 110 672 110 719.5 55 c 128,-1,18
 767 0 767 0 811 -47.5 c 128,-1,19
 855 -95 855 -95 903.5 -125 c 128,-1,20
 952 -155 952 -155 1016 -155 c 0,21,22
 1057 -155 1057 -155 1094 -149.5 c 128,-1,23
 1131 -144 1131 -144 1168 -133 c 1,24,-1
 1123 -404 l 1,25,26
 1087 -417 1087 -417 1040.5 -426 c 128,-1,27
 994 -435 994 -435 941 -435 c 0,0,1
EndSplineSet
Position2: "'cpsp' Capital Spacing in Latin lookup 0 subtable" dx=0 dy=0 dh=0 dv=0
EndChar

StartChar: a
Encoding: 97 97 508
Width: 1276
GlyphClass: 2
Flags: W
AnchorPoint: "Anchor-4" 1080 0 basechar 0
AnchorPoint: "Anchor-1" 735 1087 basechar 0
AnchorPoint: "Anchor-0" 552 0 basechar 0
LayerCount: 2
Fore
SplineSet
420 -20 m 0,0,1
 290 -20 290 -20 198.5 47 c 128,-1,2
 107 114 107 114 69.5 240 c 128,-1,3
 32 366 32 366 62 545 c 256,4,5
 92 724 92 724 173 849 c 128,-1,6
 254 974 254 974 367 1040 c 128,-1,7
 480 1106 480 1106 605 1106 c 0,8,9
 684 1106 684 1106 740 1081.5 c 128,-1,10
 796 1057 796 1057 832 1016 c 128,-1,11
 868 975 868 975 885 923 c 1,12,-1
 891 923 l 1,13,-1
 919 1087 l 1,14,-1
 1260 1087 l 1,15,-1
 1080 0 l 1,16,-1
 740 0 l 1,17,-1
 768 170 l 1,18,-1
 760 170 l 1,19,20
 727 115 727 115 677 72 c 128,-1,21
 627 29 627 29 563 4.5 c 128,-1,22
 499 -20 499 -20 420 -20 c 0,0,1
575 254 m 256,23,24
 641 254 641 254 694.5 290 c 128,-1,25
 748 326 748 326 785.5 391 c 128,-1,26
 823 456 823 456 837 545 c 0,27,28
 851 633 851 633 835.5 697.5 c 128,-1,29
 820 762 820 762 778 797.5 c 128,-1,30
 736 833 736 833 669 833 c 0,31,32
 604 833 604 833 552 797.5 c 128,-1,33
 500 762 500 762 465 697.5 c 128,-1,34
 430 633 430 633 415 545 c 0,35,36
 401 456 401 456 415 391 c 128,-1,37
 429 326 429 326 469 290 c 128,-1,38
 509 254 509 254 575 254 c 256,23,24
EndSplineSet
Substitution2: "'smcp' Lowercase to Small Capitals in Latin lookup 68 subtable" a.sc
Substitution2: "'c2sc' Capitals to Small Capitals in Latin lookup 67 subtable" a.sc
Substitution2: "Single Substitution lookup 44 subtable" ordfeminine
Substitution2: "'sups' Superscript in Latin lookup 39 subtable" a.sups
Substitution2: "'subs' Subscript in Latin lookup 38 subtable" a.subs
Substitution2: "'sinf' Scientific Inferiors in Latin lookup 18 subtable" a.subs
AlternateSubs2: "'aalt' Access All Alternates in Latin lookup 1 subtable" ordfeminine a.sups a.subs a.sc
EndChar

StartChar: aturn
Encoding: 592 592 540
Width: 1276
GlyphClass: 2
Flags: W
AnchorPoint: "Anchor-4" 197 1087 basechar 0
AnchorPoint: "Anchor-1" 740 1087 basechar 0
AnchorPoint: "Anchor-0" 559 0 basechar 0
LayerCount: 2
Fore
SplineSet
856 1107 m 0,0,1
 987 1107 987 1107 1078.5 1040 c 128,-1,2
 1170 973 1170 973 1207.5 847.5 c 128,-1,3
 1245 722 1245 722 1215 544 c 0,4,5
 1185 365 1185 365 1104 239 c 128,-1,6
 1023 113 1023 113 910.5 47 c 128,-1,7
 798 -19 798 -19 672 -19 c 0,8,9
 594 -19 594 -19 537.5 5.5 c 128,-1,10
 481 30 481 30 445 71.5 c 128,-1,11
 409 113 409 113 391 166 c 1,12,-1
 385 166 l 1,13,-1
 358 0 l 1,14,-1
 17 0 l 1,15,-1
 197 1087 l 1,16,-1
 537 1087 l 1,17,-1
 509 919 l 1,18,-1
 516 919 l 1,19,20
 550 973 550 973 600 1016 c 128,-1,21
 650 1059 650 1059 714.5 1083 c 128,-1,22
 779 1107 779 1107 856 1107 c 0,0,1
702 833 m 0,23,24
 637 833 637 833 583 797.5 c 128,-1,25
 529 762 529 762 492 697 c 128,-1,26
 455 632 455 632 440 544 c 0,27,28
 425 455 425 455 441 390.5 c 128,-1,29
 457 326 457 326 499.5 291 c 128,-1,30
 542 256 542 256 607 256 c 0,31,32
 673 256 673 256 724.5 291 c 128,-1,33
 776 326 776 326 811.5 390.5 c 128,-1,34
 847 455 847 455 862 544 c 0,35,36
 876 633 876 633 862.5 698 c 128,-1,37
 849 763 849 763 808.5 798 c 128,-1,38
 768 833 768 833 702 833 c 0,23,24
EndSplineSet
EndChar

StartChar: ae
Encoding: 230 230 544
Width: 1873
GlyphClass: 2
Flags: W
AnchorPoint: "Anchor-1" 1001 1087 basechar 0
LayerCount: 2
Fore
SplineSet
386 -18 m 0,0,1
 194 -18 194 -18 95.5 69.5 c 128,-1,2
 -3 157 -3 157 22 306 c 0,3,4
 38 404 38 404 97.5 478 c 128,-1,5
 157 552 157 552 255 593 c 128,-1,6
 353 634 353 634 482 636 c 0,7,8
 535 637 535 637 585.5 637 c 128,-1,9
 636 637 636 637 688.5 637.5 c 128,-1,10
 741 638 741 638 800 639 c 1,11,-1
 769 444 l 1,12,13
 712 444 712 444 652.5 443 c 128,-1,14
 593 442 593 442 535 440 c 0,15,16
 457 439 457 439 409 407 c 128,-1,17
 361 375 361 375 352 323 c 0,18,19
 344 268 344 268 376.5 239 c 128,-1,20
 409 210 409 210 473 210 c 0,21,22
 532 210 532 210 582 233 c 128,-1,23
 632 256 632 256 666.5 296 c 128,-1,24
 701 336 701 336 709 390 c 2,25,-1
 767 736 l 2,26,27
 778 795 778 795 742.5 827.5 c 128,-1,28
 707 860 707 860 631 860 c 0,29,30
 583 860 583 860 544.5 845.5 c 128,-1,31
 506 831 506 831 479.5 804.5 c 128,-1,32
 453 778 453 778 442 741 c 1,33,-1
 124 755 l 1,34,35
 152 857 152 857 226 936.5 c 128,-1,36
 300 1016 300 1016 415 1061.5 c 128,-1,37
 530 1107 530 1107 676 1107 c 0,38,39
 818 1107 818 1107 903.5 1062 c 128,-1,40
 989 1017 989 1017 1020.5 936 c 128,-1,41
 1052 855 1052 855 1034 747 c 2,42,-1
 970 362 l 1,43,-1
 953 353 l 1,44,45
 928 238 928 238 856.5 155.5 c 128,-1,46
 785 73 785 73 667.5 27.5 c 128,-1,47
 550 -18 550 -18 386 -18 c 0,0,1
1222 -24 m 0,48,49
 1055 -24 1055 -24 938.5 39 c 128,-1,50
 822 102 822 102 769 222.5 c 128,-1,51
 716 343 716 343 739 516 c 0,52,53
 755 650 755 650 808.5 758.5 c 128,-1,54
 862 867 862 867 947 945.5 c 128,-1,55
 1032 1024 1032 1024 1141.5 1065.5 c 128,-1,56
 1251 1107 1251 1107 1379 1107 c 0,57,58
 1502 1107 1502 1107 1601.5 1070 c 128,-1,59
 1701 1033 1701 1033 1759.5 960.5 c 128,-1,60
 1818 888 1818 888 1818 782 c 0,61,62
 1818 675 1818 675 1751.5 607.5 c 128,-1,63
 1685 540 1685 540 1559 504.5 c 128,-1,64
 1433 469 1433 469 1254 456 c 128,-1,65
 1075 443 1075 443 848 443 c 1,66,-1
 881 639 l 1,67,68
 1076 639 1076 639 1197.5 645.5 c 128,-1,69
 1319 652 1319 652 1384.5 666.5 c 128,-1,70
 1450 681 1450 681 1474.5 704.5 c 128,-1,71
 1499 728 1499 728 1499 761 c 0,72,73
 1499 806 1499 806 1459 830.5 c 128,-1,74
 1419 855 1419 855 1347 855 c 256,75,76
 1275 855 1275 855 1222 829.5 c 128,-1,77
 1169 804 1169 804 1136 752 c 128,-1,78
 1103 700 1103 700 1089 618 c 0,79,80
 1084 590 1084 590 1078 552 c 128,-1,81
 1072 514 1072 514 1067.5 477 c 128,-1,82
 1063 440 1063 440 1063 418 c 0,83,84
 1063 316 1063 316 1111.5 271.5 c 128,-1,85
 1160 227 1160 227 1247 227 c 0,86,87
 1331 227 1331 227 1387 261 c 128,-1,88
 1443 295 1443 295 1463 349 c 1,89,-1
 1783 344 l 1,90,91
 1724 175 1724 175 1582 75.5 c 128,-1,92
 1440 -24 1440 -24 1222 -24 c 0,48,49
EndSplineSet
EndChar

StartChar: b
Encoding: 98 98 548
Width: 1279
GlyphClass: 2
Flags: W
AnchorPoint: "Anchor-1" 886 1299 basechar 0
AnchorPoint: "Anchor-0" 603 0 basechar 0
LayerCount: 2
Fore
SplineSet
692 -20 m 0,0,1
 609 -20 609 -20 549 6.5 c 128,-1,2
 489 33 489 33 451.5 79 c 128,-1,3
 414 125 414 125 397 183 c 1,4,-1
 389 183 l 1,5,-1
 358 0 l 1,6,-1
 16 0 l 1,7,-1
 263 1490 l 1,8,-1
 609 1490 l 1,9,-1
 517 925 l 1,10,-1
 522 925 l 1,11,12
 552 979 552 979 598.5 1019 c 128,-1,13
 645 1059 645 1059 706 1082.5 c 128,-1,14
 767 1106 767 1106 842 1106 c 0,15,16
 955 1106 955 1106 1040.5 1054 c 128,-1,17
 1126 1002 1126 1002 1175.5 902 c 128,-1,18
 1225 802 1225 802 1225 658 c 0,19,20
 1225 543 1225 543 1192 423 c 128,-1,21
 1159 303 1159 303 1092.5 203 c 128,-1,22
 1026 103 1026 103 926 41.5 c 128,-1,23
 826 -20 826 -20 692 -20 c 0,0,1
590 254 m 0,24,25
 662 254 662 254 715.5 292.5 c 128,-1,26
 769 331 769 331 804.5 390.5 c 128,-1,27
 840 450 840 450 857 519 c 128,-1,28
 874 588 874 588 874 649 c 0,29,30
 874 736 874 736 836 784.5 c 128,-1,31
 798 833 798 833 722 833 c 0,32,33
 653 833 653 833 598.5 798 c 128,-1,34
 544 763 544 763 506.5 705.5 c 128,-1,35
 469 648 469 648 450 580 c 128,-1,36
 431 512 431 512 431 446 c 0,37,38
 431 357 431 357 472.5 305.5 c 128,-1,39
 514 254 514 254 590 254 c 0,24,25
EndSplineSet
Substitution2: "'sups' Superscript in Latin lookup 39 subtable" b.sups
Substitution2: "'subs' Subscript in Latin lookup 38 subtable" b.subs
Substitution2: "'sinf' Scientific Inferiors in Latin lookup 18 subtable" b.subs
AlternateSubs2: "'aalt' Access All Alternates in Latin lookup 1 subtable" b.sups b.subs
EndChar

StartChar: uni0183
Encoding: 387 387 550
Width: 1279
GlyphClass: 2
Flags: W
AnchorPoint: "Anchor-1" 886 1299 basechar 0
AnchorPoint: "Anchor-0" 603 0 basechar 0
LayerCount: 2
Fore
SplineSet
394 1228 m 1,0,-1
 263 1490 l 1,1,-1
 1142 1490 l 1,2,-1
 1099 1228 l 1,3,-1
 394 1228 l 1,0,-1
692 -20 m 0,4,5
 609 -20 609 -20 549 6.5 c 128,-1,6
 489 33 489 33 451.5 79 c 128,-1,7
 414 125 414 125 397 183 c 1,8,-1
 389 183 l 1,9,-1
 358 0 l 1,10,-1
 16 0 l 1,11,-1
 263 1490 l 1,12,-1
 609 1490 l 1,13,-1
 517 925 l 1,14,-1
 522 925 l 1,15,16
 552 979 552 979 598.5 1019 c 128,-1,17
 645 1059 645 1059 706 1082.5 c 128,-1,18
 767 1106 767 1106 842 1106 c 0,19,20
 955 1106 955 1106 1040.5 1054 c 128,-1,21
 1126 1002 1126 1002 1175.5 902 c 128,-1,22
 1225 802 1225 802 1225 658 c 0,23,24
 1225 543 1225 543 1192 423 c 128,-1,25
 1159 303 1159 303 1092.5 203 c 128,-1,26
 1026 103 1026 103 926 41.5 c 128,-1,27
 826 -20 826 -20 692 -20 c 0,4,5
590 254 m 0,28,29
 662 254 662 254 715.5 292.5 c 128,-1,30
 769 331 769 331 804.5 390.5 c 128,-1,31
 840 450 840 450 857 519 c 128,-1,32
 874 588 874 588 874 649 c 0,33,34
 874 736 874 736 836 784.5 c 128,-1,35
 798 833 798 833 722 833 c 0,36,37
 653 833 653 833 598.5 798 c 128,-1,38
 544 763 544 763 506.5 705.5 c 128,-1,39
 469 648 469 648 450 580 c 128,-1,40
 431 512 431 512 431 446 c 0,41,42
 431 357 431 357 472.5 305.5 c 128,-1,43
 514 254 514 254 590 254 c 0,28,29
EndSplineSet
EndChar

StartChar: uni0253
Encoding: 595 595 551
Width: 1277
GlyphClass: 2
Flags: W
AnchorPoint: "Anchor-1" 614 1490 basechar 0
AnchorPoint: "Anchor-0" 544 0 basechar 0
LayerCount: 2
Fore
SplineSet
674 -20 m 0,0,1
 597 -20 597 -20 540 4.5 c 128,-1,2
 483 29 483 29 446 72 c 128,-1,3
 409 115 409 115 394 169 c 1,4,-1
 386 169 l 1,5,-1
 358 0 l 1,6,-1
 17 0 l 1,7,-1
 160 870 l 1,8,-1
 506 870 l 1,9,-1
 511 905 l 1,10,-1
 518 909 l 1,11,12
 553 959 553 959 601.5 1000 c 128,-1,13
 650 1041 650 1041 712.5 1064 c 128,-1,14
 775 1087 775 1087 852 1087 c 0,15,16
 979 1087 979 1087 1070.5 1023 c 128,-1,17
 1162 959 1162 959 1203 836.5 c 128,-1,18
 1244 714 1244 714 1214 538 c 0,19,20
 1187 364 1187 364 1108 239 c 128,-1,21
 1029 114 1029 114 917.5 47 c 128,-1,22
 806 -20 806 -20 674 -20 c 0,0,1
609 254 m 0,23,24
 674 254 674 254 726 288.5 c 128,-1,25
 778 323 778 323 813 387 c 128,-1,26
 848 451 848 451 862 538 c 0,27,28
 877 625 877 625 863.5 689 c 128,-1,29
 850 753 850 753 809.5 787.5 c 128,-1,30
 769 822 769 822 702 822 c 0,31,32
 637 822 637 822 582.5 787.5 c 128,-1,33
 528 753 528 753 491.5 689 c 128,-1,34
 455 625 455 625 439 538 c 0,35,36
 425 453 425 453 441.5 388.5 c 128,-1,37
 458 324 458 324 500.5 289 c 128,-1,38
 543 254 543 254 609 254 c 0,23,24
160 871 m 1,39,-1
 197 1087 l 1,40,-1
 208 1153 l 2,41,42
 237 1324 237 1324 346.5 1410.5 c 128,-1,43
 456 1497 456 1497 651 1497 c 0,44,45
 705 1497 705 1497 751.5 1495 c 128,-1,46
 798 1493 798 1493 831 1488 c 1,47,-1
 788 1228 l 1,48,49
 766 1230 766 1230 736 1231 c 128,-1,50
 706 1232 706 1232 675 1232 c 0,51,52
 618 1232 618 1232 589.5 1211.5 c 128,-1,53
 561 1191 561 1191 553 1145 c 2,54,-1
 544 1087 l 1,55,-1
 507 871 l 1,56,-1
 160 871 l 1,39,-1
EndSplineSet
EndChar

StartChar: thorn
Encoding: 254 254 555
Width: 1279
Flags: W
LayerCount: 2
Fore
SplineSet
672 -20 m 0,0,1
 594 -20 594 -20 538.5 4.5 c 128,-1,2
 483 29 483 29 448 72 c 128,-1,3
 413 115 413 115 398 170 c 1,4,-1
 392 170 l 1,5,-1
 294 -418 l 1,6,-1
 -53 -418 l 1,7,-1
 263 1490 l 1,8,-1
 610 1490 l 1,9,-1
 517 923 l 1,10,-1
 523 923 l 1,11,12
 557 975 557 975 606 1016 c 128,-1,13
 655 1057 655 1057 718.5 1081.5 c 128,-1,14
 782 1106 782 1106 861 1106 c 0,15,16
 987 1106 987 1106 1078 1040.5 c 128,-1,17
 1169 975 1169 975 1208 849.5 c 128,-1,18
 1247 724 1247 724 1217 544 c 0,19,20
 1188 366 1188 366 1109 239.5 c 128,-1,21
 1030 113 1030 113 916.5 46.5 c 128,-1,22
 803 -20 803 -20 672 -20 c 0,0,1
610 254 m 0,23,24
 674 254 674 254 726 290 c 128,-1,25
 778 326 778 326 814 391 c 128,-1,26
 850 456 850 456 864 545 c 0,27,28
 878 633 878 633 864.5 697.5 c 128,-1,29
 851 762 851 762 811 797.5 c 128,-1,30
 771 833 771 833 705 833 c 256,31,32
 639 833 639 833 585.5 797.5 c 128,-1,33
 532 762 532 762 495 697.5 c 128,-1,34
 458 633 458 633 442 545 c 0,35,36
 428 457 428 457 443.5 391.5 c 128,-1,37
 459 326 459 326 501.5 290 c 128,-1,38
 544 254 544 254 610 254 c 0,23,24
EndSplineSet
EndChar

StartChar: c
Encoding: 99 99 556
Width: 1192
GlyphClass: 2
Flags: W
AnchorPoint: "Anchor-3" 527 0 basechar 0
AnchorPoint: "Anchor-1" 706 1087 basechar 0
AnchorPoint: "Anchor-0" 527 0 basechar 0
LayerCount: 2
Fore
SplineSet
541 -22 m 0,0,1
 390 -22 390 -22 281.5 36 c 128,-1,2
 173 94 173 94 114 198.5 c 128,-1,3
 55 303 55 303 55 444 c 0,4,5
 55 572 55 572 97 691 c 128,-1,6
 139 810 139 810 221 904 c 128,-1,7
 303 998 303 998 421 1052 c 128,-1,8
 539 1106 539 1106 691 1106 c 0,9,10
 799 1106 799 1106 887 1076.5 c 128,-1,11
 975 1047 975 1047 1037.5 992 c 128,-1,12
 1100 937 1100 937 1131.5 860 c 128,-1,13
 1163 783 1163 783 1156 687 c 1,14,-1
 825 662 l 1,15,16
 826 701 826 701 819 733 c 128,-1,17
 812 765 812 765 796 788.5 c 128,-1,18
 780 812 780 812 753.5 824.5 c 128,-1,19
 727 837 727 837 689 837 c 0,20,21
 616 837 616 837 562.5 799.5 c 128,-1,22
 509 762 509 762 473.5 701 c 128,-1,23
 438 640 438 640 421 570 c 128,-1,24
 404 500 404 500 404 433 c 0,25,26
 404 376 404 376 420.5 334 c 128,-1,27
 437 292 437 292 470 270 c 128,-1,28
 503 248 503 248 554 248 c 0,29,30
 595 248 595 248 631 261 c 128,-1,31
 667 274 667 274 698 298 c 128,-1,32
 729 322 729 322 752 355 c 128,-1,33
 775 388 775 388 787 428 c 1,34,-1
 1110 401 l 1,35,36
 1086 304 1086 304 1035 226.5 c 128,-1,37
 984 149 984 149 910 93.5 c 128,-1,38
 836 38 836 38 743 8 c 128,-1,39
 650 -22 650 -22 541 -22 c 0,0,1
EndSplineSet
Substitution2: "'sups' Superscript in Latin lookup 39 subtable" c.sups
Substitution2: "'subs' Subscript in Latin lookup 38 subtable" c.subs
Substitution2: "'sinf' Scientific Inferiors in Latin lookup 18 subtable" c.subs
AlternateSubs2: "'aalt' Access All Alternates in Latin lookup 1 subtable" c.sups c.subs
EndChar

StartChar: uni023C
Encoding: 572 572 557
Width: 1192
GlyphClass: 2
Flags: W
AnchorPoint: "Anchor-3" 527 0 basechar 0
AnchorPoint: "Anchor-1" 706 1087 basechar 0
AnchorPoint: "Anchor-0" 527 0 basechar 0
LayerCount: 2
Fore
SplineSet
87 -418 m 1,0,-1
 980 1490 l 1,1,-1
 1142 1490 l 1,2,-1
 248 -418 l 1,3,-1
 87 -418 l 1,0,-1
541 -22 m 0,4,5
 390 -22 390 -22 281.5 36 c 128,-1,6
 173 94 173 94 114 198.5 c 128,-1,7
 55 303 55 303 55 444 c 0,8,9
 55 572 55 572 97 691 c 128,-1,10
 139 810 139 810 221 904 c 128,-1,11
 303 998 303 998 421 1052 c 128,-1,12
 539 1106 539 1106 691 1106 c 0,13,14
 799 1106 799 1106 887 1076.5 c 128,-1,15
 975 1047 975 1047 1037.5 992 c 128,-1,16
 1100 937 1100 937 1131.5 860 c 128,-1,17
 1163 783 1163 783 1156 687 c 1,18,-1
 825 662 l 1,19,20
 826 701 826 701 819 733 c 128,-1,21
 812 765 812 765 796 788.5 c 128,-1,22
 780 812 780 812 753.5 824.5 c 128,-1,23
 727 837 727 837 689 837 c 0,24,25
 616 837 616 837 562.5 799.5 c 128,-1,26
 509 762 509 762 473.5 701 c 128,-1,27
 438 640 438 640 421 570 c 128,-1,28
 404 500 404 500 404 433 c 0,29,30
 404 376 404 376 420.5 334 c 128,-1,31
 437 292 437 292 470 270 c 128,-1,32
 503 248 503 248 554 248 c 0,33,34
 595 248 595 248 631 261 c 128,-1,35
 667 274 667 274 698 298 c 128,-1,36
 729 322 729 322 752 355 c 128,-1,37
 775 388 775 388 787 428 c 1,38,-1
 1110 401 l 1,39,40
 1086 304 1086 304 1035 226.5 c 128,-1,41
 984 149 984 149 910 93.5 c 128,-1,42
 836 38 836 38 743 8 c 128,-1,43
 650 -22 650 -22 541 -22 c 0,4,5
EndSplineSet
Ligature2: "'ccmp' Glyph Composition/Decomposition in Latin lookup 6 subtable" c uni0338
EndChar

StartChar: uni0188
Encoding: 392 392 558
Width: 1192
GlyphClass: 2
Flags: W
AnchorPoint: "Anchor-3" 527 0 basechar 0
AnchorPoint: "Anchor-1" 706 1087 basechar 0
AnchorPoint: "Anchor-0" 527 0 basechar 0
LayerCount: 2
Fore
SplineSet
868 684 m 1,0,-1
 886 952 l 2,1,2
 897 1123 897 1123 986.5 1205 c 128,-1,3
 1076 1287 1076 1287 1270 1287 c 0,4,5
 1316 1287 1316 1287 1357 1285.5 c 128,-1,6
 1398 1284 1398 1284 1426 1282 c 1,7,-1
 1379 1017 l 1,8,9
 1360 1019 1360 1019 1331 1021 c 128,-1,10
 1302 1023 1302 1023 1274 1023 c 0,11,12
 1221 1023 1221 1023 1197 1001 c 128,-1,13
 1173 979 1173 979 1171 931 c 2,14,-1
 1156 687 l 1,15,-1
 868 684 l 1,0,-1
541 -22 m 0,16,17
 390 -22 390 -22 281.5 36 c 128,-1,18
 173 94 173 94 114 198.5 c 128,-1,19
 55 303 55 303 55 444 c 0,20,21
 55 572 55 572 97 691 c 128,-1,22
 139 810 139 810 221 904 c 128,-1,23
 303 998 303 998 421 1052 c 128,-1,24
 539 1106 539 1106 691 1106 c 0,25,26
 799 1106 799 1106 887 1076.5 c 128,-1,27
 975 1047 975 1047 1037.5 992 c 128,-1,28
 1100 937 1100 937 1131.5 860 c 128,-1,29
 1163 783 1163 783 1156 687 c 1,30,-1
 825 662 l 1,31,32
 826 701 826 701 819 733 c 128,-1,33
 812 765 812 765 796 788.5 c 128,-1,34
 780 812 780 812 753.5 824.5 c 128,-1,35
 727 837 727 837 689 837 c 0,36,37
 616 837 616 837 562.5 799.5 c 128,-1,38
 509 762 509 762 473.5 701 c 128,-1,39
 438 640 438 640 421 570 c 128,-1,40
 404 500 404 500 404 433 c 0,41,42
 404 376 404 376 420.5 334 c 128,-1,43
 437 292 437 292 470 270 c 128,-1,44
 503 248 503 248 554 248 c 0,45,46
 595 248 595 248 631 261 c 128,-1,47
 667 274 667 274 698 298 c 128,-1,48
 729 322 729 322 752 355 c 128,-1,49
 775 388 775 388 787 428 c 1,50,-1
 1110 401 l 1,51,52
 1086 304 1086 304 1035 226.5 c 128,-1,53
 984 149 984 149 910 93.5 c 128,-1,54
 836 38 836 38 743 8 c 128,-1,55
 650 -22 650 -22 541 -22 c 0,16,17
EndSplineSet
EndChar

StartChar: d
Encoding: 100 100 567
Width: 1278
GlyphClass: 2
Flags: W
AnchorPoint: "Anchor-1" 615 1299 basechar 0
AnchorPoint: "Anchor-0" 555 0 basechar 0
LayerCount: 2
Fore
SplineSet
440 -20 m 0,0,1
 265 -20 265 -20 159 96 c 128,-1,2
 53 212 53 212 53 420 c 0,3,4
 53 546 53 546 88.5 668 c 128,-1,5
 124 790 124 790 193 889 c 128,-1,6
 262 988 262 988 361 1047 c 128,-1,7
 460 1106 460 1106 586 1106 c 0,8,9
 670 1106 670 1106 729 1079 c 128,-1,10
 788 1052 788 1052 825 1007 c 128,-1,11
 862 962 862 962 881 907 c 1,12,-1
 886 907 l 1,13,-1
 982 1490 l 1,14,-1
 1330 1490 l 1,15,-1
 1083 0 l 1,16,-1
 740 0 l 1,17,-1
 769 168 l 1,18,-1
 761 168 l 1,19,20
 728 108 728 108 680.5 66.5 c 128,-1,21
 633 25 633 25 573 2.5 c 128,-1,22
 513 -20 513 -20 440 -20 c 0,0,1
557 254 m 0,23,24
 626 254 626 254 680 289.5 c 128,-1,25
 734 325 734 325 771.5 383 c 128,-1,26
 809 441 809 441 828.5 509 c 128,-1,27
 848 577 848 577 848 643 c 0,28,29
 848 732 848 732 806 782.5 c 128,-1,30
 764 833 764 833 688 833 c 0,31,32
 619 833 619 833 566 796.5 c 128,-1,33
 513 760 513 760 477 701.5 c 128,-1,34
 441 643 441 643 422.5 574 c 128,-1,35
 404 505 404 505 404 439 c 0,36,37
 404 351 404 351 443 302.5 c 128,-1,38
 482 254 482 254 557 254 c 0,23,24
EndSplineSet
Substitution2: "'sups' Superscript in Latin lookup 39 subtable" d.sups
Substitution2: "'subs' Subscript in Latin lookup 38 subtable" d.subs
Substitution2: "'sinf' Scientific Inferiors in Latin lookup 18 subtable" d.subs
AlternateSubs2: "'aalt' Access All Alternates in Latin lookup 1 subtable" d.sups d.subs
EndChar

StartChar: drthook
Encoding: 598 598 569
Width: 1278
GlyphClass: 2
Flags: W
AnchorPoint: "Anchor-1" 615 1299 basechar 0
AnchorPoint: "Anchor-0" 555 0 basechar 0
LayerCount: 2
Fore
SplineSet
1048 -427 m 0,0,1
 854 -427 854 -427 776 -340.5 c 128,-1,2
 698 -254 698 -254 726 -83 c 2,3,-1
 773 203 l 1,4,-1
 1116 203 l 1,5,-1
 1070 -74 l 2,6,7
 1062 -121 1062 -121 1083 -141.5 c 128,-1,8
 1104 -162 1104 -162 1159 -162 c 0,9,10
 1191 -162 1191 -162 1221.5 -161.5 c 128,-1,11
 1252 -161 1252 -161 1274 -159 c 1,12,-1
 1232 -417 l 1,13,14
 1197 -422 1197 -422 1150 -424.5 c 128,-1,15
 1103 -427 1103 -427 1048 -427 c 0,0,1
440 -20 m 0,16,17
 265 -20 265 -20 159 96 c 128,-1,18
 53 212 53 212 53 420 c 0,19,20
 53 546 53 546 88.5 668 c 128,-1,21
 124 790 124 790 193 889 c 128,-1,22
 262 988 262 988 361 1047 c 128,-1,23
 460 1106 460 1106 586 1106 c 0,24,25
 670 1106 670 1106 729 1079 c 128,-1,26
 788 1052 788 1052 825 1007 c 128,-1,27
 862 962 862 962 881 907 c 1,28,-1
 886 907 l 1,29,-1
 982 1490 l 1,30,-1
 1330 1490 l 1,31,-1
 1083 0 l 1,32,-1
 740 0 l 1,33,-1
 769 168 l 1,34,-1
 761 168 l 1,35,36
 728 108 728 108 680.5 66.5 c 128,-1,37
 633 25 633 25 573 2.5 c 128,-1,38
 513 -20 513 -20 440 -20 c 0,16,17
557 254 m 0,39,40
 626 254 626 254 680 289.5 c 128,-1,41
 734 325 734 325 771.5 383 c 128,-1,42
 809 441 809 441 828.5 509 c 128,-1,43
 848 577 848 577 848 643 c 0,44,45
 848 732 848 732 806 782.5 c 128,-1,46
 764 833 764 833 688 833 c 0,47,48
 619 833 619 833 566 796.5 c 128,-1,49
 513 760 513 760 477 701.5 c 128,-1,50
 441 643 441 643 422.5 574 c 128,-1,51
 404 505 404 505 404 439 c 0,52,53
 404 351 404 351 443 302.5 c 128,-1,54
 482 254 482 254 557 254 c 0,39,40
EndSplineSet
EndChar

StartChar: uni0257
Encoding: 599 599 570
Width: 1276
GlyphClass: 2
Flags: W
AnchorPoint: "Anchor-4" 1080 0 basechar 0
AnchorPoint: "Anchor-1" 735 1087 basechar 0
AnchorPoint: "Anchor-0" 552 0 basechar 0
LayerCount: 2
Fore
SplineSet
878 871 m 1,0,-1
 914 1087 l 1,1,-1
 924 1153 l 2,2,3
 953 1324 953 1324 1063.5 1410.5 c 128,-1,4
 1174 1497 1174 1497 1368 1497 c 0,5,6
 1423 1497 1423 1497 1469 1495 c 128,-1,7
 1515 1493 1515 1493 1548 1488 c 1,8,-1
 1505 1228 l 1,9,10
 1484 1230 1484 1230 1453 1231 c 128,-1,11
 1422 1232 1422 1232 1391 1232 c 0,12,13
 1336 1232 1336 1232 1306.5 1211.5 c 128,-1,14
 1277 1191 1277 1191 1270 1145 c 2,15,-1
 1260 1087 l 1,16,-1
 1225 871 l 1,17,-1
 878 871 l 1,0,-1
420 -20 m 0,18,19
 290 -20 290 -20 198.5 47 c 128,-1,20
 107 114 107 114 69.5 240 c 128,-1,21
 32 366 32 366 62 545 c 256,22,23
 92 724 92 724 173 849 c 128,-1,24
 254 974 254 974 367 1040 c 128,-1,25
 480 1106 480 1106 605 1106 c 0,26,27
 684 1106 684 1106 740 1081.5 c 128,-1,28
 796 1057 796 1057 832 1016 c 128,-1,29
 868 975 868 975 885 923 c 1,30,-1
 891 923 l 1,31,-1
 919 1087 l 1,32,-1
 1260 1087 l 1,33,-1
 1080 0 l 1,34,-1
 740 0 l 1,35,-1
 768 170 l 1,36,-1
 760 170 l 1,37,38
 727 115 727 115 677 72 c 128,-1,39
 627 29 627 29 563 4.5 c 128,-1,40
 499 -20 499 -20 420 -20 c 0,18,19
575 254 m 256,41,42
 641 254 641 254 694.5 290 c 128,-1,43
 748 326 748 326 785.5 391 c 128,-1,44
 823 456 823 456 837 545 c 0,45,46
 851 633 851 633 835.5 697.5 c 128,-1,47
 820 762 820 762 778 797.5 c 128,-1,48
 736 833 736 833 669 833 c 0,49,50
 604 833 604 833 552 797.5 c 128,-1,51
 500 762 500 762 465 697.5 c 128,-1,52
 430 633 430 633 415 545 c 0,53,54
 401 456 401 456 415 391 c 128,-1,55
 429 326 429 326 469 290 c 128,-1,56
 509 254 509 254 575 254 c 256,41,42
EndSplineSet
EndChar

StartChar: uni018C
Encoding: 396 396 571
Width: 1278
GlyphClass: 2
Flags: W
AnchorPoint: "Anchor-1" 615 1299 basechar 0
AnchorPoint: "Anchor-0" 555 0 basechar 0
LayerCount: 2
Fore
SplineSet
1110 1228 m 1,0,-1
 406 1228 l 1,1,-1
 449 1490 l 1,2,-1
 1330 1490 l 1,3,-1
 1110 1228 l 1,0,-1
440 -20 m 0,4,5
 265 -20 265 -20 159 96 c 128,-1,6
 53 212 53 212 53 420 c 0,7,8
 53 546 53 546 88.5 668 c 128,-1,9
 124 790 124 790 193 889 c 128,-1,10
 262 988 262 988 361 1047 c 128,-1,11
 460 1106 460 1106 586 1106 c 0,12,13
 670 1106 670 1106 729 1079 c 128,-1,14
 788 1052 788 1052 825 1007 c 128,-1,15
 862 962 862 962 881 907 c 1,16,-1
 886 907 l 1,17,-1
 982 1490 l 1,18,-1
 1330 1490 l 1,19,-1
 1083 0 l 1,20,-1
 740 0 l 1,21,-1
 769 168 l 1,22,-1
 761 168 l 1,23,24
 728 108 728 108 680.5 66.5 c 128,-1,25
 633 25 633 25 573 2.5 c 128,-1,26
 513 -20 513 -20 440 -20 c 0,4,5
557 254 m 0,27,28
 626 254 626 254 680 289.5 c 128,-1,29
 734 325 734 325 771.5 383 c 128,-1,30
 809 441 809 441 828.5 509 c 128,-1,31
 848 577 848 577 848 643 c 0,32,33
 848 732 848 732 806 782.5 c 128,-1,34
 764 833 764 833 688 833 c 0,35,36
 619 833 619 833 566 796.5 c 128,-1,37
 513 760 513 760 477 701.5 c 128,-1,38
 441 643 441 643 422.5 574 c 128,-1,39
 404 505 404 505 404 439 c 0,40,41
 404 351 404 351 443 302.5 c 128,-1,42
 482 254 482 254 557 254 c 0,27,28
EndSplineSet
EndChar

StartChar: uni0221
Encoding: 545 545 572
Width: 1598
GlyphClass: 2
Flags: W
AnchorPoint: "Anchor-1" 615 1299 basechar 0
AnchorPoint: "Anchor-0" 555 0 basechar 0
LayerCount: 2
Fore
SplineSet
1103 -418 m 0,0,1
 950 -418 950 -418 861.5 -373.5 c 128,-1,2
 773 -329 773 -329 741.5 -243 c 128,-1,3
 710 -157 710 -157 730 -34 c 2,4,-1
 770 204 l 1,5,-1
 1117 204 l 1,6,-1
 1062 -122 l 2,7,8
 1054 -169 1054 -169 1078.5 -193 c 128,-1,9
 1103 -217 1103 -217 1145 -217 c 0,10,11
 1182 -217 1182 -217 1210 -198 c 128,-1,12
 1238 -179 1238 -179 1244 -146 c 0,13,14
 1249 -113 1249 -113 1228.5 -92 c 128,-1,15
 1208 -71 1208 -71 1158 -69 c 0,16,17
 1129 -68 1129 -68 1094.5 -76.5 c 128,-1,18
 1060 -85 1060 -85 1010.5 -111 c 128,-1,19
 961 -137 961 -137 884 -186 c 2,20,-1
 539 -419 l 1,21,-1
 418 -221 l 1,22,-1
 767 10 l 2,23,24
 852 67 852 67 959 108.5 c 128,-1,25
 1066 150 1066 150 1180 150 c 0,26,27
 1369 150 1369 150 1462 61.5 c 128,-1,28
 1555 -27 1555 -27 1532 -159 c 0,29,30
 1512 -284 1512 -284 1401.5 -351 c 128,-1,31
 1291 -418 1291 -418 1103 -418 c 0,0,1
440 -20 m 0,32,33
 265 -20 265 -20 159 96 c 128,-1,34
 53 212 53 212 53 420 c 0,35,36
 53 546 53 546 88.5 668 c 128,-1,37
 124 790 124 790 193 889 c 128,-1,38
 262 988 262 988 361 1047 c 128,-1,39
 460 1106 460 1106 586 1106 c 0,40,41
 670 1106 670 1106 729 1079 c 128,-1,42
 788 1052 788 1052 825 1007 c 128,-1,43
 862 962 862 962 881 907 c 1,44,-1
 886 907 l 1,45,-1
 982 1490 l 1,46,-1
 1330 1490 l 1,47,-1
 1083 0 l 1,48,-1
 740 0 l 1,49,-1
 769 168 l 1,50,-1
 761 168 l 1,51,52
 728 108 728 108 680.5 66.5 c 128,-1,53
 633 25 633 25 573 2.5 c 128,-1,54
 513 -20 513 -20 440 -20 c 0,32,33
557 254 m 0,55,56
 626 254 626 254 680 289.5 c 128,-1,57
 734 325 734 325 771.5 383 c 128,-1,58
 809 441 809 441 828.5 509 c 128,-1,59
 848 577 848 577 848 643 c 0,60,61
 848 732 848 732 806 782.5 c 128,-1,62
 764 833 764 833 688 833 c 0,63,64
 619 833 619 833 566 796.5 c 128,-1,65
 513 760 513 760 477 701.5 c 128,-1,66
 441 643 441 643 422.5 574 c 128,-1,67
 404 505 404 505 404 439 c 0,68,69
 404 351 404 351 443 302.5 c 128,-1,70
 482 254 482 254 557 254 c 0,55,56
EndSplineSet
EndChar

StartChar: uni02A3
Encoding: 675 675 580
Width: 2303
GlyphClass: 2
Flags: W
AnchorPoint: "Anchor-1" 615 1299 basechar 0
AnchorPoint: "Anchor-0" 555 0 basechar 0
LayerCount: 2
Fore
SplineSet
1149 0 m 1,0,-1
 1182 200 l 1,1,-1
 1812 840 l 1,2,-1
 1813 847 l 1,3,-1
 1082 847 l 1,4,-1
 1127 1118 l 1,5,-1
 2273 1118 l 1,6,-1
 2238 898 l 1,7,-1
 1648 278 l 1,8,-1
 1645 271 l 1,9,-1
 2149 271 l 1,10,-1
 2106 0 l 1,11,-1
 1149 0 l 1,0,-1
440 -20 m 0,12,13
 265 -20 265 -20 159 96 c 128,-1,14
 53 212 53 212 53 420 c 0,15,16
 53 546 53 546 88.5 668 c 128,-1,17
 124 790 124 790 193 889 c 128,-1,18
 262 988 262 988 361 1047 c 128,-1,19
 460 1106 460 1106 586 1106 c 0,20,21
 670 1106 670 1106 729 1079 c 128,-1,22
 788 1052 788 1052 825 1007 c 128,-1,23
 862 962 862 962 881 907 c 1,24,-1
 886 907 l 1,25,-1
 982 1490 l 1,26,-1
 1330 1490 l 1,27,-1
 1083 0 l 1,28,-1
 740 0 l 1,29,-1
 769 168 l 1,30,-1
 761 168 l 1,31,32
 728 108 728 108 680.5 66.5 c 128,-1,33
 633 25 633 25 573 2.5 c 128,-1,34
 513 -20 513 -20 440 -20 c 0,12,13
557 254 m 0,35,36
 626 254 626 254 680 289.5 c 128,-1,37
 734 325 734 325 771.5 383 c 128,-1,38
 809 441 809 441 828.5 509 c 128,-1,39
 848 577 848 577 848 643 c 0,40,41
 848 732 848 732 806 782.5 c 128,-1,42
 764 833 764 833 688 833 c 0,43,44
 619 833 619 833 566 796.5 c 128,-1,45
 513 760 513 760 477 701.5 c 128,-1,46
 441 643 441 643 422.5 574 c 128,-1,47
 404 505 404 505 404 439 c 0,48,49
 404 351 404 351 443 302.5 c 128,-1,50
 482 254 482 254 557 254 c 0,35,36
EndSplineSet
EndChar

StartChar: dyogh
Encoding: 676 676 582
Width: 2067
GlyphClass: 2
Flags: W
AnchorPoint: "Anchor-1" 615 1299 basechar 0
AnchorPoint: "Anchor-0" 555 0 basechar 0
LayerCount: 2
Fore
SplineSet
1082 -70 m 1,0,1
 1086 -99 1086 -99 1112.5 -120.5 c 128,-1,2
 1139 -142 1139 -142 1183 -154 c 128,-1,3
 1227 -166 1227 -166 1281 -166 c 0,4,5
 1352 -166 1352 -166 1410.5 -141.5 c 128,-1,6
 1469 -117 1469 -117 1507 -71 c 128,-1,7
 1545 -25 1545 -25 1555 37 c 0,8,9
 1564 94 1564 94 1541 138 c 128,-1,10
 1518 182 1518 182 1465 206 c 128,-1,11
 1412 230 1412 230 1329 230 c 2,12,-1
 1213 230 l 1,13,-1
 1257 498 l 1,14,-1
 1594 793 l 1,15,-1
 1595 798 l 1,16,-1
 1122 798 l 1,17,-1
 1170 1088 l 1,18,-1
 2043 1088 l 1,19,-1
 2001 834 l 1,20,-1
 1528 437 l 1,21,-1
 1527 431 l 1,22,23
 1649 417 1649 417 1729.5 376.5 c 128,-1,24
 1810 336 1810 336 1853.5 277.5 c 128,-1,25
 1897 219 1897 219 1910.5 150.5 c 128,-1,26
 1924 82 1924 82 1912 12 c 0,27,28
 1891 -124 1891 -124 1794 -224.5 c 128,-1,29
 1697 -325 1697 -325 1551.5 -379.5 c 128,-1,30
 1406 -434 1406 -434 1233 -434 c 0,31,32
 1073 -434 1073 -434 960.5 -387.5 c 128,-1,33
 848 -341 848 -341 789.5 -258.5 c 128,-1,34
 731 -176 731 -176 732 -70 c 1,35,-1
 1082 -70 l 1,0,1
440 -20 m 0,36,37
 265 -20 265 -20 159 96 c 128,-1,38
 53 212 53 212 53 420 c 0,39,40
 53 546 53 546 88.5 668 c 128,-1,41
 124 790 124 790 193 889 c 128,-1,42
 262 988 262 988 361 1047 c 128,-1,43
 460 1106 460 1106 586 1106 c 0,44,45
 670 1106 670 1106 729 1079 c 128,-1,46
 788 1052 788 1052 825 1007 c 128,-1,47
 862 962 862 962 881 907 c 1,48,-1
 886 907 l 1,49,-1
 982 1490 l 1,50,-1
 1330 1490 l 1,51,-1
 1083 0 l 1,52,-1
 740 0 l 1,53,-1
 769 168 l 1,54,-1
 761 168 l 1,55,56
 728 108 728 108 680.5 66.5 c 128,-1,57
 633 25 633 25 573 2.5 c 128,-1,58
 513 -20 513 -20 440 -20 c 0,36,37
557 254 m 0,59,60
 626 254 626 254 680 289.5 c 128,-1,61
 734 325 734 325 771.5 383 c 128,-1,62
 809 441 809 441 828.5 509 c 128,-1,63
 848 577 848 577 848 643 c 0,64,65
 848 732 848 732 806 782.5 c 128,-1,66
 764 833 764 833 688 833 c 0,67,68
 619 833 619 833 566 796.5 c 128,-1,69
 513 760 513 760 477 701.5 c 128,-1,70
 441 643 441 643 422.5 574 c 128,-1,71
 404 505 404 505 404 439 c 0,72,73
 404 351 404 351 443 302.5 c 128,-1,74
 482 254 482 254 557 254 c 0,59,60
EndSplineSet
EndChar

StartChar: e
Encoding: 101 101 584
Width: 1196
GlyphClass: 2
Flags: W
AnchorPoint: "Anchor-4" 1104 333 basechar 0
AnchorPoint: "Anchor-3" 537 0 basechar 0
AnchorPoint: "Anchor-1" 715 1087 basechar 0
AnchorPoint: "Anchor-0" 539 0 basechar 0
LayerCount: 2
Fore
SplineSet
547 -24 m 0,0,1
 387 -24 387 -24 273 33 c 128,-1,2
 159 90 159 90 101.5 200 c 128,-1,3
 44 310 44 310 56 469 c 0,4,5
 64 606 64 606 114 722 c 128,-1,6
 164 838 164 838 250.5 924.5 c 128,-1,7
 337 1011 337 1011 452 1059 c 128,-1,8
 567 1107 567 1107 705 1107 c 0,9,10
 828 1107 828 1107 927.5 1069 c 128,-1,11
 1027 1031 1027 1031 1085 956.5 c 128,-1,12
 1143 882 1143 882 1143 771 c 0,13,14
 1143 658 1143 658 1077 590.5 c 128,-1,15
 1011 523 1011 523 884.5 489.5 c 128,-1,16
 758 456 758 456 579 445.5 c 128,-1,17
 400 435 400 435 172 435 c 1,18,-1
 206 640 l 1,19,20
 401 640 401 640 523 646.5 c 128,-1,21
 645 653 645 653 710 666.5 c 128,-1,22
 775 680 775 680 799.5 702.5 c 128,-1,23
 824 725 824 725 824 758 c 0,24,25
 824 804 824 804 784 829.5 c 128,-1,26
 744 855 744 855 670 855 c 0,27,28
 581 855 581 855 527.5 816 c 128,-1,29
 474 777 474 777 445.5 716 c 128,-1,30
 417 655 417 655 406 586.5 c 128,-1,31
 395 518 395 518 392 459 c 0,32,33
 388 393 388 393 399.5 340 c 128,-1,34
 411 287 411 287 452.5 257 c 128,-1,35
 494 227 494 227 573 227 c 0,36,37
 657 227 657 227 712.5 260 c 128,-1,38
 768 293 768 293 789 349 c 1,39,-1
 1104 333 l 1,40,41
 1049 173 1049 173 905 74.5 c 128,-1,42
 761 -24 761 -24 547 -24 c 0,0,1
EndSplineSet
Substitution2: "'sups' Superscript in Latin lookup 39 subtable" e.sups
Substitution2: "'subs' Subscript in Latin lookup 38 subtable" e.subs
Substitution2: "'sinf' Scientific Inferiors in Latin lookup 18 subtable" e.subs
AlternateSubs2: "'aalt' Access All Alternates in Latin lookup 1 subtable" e.sups e.subs
EndChar

StartChar: uni0247
Encoding: 583 583 586
Width: 1196
GlyphClass: 2
Flags: W
AnchorPoint: "Anchor-4" 1104 333 basechar 0
AnchorPoint: "Anchor-3" 537 0 basechar 0
AnchorPoint: "Anchor-1" 715 1087 basechar 0
AnchorPoint: "Anchor-0" 539 0 basechar 0
LayerCount: 2
Fore
SplineSet
58 -418 m 1,0,-1
 1000 1490 l 1,1,-1
 1156 1490 l 1,2,-1
 213 -418 l 1,3,-1
 58 -418 l 1,0,-1
547 -24 m 0,4,5
 387 -24 387 -24 273 33 c 128,-1,6
 159 90 159 90 101.5 200 c 128,-1,7
 44 310 44 310 56 469 c 0,8,9
 64 606 64 606 114 722 c 128,-1,10
 164 838 164 838 250.5 924.5 c 128,-1,11
 337 1011 337 1011 452 1059 c 128,-1,12
 567 1107 567 1107 705 1107 c 0,13,14
 828 1107 828 1107 927.5 1069 c 128,-1,15
 1027 1031 1027 1031 1085 956.5 c 128,-1,16
 1143 882 1143 882 1143 771 c 0,17,18
 1143 658 1143 658 1077 590.5 c 128,-1,19
 1011 523 1011 523 884.5 489.5 c 128,-1,20
 758 456 758 456 579 445.5 c 128,-1,21
 400 435 400 435 172 435 c 1,22,-1
 206 640 l 1,23,24
 401 640 401 640 523 646.5 c 128,-1,25
 645 653 645 653 710 666.5 c 128,-1,26
 775 680 775 680 799.5 702.5 c 128,-1,27
 824 725 824 725 824 758 c 0,28,29
 824 804 824 804 784 829.5 c 128,-1,30
 744 855 744 855 670 855 c 0,31,32
 581 855 581 855 527.5 816 c 128,-1,33
 474 777 474 777 445.5 716 c 128,-1,34
 417 655 417 655 406 586.5 c 128,-1,35
 395 518 395 518 392 459 c 0,36,37
 388 393 388 393 399.5 340 c 128,-1,38
 411 287 411 287 452.5 257 c 128,-1,39
 494 227 494 227 573 227 c 0,40,41
 657 227 657 227 712.5 260 c 128,-1,42
 768 293 768 293 789 349 c 1,43,-1
 1104 333 l 1,44,45
 1049 173 1049 173 905 74.5 c 128,-1,46
 761 -24 761 -24 547 -24 c 0,4,5
EndSplineSet
EndChar

StartChar: eturn
Encoding: 477 477 615
Width: 1196
GlyphClass: 2
Flags: W
AnchorPoint: "Anchor-4" 93 754 basechar 0
AnchorPoint: "Anchor-3" 659 1087 basechar 0
AnchorPoint: "Anchor-1" 672 1087 basechar 0
AnchorPoint: "Anchor-0" 496 5 basechar 0
LayerCount: 2
Fore
SplineSet
649 1111 m 0,0,1
 810 1111 810 1111 924 1054.5 c 128,-1,2
 1038 998 1038 998 1095 888 c 128,-1,3
 1152 778 1152 778 1140 618 c 0,4,5
 1132 482 1132 482 1082 365.5 c 128,-1,6
 1032 249 1032 249 946 163 c 128,-1,7
 860 77 860 77 744.5 28.5 c 128,-1,8
 629 -20 629 -20 491 -20 c 0,9,10
 368 -20 368 -20 268.5 18 c 128,-1,11
 169 56 169 56 111 131.5 c 128,-1,12
 53 207 53 207 53 316 c 0,13,14
 53 429 53 429 119 496.5 c 128,-1,15
 185 564 185 564 311.5 598 c 128,-1,16
 438 632 438 632 617 642.5 c 128,-1,17
 796 653 796 653 1024 653 c 1,18,-1
 990 448 l 1,19,20
 795 448 795 448 673.5 441.5 c 128,-1,21
 552 435 552 435 486.5 421 c 128,-1,22
 421 407 421 407 396.5 384.5 c 128,-1,23
 372 362 372 362 372 329 c 0,24,25
 372 284 372 284 412.5 258 c 128,-1,26
 453 232 453 232 526 232 c 0,27,28
 615 232 615 232 668.5 271 c 128,-1,29
 722 310 722 310 750.5 371.5 c 128,-1,30
 779 433 779 433 790 501.5 c 128,-1,31
 801 570 801 570 804 629 c 0,32,33
 808 696 808 696 796.5 748.5 c 128,-1,34
 785 801 785 801 744 830.5 c 128,-1,35
 703 860 703 860 623 860 c 0,36,37
 539 860 539 860 484 827.5 c 128,-1,38
 429 795 429 795 407 740 c 1,39,-1
 93 754 l 1,40,41
 148 915 148 915 291.5 1013 c 128,-1,42
 435 1111 435 1111 649 1111 c 0,0,1
EndSplineSet
EndChar

StartChar: _part.f_base
Encoding: 1114123 -1 616
Width: 806
GlyphClass: 2
Flags: W
AnchorPoint: "Anchor-1" 640 1516 basechar 0
LayerCount: 2
Fore
SplineSet
-21 -436 m 0,0,1
 -55 -436 -55 -436 -88.5 -435.5 c 128,-1,2
 -122 -435 -122 -435 -151 -433 c 128,-1,3
 -180 -431 -180 -431 -203 -428 c 1,4,-1
 -145 -162 l 1,5,6
 -127 -163 -127 -163 -102 -165 c 128,-1,7
 -77 -167 -77 -167 -54 -167 c 0,8,9
 11 -167 11 -167 44.5 -136.5 c 128,-1,10
 78 -106 78 -106 89 -37 c 2,11,-1
 285 1145 l 2,12,13
 306 1271 306 1271 364.5 1355 c 128,-1,14
 423 1439 423 1439 519.5 1481.5 c 128,-1,15
 616 1524 616 1524 748 1524 c 0,16,17
 804 1524 804 1524 852.5 1522 c 128,-1,18
 901 1520 901 1520 938 1513 c 1,19,-1
 872 1253 l 1,20,21
 853 1255 853 1255 825 1256 c 128,-1,22
 797 1257 797 1257 765 1257 c 0,23,24
 704 1257 704 1257 672.5 1228.5 c 128,-1,25
 641 1200 641 1200 630 1137 c 2,26,-1
 434 -51 l 2,27,28
 413 -179 413 -179 356 -264 c 128,-1,29
 299 -349 299 -349 204.5 -392.5 c 128,-1,30
 110 -436 110 -436 -21 -436 c 0,0,1
EndSplineSet
EndChar

StartChar: f
Encoding: 102 102 617
Width: 837
GlyphClass: 2
Flags: W
AnchorPoint: "Anchor-1" 666 1516 basechar 0
AnchorPoint: "Anchor-0" 294 0 basechar 0
LayerCount: 2
Fore
SplineSet
874 1087 m 1,0,-1
 831 825 l 1,1,-1
 67 825 l 1,2,-1
 110 1087 l 1,3,-1
 874 1087 l 1,0,-1
5 -436 m 0,4,5
 -30 -436 -30 -436 -63 -435.5 c 128,-1,6
 -96 -435 -96 -435 -125.5 -433 c 128,-1,7
 -155 -431 -155 -431 -178 -428 c 1,8,-1
 -120 -162 l 1,9,10
 -100 -163 -100 -163 -75 -165 c 128,-1,11
 -50 -167 -50 -167 -28 -167 c 0,12,13
 37 -167 37 -167 70.5 -136.5 c 128,-1,14
 104 -106 104 -106 116 -37 c 2,15,-1
 310 1145 l 2,16,17
 332 1271 332 1271 391 1355 c 128,-1,18
 450 1439 450 1439 545.5 1481.5 c 128,-1,19
 641 1524 641 1524 774 1524 c 0,20,21
 829 1524 829 1524 878 1522 c 128,-1,22
 927 1520 927 1520 963 1513 c 1,23,-1
 899 1253 l 1,24,25
 878 1255 878 1255 850.5 1256 c 128,-1,26
 823 1257 823 1257 791 1257 c 0,27,28
 730 1257 730 1257 698.5 1228.5 c 128,-1,29
 667 1200 667 1200 657 1137 c 2,30,-1
 459 -51 l 2,31,32
 439 -179 439 -179 381.5 -264 c 128,-1,33
 324 -349 324 -349 230 -392.5 c 128,-1,34
 136 -436 136 -436 5 -436 c 0,4,5
EndSplineSet
Substitution2: "'cv12' Character Variants 12 in Latin lookup 65 subtable" f.1
Substitution2: "'salt' Stylistic Alternatives in Latin lookup 46 subtable" f.1
Substitution2: "'sups' Superscript in Latin lookup 39 subtable" f.sups
Substitution2: "'subs' Subscript in Latin lookup 38 subtable" f.subs
Substitution2: "Single Substitution lookup 36 subtable" f.1
Substitution2: "Single Substitution lookup 35 subtable" f.i.1
Substitution2: "Single Substitution lookup 34 subtable" f.i
Substitution2: "'sinf' Scientific Inferiors in Latin lookup 18 subtable" f.subs
AlternateSubs2: "'aalt' Access All Alternates in Latin lookup 1 subtable" f.sups f.subs
EndChar

StartChar: f.1
Encoding: 60941 60941 618
Width: 731
GlyphClass: 2
Flags: W
AnchorPoint: "Anchor-1" 560 1516 basechar 0
AnchorPoint: "Anchor-0" 188 0 basechar 0
LayerCount: 2
Fore
SplineSet
769 1087 m 1,0,-1
 726 825 l 1,1,-1
 323 825 l 1,2,-1
 366 1087 l 1,3,-1
 769 1087 l 1,0,-1
-100 -436 m 0,4,5
 -135 -436 -135 -436 -168 -435.5 c 128,-1,6
 -201 -435 -201 -435 -230.5 -433 c 128,-1,7
 -260 -431 -260 -431 -283 -428 c 1,8,-1
 -225 -162 l 1,9,10
 -206 -163 -206 -163 -181 -165 c 128,-1,11
 -156 -167 -156 -167 -133 -167 c 0,12,13
 -68 -167 -68 -167 -34.5 -136.5 c 128,-1,14
 -1 -106 -1 -106 10 -37 c 2,15,-1
 206 1145 l 2,16,17
 227 1271 227 1271 285.5 1355 c 128,-1,18
 344 1439 344 1439 440.5 1481.5 c 128,-1,19
 537 1524 537 1524 669 1524 c 0,20,21
 724 1524 724 1524 773 1522 c 128,-1,22
 822 1520 822 1520 858 1513 c 1,23,-1
 793 1253 l 1,24,25
 773 1255 773 1255 745.5 1256 c 128,-1,26
 718 1257 718 1257 685 1257 c 0,27,28
 625 1257 625 1257 593.5 1228.5 c 128,-1,29
 562 1200 562 1200 551 1137 c 2,30,-1
 354 -51 l 2,31,32
 334 -179 334 -179 276.5 -264 c 128,-1,33
 219 -349 219 -349 125.5 -392.5 c 128,-1,34
 32 -436 32 -436 -100 -436 c 0,4,5
EndSplineSet
EndChar

StartChar: f.i
Encoding: 60942 60942 619
Width: 735
GlyphClass: 2
Flags: W
AnchorPoint: "Anchor-1" 639 1516 basechar 0
AnchorPoint: "Anchor-0" 267 0 basechar 0
LayerCount: 2
Fore
SplineSet
-23 -436 m 0,0,1
 -57 -436 -57 -436 -90.5 -435.5 c 128,-1,2
 -124 -435 -124 -435 -153 -433 c 128,-1,3
 -182 -431 -182 -431 -205 -428 c 1,4,-1
 -147 -162 l 1,5,6
 -128 -163 -128 -163 -103 -165 c 128,-1,7
 -78 -167 -78 -167 -56 -167 c 0,8,9
 9 -167 9 -167 42.5 -136.5 c 128,-1,10
 76 -106 76 -106 88 -37 c 2,11,-1
 283 1145 l 2,12,13
 304 1271 304 1271 363 1355 c 128,-1,14
 422 1439 422 1439 518 1481.5 c 128,-1,15
 614 1524 614 1524 746 1524 c 0,16,17
 777 1524 777 1524 805 1524 c 128,-1,18
 833 1524 833 1524 861 1522 c 1,19,-1
 819 1256 l 1,20,21
 803 1257 803 1257 788 1257 c 128,-1,22
 773 1257 773 1257 758 1257 c 0,23,24
 699 1257 699 1257 669.5 1231 c 128,-1,25
 640 1205 640 1205 630 1148 c 2,26,-1
 432 -51 l 2,27,28
 411 -179 411 -179 354 -264 c 128,-1,29
 297 -349 297 -349 202.5 -392.5 c 128,-1,30
 108 -436 108 -436 -23 -436 c 0,0,1
76 826 m 1,31,-1
 119 1087 l 1,32,-1
 1122 1087 l 1,33,-1
 1079 826 l 1,34,-1
 76 826 l 1,31,-1
EndSplineSet
Substitution2: "Single Substitution lookup 35 subtable" f.i.1
EndChar

StartChar: f.i.1
Encoding: 60943 60943 620
Width: 658
GlyphClass: 2
Flags: W
AnchorPoint: "Anchor-1" 560 1516 basechar 0
AnchorPoint: "Anchor-0" 189 0 basechar 0
LayerCount: 2
Fore
SplineSet
-100 -436 m 0,0,1
 -135 -436 -135 -436 -168 -435.5 c 128,-1,2
 -201 -435 -201 -435 -230.5 -433 c 128,-1,3
 -260 -431 -260 -431 -283 -428 c 1,4,-1
 -225 -162 l 1,5,6
 -206 -163 -206 -163 -181 -165 c 128,-1,7
 -156 -167 -156 -167 -133 -167 c 0,8,9
 -68 -167 -68 -167 -34.5 -136.5 c 128,-1,10
 -1 -106 -1 -106 10 -37 c 2,11,-1
 206 1145 l 2,12,13
 227 1271 227 1271 285.5 1355 c 128,-1,14
 344 1439 344 1439 440.5 1481.5 c 128,-1,15
 537 1524 537 1524 669 1524 c 0,16,17
 699 1524 699 1524 727 1524 c 128,-1,18
 755 1524 755 1524 783 1522 c 1,19,-1
 740 1256 l 1,20,21
 725 1257 725 1257 709.5 1257 c 128,-1,22
 694 1257 694 1257 679 1257 c 0,23,24
 622 1257 622 1257 592.5 1231 c 128,-1,25
 563 1205 563 1205 553 1148 c 2,26,-1
 354 -51 l 2,27,28
 334 -179 334 -179 276.5 -264 c 128,-1,29
 219 -349 219 -349 125 -392.5 c 128,-1,30
 31 -436 31 -436 -100 -436 c 0,0,1
320 826 m 1,31,-1
 364 1087 l 1,32,-1
 1045 1087 l 1,33,-1
 1002 826 l 1,34,-1
 320 826 l 1,31,-1
EndSplineSet
EndChar

StartChar: g
Encoding: 103 103 628
Width: 1280
GlyphClass: 2
Flags: W
AnchorPoint: "Anchor-1" 712 1087 basechar 0
AnchorPoint: "Anchor-0" 465 -421 basechar 0
LayerCount: 2
Fore
SplineSet
480 -437 m 0,0,1
 321 -437 321 -437 216 -394.5 c 128,-1,2
 111 -352 111 -352 57.5 -278 c 128,-1,3
 4 -204 4 -204 1 -109 c 1,4,-1
 316 -89 l 1,5,6
 320 -121 320 -121 339 -144 c 128,-1,7
 358 -167 358 -167 394 -180 c 128,-1,8
 430 -193 430 -193 482 -193 c 0,9,10
 591 -193 591 -193 659.5 -136.5 c 128,-1,11
 728 -80 728 -80 745 23 c 2,12,-1
 773 191 l 1,13,-1
 757 191 l 1,14,15
 723 135 723 135 678 94.5 c 128,-1,16
 633 54 633 54 575.5 32.5 c 128,-1,17
 518 11 518 11 444 11 c 0,18,19
 328 11 328 11 240.5 61 c 128,-1,20
 153 111 153 111 104 206 c 128,-1,21
 55 301 55 301 55 435 c 0,22,23
 55 560 55 560 92 679 c 128,-1,24
 129 798 129 798 198 894.5 c 128,-1,25
 267 991 267 991 365.5 1048.5 c 128,-1,26
 464 1106 464 1106 588 1106 c 0,27,28
 650 1106 650 1106 699 1090 c 128,-1,29
 748 1074 748 1074 785 1046.5 c 128,-1,30
 822 1019 822 1019 846.5 983.5 c 128,-1,31
 871 948 871 948 885 908 c 1,32,-1
 891 909 l 1,33,-1
 921 1087 l 1,34,-1
 1264 1087 l 1,35,-1
 1089 31 l 2,36,37
 1063 -132 1063 -132 980 -235.5 c 128,-1,38
 897 -339 897 -339 769 -388 c 128,-1,39
 641 -437 641 -437 480 -437 c 0,0,1
559 275 m 0,40,41
 629 275 629 275 683 308.5 c 128,-1,42
 737 342 737 342 774 397.5 c 128,-1,43
 811 453 811 453 829.5 519 c 128,-1,44
 848 585 848 585 848 650 c 0,45,46
 848 738 848 738 807 787 c 128,-1,47
 766 836 766 836 688 836 c 0,48,49
 621 836 621 836 568 801 c 128,-1,50
 515 766 515 766 479 709 c 128,-1,51
 443 652 443 652 424.5 584.5 c 128,-1,52
 406 517 406 517 406 453 c 0,53,54
 406 366 406 366 445.5 320.5 c 128,-1,55
 485 275 485 275 559 275 c 0,40,41
EndSplineSet
Substitution2: "'smcp' Lowercase to Small Capitals in Latin lookup 68 subtable" g.sc
Substitution2: "'sups' Superscript in Latin lookup 39 subtable" g.sups
Substitution2: "'subs' Subscript in Latin lookup 38 subtable" g.subs
Substitution2: "'sinf' Scientific Inferiors in Latin lookup 18 subtable" g.subs
AlternateSubs2: "'aalt' Access All Alternates in Latin lookup 1 subtable" g.sc g.sups g.subs
EndChar

StartChar: uni0260
Encoding: 608 608 629
Width: 1280
GlyphClass: 2
Flags: W
AnchorPoint: "Anchor-1" 712 1087 basechar 0
AnchorPoint: "Anchor-0" 465 -421 basechar 0
LayerCount: 2
Fore
SplineSet
881 871 m 1,0,-1
 917 1087 l 1,1,-1
 928 1153 l 2,2,3
 958 1324 958 1324 1067.5 1410.5 c 128,-1,4
 1177 1497 1177 1497 1372 1497 c 0,5,6
 1426 1497 1426 1497 1472.5 1495 c 128,-1,7
 1519 1493 1519 1493 1552 1488 c 1,8,-1
 1509 1228 l 1,9,10
 1487 1230 1487 1230 1457 1231 c 128,-1,11
 1427 1232 1427 1232 1396 1232 c 0,12,13
 1339 1232 1339 1232 1310.5 1211.5 c 128,-1,14
 1282 1191 1282 1191 1274 1145 c 2,15,-1
 1264 1087 l 1,16,-1
 1228 871 l 1,17,-1
 881 871 l 1,0,-1
480 -437 m 0,18,19
 321 -437 321 -437 216 -394.5 c 128,-1,20
 111 -352 111 -352 57.5 -278 c 128,-1,21
 4 -204 4 -204 1 -109 c 1,22,-1
 316 -89 l 1,23,24
 320 -121 320 -121 339 -144 c 128,-1,25
 358 -167 358 -167 394 -180 c 128,-1,26
 430 -193 430 -193 482 -193 c 0,27,28
 591 -193 591 -193 659.5 -136.5 c 128,-1,29
 728 -80 728 -80 745 23 c 2,30,-1
 773 191 l 1,31,-1
 757 191 l 1,32,33
 723 135 723 135 678 94.5 c 128,-1,34
 633 54 633 54 575.5 32.5 c 128,-1,35
 518 11 518 11 444 11 c 0,36,37
 328 11 328 11 240.5 61 c 128,-1,38
 153 111 153 111 104 206 c 128,-1,39
 55 301 55 301 55 435 c 0,40,41
 55 560 55 560 92 679 c 128,-1,42
 129 798 129 798 198 894.5 c 128,-1,43
 267 991 267 991 365.5 1048.5 c 128,-1,44
 464 1106 464 1106 588 1106 c 0,45,46
 650 1106 650 1106 699 1090 c 128,-1,47
 748 1074 748 1074 785 1046.5 c 128,-1,48
 822 1019 822 1019 846.5 983.5 c 128,-1,49
 871 948 871 948 885 908 c 1,50,-1
 891 909 l 1,51,-1
 921 1087 l 1,52,-1
 1264 1087 l 1,53,-1
 1089 31 l 2,54,55
 1063 -132 1063 -132 980 -235.5 c 128,-1,56
 897 -339 897 -339 769 -388 c 128,-1,57
 641 -437 641 -437 480 -437 c 0,18,19
559 275 m 0,58,59
 629 275 629 275 683 308.5 c 128,-1,60
 737 342 737 342 774 397.5 c 128,-1,61
 811 453 811 453 829.5 519 c 128,-1,62
 848 585 848 585 848 650 c 0,63,64
 848 738 848 738 807 787 c 128,-1,65
 766 836 766 836 688 836 c 0,66,67
 621 836 621 836 568 801 c 128,-1,68
 515 766 515 766 479 709 c 128,-1,69
 443 652 443 652 424.5 584.5 c 128,-1,70
 406 517 406 517 406 453 c 0,71,72
 406 366 406 366 445.5 320.5 c 128,-1,73
 485 275 485 275 559 275 c 0,58,59
EndSplineSet
Substitution2: "'smcp' Lowercase to Small Capitals in Latin lookup 68 subtable" uni0260.sc
Substitution2: "'c2sc' Capitals to Small Capitals in Latin lookup 67 subtable" uni0260.sc
Substitution2: "'aalt' Access All Alternates in Latin lookup 0 subtable" uni0260.sc
EndChar

StartChar: g.sc
Encoding: 610 610 638
Width: 1155
GlyphClass: 2
Flags: W
AnchorPoint: "Anchor-1" 689 1087 basechar 0
AnchorPoint: "Anchor-0" 507 0 basechar 0
LayerCount: 2
Fore
SplineSet
532 -15 m 0,0,1
 385 -15 385 -15 278 40 c 128,-1,2
 171 95 171 95 113 197 c 128,-1,3
 55 299 55 299 55 440 c 0,4,5
 55 578 55 578 100.5 698 c 128,-1,6
 146 818 146 818 229.5 909 c 128,-1,7
 313 1000 313 1000 428 1051.5 c 128,-1,8
 543 1103 543 1103 681 1103 c 0,9,10
 807 1103 807 1103 912.5 1059 c 128,-1,11
 1018 1015 1018 1015 1079 929 c 128,-1,12
 1140 843 1140 843 1131 719 c 1,13,-1
 791 719 l 1,14,15
 789 753 789 753 775 773 c 128,-1,16
 761 793 761 793 736.5 802.5 c 128,-1,17
 712 812 712 812 676 812 c 0,18,19
 604 812 604 812 550.5 779.5 c 128,-1,20
 497 747 497 747 462.5 692 c 128,-1,21
 428 637 428 637 411.5 572 c 128,-1,22
 395 507 395 507 395 443 c 0,23,24
 395 361 395 361 433.5 318 c 128,-1,25
 472 275 472 275 553 275 c 0,26,27
 616 275 616 275 661.5 292 c 128,-1,28
 707 309 707 309 733.5 338.5 c 128,-1,29
 760 368 760 368 765 402 c 1,30,-1
 822 386 l 1,31,-1
 590 386 l 1,32,-1
 629 624 l 1,33,-1
 1126 624 l 1,34,-1
 1097 445 l 2,35,36
 1072 299 1072 299 993 195.5 c 128,-1,37
 914 92 914 92 795.5 38.5 c 128,-1,38
 677 -15 677 -15 532 -15 c 0,0,1
EndSplineSet
EndChar

StartChar: uni0260.sc
Encoding: 60947 60947 639
Width: 1282
GlyphClass: 2
Flags: W
AnchorPoint: "Anchor-1" 689 1087 basechar 0
AnchorPoint: "Anchor-0" 507 0 basechar 0
LayerCount: 2
Fore
SplineSet
915 719 m 1,0,-1
 918 908 l 2,1,2
 920 1019 920 1019 950.5 1098.5 c 128,-1,3
 981 1178 981 1178 1050 1221 c 128,-1,4
 1119 1264 1119 1264 1231 1264 c 0,5,6
 1274 1264 1274 1264 1311 1261.5 c 128,-1,7
 1348 1259 1348 1259 1382 1254 c 1,8,-1
 1340 996 l 1,9,10
 1318 997 1318 997 1296.5 998 c 128,-1,11
 1275 999 1275 999 1255 999 c 0,12,13
 1198 999 1198 999 1173 966.5 c 128,-1,14
 1148 934 1148 934 1147 854 c 1,15,-1
 1130 719 l 1,16,-1
 915 719 l 1,0,-1
532 -15 m 0,17,18
 385 -15 385 -15 278 40 c 128,-1,19
 171 95 171 95 113 197 c 128,-1,20
 55 299 55 299 55 440 c 0,21,22
 55 578 55 578 100.5 698 c 128,-1,23
 146 818 146 818 229.5 909 c 128,-1,24
 313 1000 313 1000 428 1051.5 c 128,-1,25
 543 1103 543 1103 681 1103 c 0,26,27
 807 1103 807 1103 912.5 1059 c 128,-1,28
 1018 1015 1018 1015 1079 929 c 128,-1,29
 1140 843 1140 843 1131 719 c 1,30,-1
 791 719 l 1,31,32
 789 753 789 753 775 773 c 128,-1,33
 761 793 761 793 736.5 802.5 c 128,-1,34
 712 812 712 812 676 812 c 0,35,36
 604 812 604 812 550.5 779.5 c 128,-1,37
 497 747 497 747 462.5 692 c 128,-1,38
 428 637 428 637 411.5 572 c 128,-1,39
 395 507 395 507 395 443 c 0,40,41
 395 361 395 361 433.5 318 c 128,-1,42
 472 275 472 275 553 275 c 0,43,44
 616 275 616 275 661.5 292 c 128,-1,45
 707 309 707 309 733.5 338.5 c 128,-1,46
 760 368 760 368 765 402 c 1,47,-1
 822 386 l 1,48,-1
 590 386 l 1,49,-1
 629 624 l 1,50,-1
 1126 624 l 1,51,-1
 1097 445 l 2,52,53
 1072 299 1072 299 993 195.5 c 128,-1,54
 914 92 914 92 795.5 38.5 c 128,-1,55
 677 -15 677 -15 532 -15 c 0,17,18
EndSplineSet
EndChar

StartChar: h
Encoding: 104 104 640
Width: 1266
GlyphClass: 2
Flags: W
AnchorPoint: "Anchor-3" 193 0 basechar 0
AnchorPoint: "Anchor-1" 433 1490 basechar 0
AnchorPoint: "Anchor-0" 543 0 basechar 0
LayerCount: 2
Fore
SplineSet
463 606 m 2,0,-1
 362 0 l 1,1,-1
 16 0 l 1,2,-1
 263 1490 l 1,3,-1
 605 1490 l 1,4,-1
 492 805 l 1,5,-1
 453 805 l 1,6,7
 499 897 499 897 556.5 964 c 128,-1,8
 614 1031 614 1031 689.5 1068.5 c 128,-1,9
 765 1106 765 1106 865 1106 c 0,10,11
 981 1106 981 1106 1060 1055 c 128,-1,12
 1139 1004 1139 1004 1172.5 910.5 c 128,-1,13
 1206 817 1206 817 1185 688 c 2,14,-1
 1072 0 l 1,15,-1
 724 0 l 1,16,-1
 827 619 l 2,17,18
 842 713 842 713 804.5 764 c 128,-1,19
 767 815 767 815 682 815 c 0,20,21
 627 815 627 815 581.5 791.5 c 128,-1,22
 536 768 536 768 505.5 721.5 c 128,-1,23
 475 675 475 675 463 606 c 2,0,-1
EndSplineSet
Substitution2: "'smcp' Lowercase to Small Capitals in Latin lookup 68 subtable" h.sc
Substitution2: "'sups' Superscript in Latin lookup 39 subtable" h.sups
Substitution2: "'subs' Subscript in Latin lookup 38 subtable" h.subs
Substitution2: "'sinf' Scientific Inferiors in Latin lookup 18 subtable" h.subs
AlternateSubs2: "'aalt' Access All Alternates in Latin lookup 1 subtable" h.sups h.subs h.sc
EndChar

StartChar: uni0452
Encoding: 1106 1106 643
Width: 1266
GlyphClass: 2
Flags: W
AnchorPoint: "Anchor-3" 193 0 basechar 0
AnchorPoint: "Anchor-1" 433 1490 basechar 0
AnchorPoint: "Anchor-0" 543 0 basechar 0
LayerCount: 2
Fore
SplineSet
620 -427 m 0,0,1
 566 -427 566 -427 518 -424.5 c 128,-1,2
 470 -422 470 -422 437 -417 c 1,3,-1
 480 -159 l 1,4,5
 502 -161 502 -161 532 -161.5 c 128,-1,6
 562 -162 562 -162 594 -162 c 0,7,8
 650 -162 650 -162 677.5 -141.5 c 128,-1,9
 705 -121 705 -121 712 -74 c 2,10,-1
 724 0 l 1,11,-1
 1072 0 l 1,12,-1
 1057 -83 l 2,13,14
 1028 -255 1028 -255 921 -341 c 128,-1,15
 814 -427 814 -427 620 -427 c 0,0,1
463 606 m 2,16,-1
 362 0 l 1,17,-1
 16 0 l 1,18,-1
 263 1490 l 1,19,-1
 605 1490 l 1,20,-1
 492 805 l 1,21,-1
 453 805 l 1,22,23
 499 897 499 897 556.5 964 c 128,-1,24
 614 1031 614 1031 689.5 1068.5 c 128,-1,25
 765 1106 765 1106 865 1106 c 0,26,27
 981 1106 981 1106 1060 1055 c 128,-1,28
 1139 1004 1139 1004 1172.5 910.5 c 128,-1,29
 1206 817 1206 817 1185 688 c 2,30,-1
 1072 0 l 1,31,-1
 724 0 l 1,32,-1
 827 619 l 2,33,34
 842 713 842 713 804.5 764 c 128,-1,35
 767 815 767 815 682 815 c 0,36,37
 627 815 627 815 581.5 791.5 c 128,-1,38
 536 768 536 768 505.5 721.5 c 128,-1,39
 475 675 475 675 463 606 c 2,16,-1
76 1184 m 1,40,-1
 110 1382 l 1,41,-1
 889 1382 l 1,42,-1
 855 1184 l 1,43,-1
 76 1184 l 1,40,-1
EndSplineSet
EndChar

StartChar: uni0266
Encoding: 614 614 644
Width: 1267
GlyphClass: 2
Flags: W
AnchorPoint: "Anchor-1" 723 1087 basechar 0
AnchorPoint: "Anchor-0" 543 0 basechar 0
LayerCount: 2
Fore
SplineSet
160 871 m 1,0,-1
 196 1087 l 1,1,-1
 206 1153 l 2,2,3
 235 1324 235 1324 345.5 1410.5 c 128,-1,4
 456 1497 456 1497 651 1497 c 0,5,6
 705 1497 705 1497 751.5 1495 c 128,-1,7
 798 1493 798 1493 831 1488 c 1,8,-1
 788 1228 l 1,9,10
 766 1230 766 1230 735.5 1231 c 128,-1,11
 705 1232 705 1232 673 1232 c 0,12,13
 618 1232 618 1232 589 1211.5 c 128,-1,14
 560 1191 560 1191 553 1145 c 2,15,-1
 542 1087 l 1,16,-1
 507 871 l 1,17,-1
 160 871 l 1,0,-1
461 595 m 2,18,-1
 362 0 l 1,19,-1
 16 0 l 1,20,-1
 196 1087 l 1,21,-1
 530 1087 l 1,22,-1
 488 805 l 1,23,-1
 452 815 l 1,24,25
 520 952 520 952 619 1029 c 128,-1,26
 718 1106 718 1106 860 1106 c 0,27,28
 982 1106 982 1106 1061 1052 c 128,-1,29
 1140 998 1140 998 1172.5 901.5 c 128,-1,30
 1205 805 1205 805 1184 676 c 2,31,-1
 1072 0 l 1,32,-1
 724 0 l 1,33,-1
 828 630 l 2,34,35
 844 724 844 724 804.5 769.5 c 128,-1,36
 765 815 765 815 688 815 c 0,37,38
 628 815 628 815 581 788.5 c 128,-1,39
 534 762 534 762 503 713 c 128,-1,40
 472 664 472 664 461 595 c 2,18,-1
EndSplineSet
EndChar

StartChar: uni0267
Encoding: 615 615 645
Width: 1267
GlyphClass: 2
Flags: W
AnchorPoint: "Anchor-1" 723 1087 basechar 0
AnchorPoint: "Anchor-0" 543 0 basechar 0
LayerCount: 2
Fore
SplineSet
620 -427 m 0,0,1
 566 -427 566 -427 518 -424.5 c 128,-1,2
 470 -422 470 -422 437 -417 c 1,3,-1
 480 -159 l 1,4,5
 502 -161 502 -161 532 -161.5 c 128,-1,6
 562 -162 562 -162 594 -162 c 0,7,8
 650 -162 650 -162 677.5 -141.5 c 128,-1,9
 705 -121 705 -121 712 -74 c 2,10,-1
 724 0 l 1,11,-1
 1072 0 l 1,12,-1
 1057 -83 l 2,13,14
 1028 -255 1028 -255 921 -341 c 128,-1,15
 814 -427 814 -427 620 -427 c 0,0,1
461 595 m 2,16,-1
 362 0 l 1,17,-1
 16 0 l 1,18,-1
 196 1087 l 1,19,-1
 530 1087 l 1,20,-1
 488 805 l 1,21,-1
 452 815 l 1,22,23
 520 952 520 952 619 1029 c 128,-1,24
 718 1106 718 1106 860 1106 c 0,25,26
 982 1106 982 1106 1061 1052 c 128,-1,27
 1140 998 1140 998 1172.5 901.5 c 128,-1,28
 1205 805 1205 805 1184 676 c 2,29,-1
 1072 0 l 1,30,-1
 724 0 l 1,31,-1
 828 630 l 2,32,33
 844 724 844 724 804.5 769.5 c 128,-1,34
 765 815 765 815 688 815 c 0,35,36
 628 815 628 815 581 788.5 c 128,-1,37
 534 762 534 762 503 713 c 128,-1,38
 472 664 472 664 461 595 c 2,16,-1
160 871 m 1,39,-1
 196 1087 l 1,40,-1
 206 1153 l 2,41,42
 235 1324 235 1324 345.5 1410.5 c 128,-1,43
 456 1497 456 1497 651 1497 c 0,44,45
 705 1497 705 1497 751.5 1495 c 128,-1,46
 798 1493 798 1493 831 1488 c 1,47,-1
 788 1228 l 1,48,49
 766 1230 766 1230 735.5 1231 c 128,-1,50
 705 1232 705 1232 673 1232 c 0,51,52
 618 1232 618 1232 589 1211.5 c 128,-1,53
 560 1191 560 1191 553 1145 c 2,54,-1
 542 1087 l 1,55,-1
 507 871 l 1,56,-1
 160 871 l 1,39,-1
EndSplineSet
EndChar

StartChar: uni0195
Encoding: 405 405 646
Width: 2015
Flags: W
LayerCount: 2
Fore
SplineSet
16 0 m 1,0,-1
 263 1490 l 1,1,-1
 599 1490 l 1,2,-1
 504 913 l 1,3,-1
 517 913 l 1,4,5
 572 1016 572 1016 667 1074 c 128,-1,6
 762 1132 762 1132 888 1132 c 0,7,8
 1005 1132 1005 1132 1083 1080.5 c 128,-1,9
 1161 1029 1161 1029 1194 934.5 c 128,-1,10
 1227 840 1227 840 1206 712 c 2,11,-1
 1181 558 l 1,12,-1
 833 558 l 1,13,-1
 847 645 l 2,14,15
 862 739 862 739 823.5 793 c 128,-1,16
 785 847 785 847 697 846 c 0,17,18
 641 846 641 846 593 822 c 128,-1,19
 545 798 545 798 512.5 751 c 128,-1,20
 480 704 480 704 470 638 c 2,21,-1
 364 0 l 1,22,-1
 16 0 l 1,0,-1
1210 -20 m 0,23,24
 1056 -20 1056 -20 959.5 35 c 128,-1,25
 863 90 863 90 826.5 191.5 c 128,-1,26
 790 293 790 293 813 434 c 2,27,-1
 833 558 l 1,28,-1
 1181 558 l 1,29,-1
 1161 434 l 2,30,31
 1149 374 1149 374 1162 336.5 c 128,-1,32
 1175 299 1175 299 1204 282.5 c 128,-1,33
 1233 266 1233 266 1270 265 c 0,34,35
 1354 266 1354 266 1422 349.5 c 128,-1,36
 1490 433 1490 433 1544.5 597.5 c 128,-1,37
 1599 762 1599 762 1639 1001 c 2,38,-1
 1659 1118 l 1,39,-1
 2005 1118 l 1,40,-1
 1986 1001 l 2,41,42
 1930 662 1930 662 1830.5 435 c 128,-1,43
 1731 208 1731 208 1578 94 c 128,-1,44
 1425 -20 1425 -20 1210 -20 c 0,23,24
EndSplineSet
EndChar

StartChar: hturn
Encoding: 613 613 647
Width: 1266
GlyphClass: 2
Flags: W
AnchorPoint: "Anchor-3" 1075 1087 basechar 0
AnchorPoint: "Anchor-1" 722 1087 basechar 0
AnchorPoint: "Anchor-0" 724 1087 basechar 0
LayerCount: 2
Fore
SplineSet
804 481 m 2,0,-1
 904 1087 l 1,1,-1
 1251 1087 l 1,2,-1
 1004 -403 l 1,3,-1
 661 -403 l 1,4,-1
 775 283 l 1,5,-1
 814 283 l 1,6,7
 769 192 769 192 711 124.5 c 128,-1,8
 653 57 653 57 577.5 19 c 128,-1,9
 502 -19 502 -19 403 -19 c 0,10,11
 287 -19 287 -19 207.5 32.5 c 128,-1,12
 128 84 128 84 94.5 178 c 128,-1,13
 61 272 61 272 82 399 c 2,14,-1
 197 1087 l 1,15,-1
 543 1087 l 1,16,-1
 441 470 l 2,17,18
 425 375 425 375 463.5 323.5 c 128,-1,19
 502 272 502 272 585 272 c 0,20,21
 640 272 640 272 685.5 296 c 128,-1,22
 731 320 731 320 761.5 366.5 c 128,-1,23
 792 413 792 413 804 481 c 2,0,-1
EndSplineSet
EndChar

StartChar: hturnlthook
Encoding: 686 686 648
Width: 1419
Flags: W
LayerCount: 2
Fore
SplineSet
810 -418 m 1,0,-1
 925 283 l 1,1,-1
 965 283 l 1,2,3
 897 146 897 146 793 63.5 c 128,-1,4
 689 -19 689 -19 540 -19 c 0,5,6
 424 -19 424 -19 348 32.5 c 128,-1,7
 272 84 272 84 242.5 178 c 128,-1,8
 213 272 213 272 233 399 c 2,9,-1
 288 734 l 2,10,11
 298 788 298 788 264 808 c 128,-1,12
 230 828 230 828 174 828 c 0,13,14
 160 828 160 828 140.5 827.5 c 128,-1,15
 121 827 121 827 100.5 826.5 c 128,-1,16
 80 826 80 826 66 825 c 1,17,-1
 110 1088 l 1,18,19
 148 1091 148 1091 194.5 1092.5 c 128,-1,20
 241 1094 241 1094 294 1094 c 0,21,22
 383 1094 383 1094 453.5 1076 c 128,-1,23
 524 1058 524 1058 571 1018.5 c 128,-1,24
 618 979 618 979 636 913.5 c 128,-1,25
 654 848 654 848 638 754 c 2,26,-1
 591 470 l 2,27,28
 576 376 576 376 614 324 c 128,-1,29
 652 272 652 272 736 272 c 0,30,31
 792 272 792 272 837 296 c 128,-1,32
 882 320 882 320 913 366.5 c 128,-1,33
 944 413 944 413 955 481 c 2,34,-1
 1055 1087 l 1,35,-1
 1402 1087 l 1,36,-1
 1153 -418 l 1,37,-1
 810 -418 l 1,0,-1
EndSplineSet
EndChar

StartChar: hturnhook2
Encoding: 687 687 649
Width: 1422
Flags: W
LayerCount: 2
Fore
SplineSet
1157 -427 m 0,0,1
 986 -427 986 -427 911 -345.5 c 128,-1,2
 836 -264 836 -264 861 -107 c 2,3,-1
 926 283 l 1,4,-1
 964 283 l 1,5,6
 897 146 897 146 793 63.5 c 128,-1,7
 689 -19 689 -19 540 -19 c 0,8,9
 424 -19 424 -19 348 32.5 c 128,-1,10
 272 84 272 84 242.5 178 c 128,-1,11
 213 272 213 272 233 399 c 2,12,-1
 288 734 l 2,13,14
 298 788 298 788 264 808 c 128,-1,15
 230 828 230 828 174 828 c 0,16,17
 160 828 160 828 140.5 827.5 c 128,-1,18
 121 827 121 827 100.5 826.5 c 128,-1,19
 80 826 80 826 66 825 c 1,20,-1
 110 1088 l 1,21,22
 148 1091 148 1091 194.5 1092.5 c 128,-1,23
 241 1094 241 1094 294 1094 c 0,24,25
 383 1094 383 1094 453.5 1076 c 128,-1,26
 524 1058 524 1058 571 1018.5 c 128,-1,27
 618 979 618 979 636 913.5 c 128,-1,28
 654 848 654 848 638 754 c 2,29,-1
 591 470 l 2,30,31
 576 376 576 376 614 324 c 128,-1,32
 652 272 652 272 736 272 c 0,33,34
 792 272 792 272 837 296 c 128,-1,35
 882 320 882 320 913 366.5 c 128,-1,36
 944 413 944 413 955 481 c 2,37,-1
 1055 1087 l 1,38,-1
 1402 1087 l 1,39,-1
 1208 -86 l 2,40,41
 1201 -128 1201 -128 1221.5 -147 c 128,-1,42
 1242 -166 1242 -166 1292 -166 c 0,43,44
 1324 -166 1324 -166 1359 -165 c 128,-1,45
 1394 -164 1394 -164 1417 -163 c 1,46,-1
 1375 -417 l 1,47,48
 1352 -421 1352 -421 1314.5 -423 c 128,-1,49
 1277 -425 1277 -425 1235.5 -426 c 128,-1,50
 1194 -427 1194 -427 1157 -427 c 0,0,1
EndSplineSet
EndChar

StartChar: dotlessi
Encoding: 305 305 660
Width: 559
GlyphClass: 2
Flags: W
AnchorPoint: "Anchor-4" 363 0 basechar 0
AnchorPoint: "Anchor-1" 370 1087 basechar 0
AnchorPoint: "Anchor-0" 191 0 basechar 0
LayerCount: 2
Fore
SplineSet
17 0 m 1,0,-1
 196 1087 l 1,1,-1
 543 1087 l 1,2,-1
 363 0 l 1,3,-1
 17 0 l 1,0,-1
EndSplineSet
EndChar

StartChar: uni0237
Encoding: 567 567 682
Width: 559
GlyphClass: 2
Flags: W
AnchorPoint: "Anchor-1" 370 1087 basechar 0
AnchorPoint: "Anchor-0" 63 -412 basechar 0
LayerCount: 2
Fore
SplineSet
197 1087 m 1,0,-1
 543 1087 l 1,1,-1
 355 -56 l 2,2,3
 334 -182 334 -182 271 -262 c 128,-1,4
 208 -342 208 -342 108 -380 c 128,-1,5
 8 -418 8 -418 -125 -418 c 2,6,-1
 -228 -418 l 1,7,-1
 -184 -152 l 1,8,-1
 -127 -152 l 2,9,10
 -62 -152 -62 -152 -30.5 -124 c 128,-1,11
 1 -96 1 -96 11 -36 c 2,12,-1
 197 1087 l 1,0,-1
EndSplineSet
EndChar

StartChar: i.sc
Encoding: 60950 60950 689
Width: 749
GlyphClass: 2
Flags: W
AnchorPoint: "Anchor-4" 624 0 basechar 0
AnchorPoint: "Anchor-1" 464 1087 basechar 0
AnchorPoint: "Anchor-0" 284 0 basechar 0
LayerCount: 2
Fore
SplineSet
-56 0 m 1,0,-1
 -10 274 l 1,1,-1
 157 274 l 1,2,-1
 246 814 l 1,3,-1
 79 814 l 1,4,-1
 124 1087 l 1,5,-1
 805 1087 l 1,6,-1
 759 814 l 1,7,-1
 592 814 l 1,8,-1
 503 274 l 1,9,-1
 669 274 l 1,10,-1
 624 0 l 1,11,-1
 -56 0 l 1,0,-1
EndSplineSet
EndChar

StartChar: jcrosstail.ccmp
Encoding: 57423 57423 691
Width: 1015
GlyphClass: 2
Flags: W
AnchorPoint: "Anchor-4" 759 0 basechar 0
AnchorPoint: "Anchor-1" 765 1087 basechar 0
AnchorPoint: "Anchor-0" 526 -460 basechar 0
LayerCount: 2
Fore
SplineSet
263 -436 m 0,0,1
 131 -436 131 -436 52.5 -400 c 128,-1,2
 -26 -364 -26 -364 -56.5 -300 c 128,-1,3
 -87 -236 -87 -236 -75 -152 c 0,4,5
 -62 -68 -62 -68 -11 -5 c 128,-1,6
 40 58 40 58 125.5 94 c 128,-1,7
 211 130 211 130 328 130 c 2,8,-1
 1064 130 l 1,9,-1
 1028 -95 l 1,10,-1
 327 -95 l 2,11,12
 288 -96 288 -96 253.5 -109 c 128,-1,13
 219 -122 219 -122 212 -164 c 0,14,15
 205 -203 205 -203 230 -217 c 128,-1,16
 255 -231 255 -231 293 -232 c 0,17,18
 346 -231 346 -231 365 -200 c 128,-1,19
 384 -169 384 -169 392 -124 c 2,20,-1
 433 126 l 1,21,-1
 779 126 l 1,22,-1
 752 -37 l 2,23,24
 740 -111 740 -111 709 -182.5 c 128,-1,25
 678 -254 678 -254 622 -311.5 c 128,-1,26
 566 -369 566 -369 478 -402.5 c 128,-1,27
 390 -436 390 -436 263 -436 c 0,0,1
412 0 m 1,28,-1
 592 1087 l 1,29,-1
 939 1087 l 1,30,-1
 759 0 l 1,31,-1
 412 0 l 1,28,-1
EndSplineSet
EndChar

StartChar: k
Encoding: 107 107 698
Width: 1188
GlyphClass: 2
Flags: W
AnchorPoint: "Anchor-1" 436 1490 basechar 0
AnchorPoint: "Anchor-0" 517 0 basechar 0
LayerCount: 2
Fore
SplineSet
375 285 m 1,0,-1
 444 697 l 1,1,-1
 488 697 l 1,2,-1
 874 1087 l 1,3,-1
 1269 1087 l 1,4,-1
 710 529 l 1,5,-1
 620 529 l 1,6,-1
 375 285 l 1,0,-1
16 0 m 1,7,-1
 263 1490 l 1,8,-1
 609 1490 l 1,9,-1
 362 0 l 1,10,-1
 16 0 l 1,7,-1
706 0 m 1,11,-1
 485 452 l 1,12,-1
 753 696 l 1,13,-1
 1107 0 l 1,14,-1
 706 0 l 1,11,-1
EndSplineSet
Substitution2: "'sups' Superscript in Latin lookup 39 subtable" k.sups
Substitution2: "'subs' Subscript in Latin lookup 38 subtable" k.subs
Substitution2: "'sinf' Scientific Inferiors in Latin lookup 18 subtable" k.subs
AlternateSubs2: "'aalt' Access All Alternates in Latin lookup 1 subtable" k.sups k.subs
EndChar

StartChar: uni0199
Encoding: 409 409 699
Width: 1189
GlyphClass: 2
Flags: W
AnchorPoint: "Anchor-1" 370 1087 basechar 0
AnchorPoint: "Anchor-0" 517 0 basechar 0
LayerCount: 2
Fore
SplineSet
160 871 m 1,0,-1
 197 1087 l 1,1,-1
 207 1153 l 2,2,3
 236 1324 236 1324 346 1410.5 c 128,-1,4
 456 1497 456 1497 651 1497 c 0,5,6
 706 1497 706 1497 752.5 1495 c 128,-1,7
 799 1493 799 1493 831 1488 c 1,8,-1
 789 1228 l 1,9,10
 766 1230 766 1230 736 1231 c 128,-1,11
 706 1232 706 1232 674 1232 c 0,12,13
 618 1232 618 1232 589.5 1211.5 c 128,-1,14
 561 1191 561 1191 553 1145 c 2,15,-1
 543 1087 l 1,16,-1
 507 871 l 1,17,-1
 160 871 l 1,0,-1
376 285 m 1,18,-1
 444 697 l 1,19,-1
 488 697 l 1,20,-1
 874 1087 l 1,21,-1
 1270 1087 l 1,22,-1
 711 529 l 1,23,-1
 621 529 l 1,24,-1
 376 285 l 1,18,-1
17 0 m 1,25,-1
 197 1087 l 1,26,-1
 543 1087 l 1,27,-1
 363 0 l 1,28,-1
 17 0 l 1,25,-1
707 0 m 1,29,-1
 485 452 l 1,30,-1
 754 696 l 1,31,-1
 1107 0 l 1,32,-1
 707 0 l 1,29,-1
EndSplineSet
EndChar

StartChar: kturn
Encoding: 670 670 705
Width: 1188
GlyphClass: 2
Flags: W
AnchorPoint: "Anchor-1" 677 1087 basechar 0
AnchorPoint: "Anchor-0" 673 1087 basechar 0
LayerCount: 2
Fore
SplineSet
813 802 m 1,0,-1
 745 390 l 1,1,-1
 701 390 l 1,2,-1
 317 0 l 1,3,-1
 -81 0 l 1,4,-1
 478 559 l 1,5,-1
 568 559 l 1,6,-1
 813 802 l 1,0,-1
1173 1087 m 1,7,-1
 926 -403 l 1,8,-1
 579 -403 l 1,9,-1
 826 1087 l 1,10,-1
 1173 1087 l 1,7,-1
483 1087 m 1,11,-1
 704 636 l 1,12,-1
 436 391 l 1,13,-1
 83 1087 l 1,14,-1
 483 1087 l 1,11,-1
EndSplineSet
EndChar

StartChar: k.base
Encoding: 60951 60951 706
Width: 1189
GlyphClass: 2
Flags: W
AnchorPoint: "Anchor-1" 369 1087 basechar 0
AnchorPoint: "Anchor-0" 517 0 basechar 0
LayerCount: 2
Fore
SplineSet
376 285 m 1,0,-1
 445 697 l 1,1,-1
 489 697 l 1,2,-1
 874 1087 l 1,3,-1
 1270 1087 l 1,4,-1
 711 529 l 1,5,-1
 621 529 l 1,6,-1
 376 285 l 1,0,-1
17 0 m 1,7,-1
 197 1087 l 1,8,-1
 543 1087 l 1,9,-1
 363 0 l 1,10,-1
 17 0 l 1,7,-1
707 0 m 1,11,-1
 486 452 l 1,12,-1
 753 696 l 1,13,-1
 1107 0 l 1,14,-1
 707 0 l 1,11,-1
EndSplineSet
EndChar

StartChar: l
Encoding: 1114124 -1 707
Width: 559
GlyphClass: 2
Flags: W
AnchorPoint: "Anchor-1" 436 1490 basechar 0
AnchorPoint: "Anchor-0" 188 0 basechar 0
LayerCount: 2
Fore
SplineSet
609 1490 m 1,0,-1
 362 0 l 1,1,-1
 16 0 l 1,2,-1
 263 1490 l 1,3,-1
 609 1490 l 1,0,-1
EndSplineSet
Substitution2: "'smcp' Lowercase to Small Capitals in Latin lookup 68 subtable" l.sc
Substitution2: "'c2sc' Capitals to Small Capitals in Latin lookup 67 subtable" l.sc
Substitution2: "'cv05' Character Variants 05 in Latin lookup 59 subtable" l.ss02
Substitution2: "'ss04' Style Set 4 in Latin lookup 50 subtable" l.ss02
Substitution2: "'ss02' Style Set 2 in Latin lookup 48 subtable" l.ss02
Substitution2: "'salt' Stylistic Alternatives in Latin lookup 46 subtable" l.ss02
Substitution2: "'sups' Superscript in Latin lookup 39 subtable" l.sups
Substitution2: "'subs' Subscript in Latin lookup 38 subtable" l.subs
Substitution2: "'sinf' Scientific Inferiors in Latin lookup 18 subtable" l.subs
AlternateSubs2: "'aalt' Access All Alternates in Latin lookup 1 subtable" l.sc l.sups l.subs
EndChar

StartChar: lrthook
Encoding: 621 621 711
Width: 559
GlyphClass: 2
Flags: W
AnchorPoint: "Anchor-1" 436 1490 basechar 0
AnchorPoint: "Anchor-0" 188 0 basechar 0
LayerCount: 2
Fore
SplineSet
328 -427 m 0,0,1
 135 -427 135 -427 54 -341 c 128,-1,2
 -27 -255 -27 -255 3 -83 c 2,3,-1
 16 0 l 1,4,-1
 362 0 l 1,5,-1
 350 -74 l 2,6,7
 343 -120 343 -120 363.5 -141 c 128,-1,8
 384 -162 384 -162 439 -162 c 0,9,10
 472 -162 472 -162 502 -161.5 c 128,-1,11
 532 -161 532 -161 554 -159 c 1,12,-1
 511 -417 l 1,13,14
 477 -422 477 -422 430 -424.5 c 128,-1,15
 383 -427 383 -427 328 -427 c 0,0,1
609 1490 m 1,16,-1
 362 0 l 1,17,-1
 16 0 l 1,18,-1
 263 1490 l 1,19,-1
 609 1490 l 1,16,-1
EndSplineSet
EndChar

StartChar: uni026C
Encoding: 1114128 -1 712
Width: 1059
Flags: W
LayerCount: 2
Fore
SplineSet
1044 537 m 1,0,-1
 365 537 l 2,1,2
 249 537 249 537 178.5 573.5 c 128,-1,3
 108 610 108 610 81 673.5 c 128,-1,4
 54 737 54 737 67 818 c 0,5,6
 80 903 80 903 134 974 c 128,-1,7
 188 1045 188 1045 281 1088.5 c 128,-1,8
 374 1132 374 1132 506 1132 c 0,9,10
 628 1132 628 1132 703 1095.5 c 128,-1,11
 778 1059 778 1059 815 997.5 c 128,-1,12
 852 936 852 936 859 857.5 c 128,-1,13
 866 779 866 779 853 695 c 2,14,-1
 807 415 l 1,15,-1
 459 415 l 1,16,-1
 519 785 l 2,17,18
 528 836 528 836 515.5 865 c 128,-1,19
 503 894 503 894 461 894 c 0,20,21
 435 894 435 894 412.5 884.5 c 128,-1,22
 390 875 390 875 375.5 860 c 128,-1,23
 361 845 361 845 358 826 c 0,24,25
 354 802 354 802 372.5 781 c 128,-1,26
 391 760 391 760 436 760 c 2,27,-1
 1080 760 l 1,28,-1
 1044 537 l 1,0,-1
985 1490 m 1,29,-1
 738 0 l 1,30,-1
 390 0 l 1,31,-1
 636 1490 l 1,32,-1
 985 1490 l 1,29,-1
EndSplineSet
Substitution2: "'cv05' Character Variants 05 in Latin lookup 59 subtable" uni026C.ss02
Substitution2: "'ss04' Style Set 4 in Latin lookup 50 subtable" uni026C.ss02
Substitution2: "'ss02' Style Set 2 in Latin lookup 48 subtable" uni026C.ss02
Substitution2: "'salt' Stylistic Alternatives in Latin lookup 46 subtable" uni026C.ss02
EndChar

StartChar: uni0234
Encoding: 564 564 713
Width: 879
GlyphClass: 2
Flags: W
AnchorPoint: "Anchor-1" 436 1490 basechar 0
AnchorPoint: "Anchor-0" 188 0 basechar 0
LayerCount: 2
Fore
SplineSet
382 -418 m 0,0,1
 230 -418 230 -418 141 -373.5 c 128,-1,2
 52 -329 52 -329 21 -243 c 128,-1,3
 -10 -157 -10 -157 10 -34 c 2,4,-1
 50 204 l 1,5,-1
 396 204 l 1,6,-1
 342 -122 l 2,7,8
 334 -169 334 -169 358.5 -193 c 128,-1,9
 383 -217 383 -217 425 -217 c 0,10,11
 462 -217 462 -217 490 -198 c 128,-1,12
 518 -179 518 -179 524 -146 c 0,13,14
 529 -113 529 -113 508.5 -92 c 128,-1,15
 488 -71 488 -71 438 -69 c 0,16,17
 409 -68 409 -68 374.5 -76.5 c 128,-1,18
 340 -85 340 -85 290.5 -111 c 128,-1,19
 241 -137 241 -137 164 -186 c 2,20,-1
 -181 -419 l 1,21,-1
 -302 -221 l 1,22,-1
 47 10 l 2,23,24
 133 67 133 67 240 108.5 c 128,-1,25
 347 150 347 150 460 150 c 0,26,27
 649 150 649 150 741.5 61.5 c 128,-1,28
 834 -27 834 -27 812 -159 c 0,29,30
 792 -284 792 -284 681.5 -351 c 128,-1,31
 571 -418 571 -418 382 -418 c 0,0,1
609 1490 m 1,32,-1
 362 0 l 1,33,-1
 16 0 l 1,34,-1
 263 1490 l 1,35,-1
 609 1490 l 1,32,-1
EndSplineSet
EndChar

StartChar: l.ss02
Encoding: 57424 57424 722
AltUni2: 00006c.ffffffff.0
Width: 628
GlyphClass: 2
Flags: W
AnchorPoint: "Anchor-1" 436 1490 basechar 0
AnchorPoint: "Anchor-0" 247 0 basechar 0
LayerCount: 2
Fore
SplineSet
384 -3 m 0,0,1
 191 -3 191 -3 115.5 71 c 128,-1,2
 40 145 40 145 67 306 c 2,3,-1
 264 1490 l 1,4,-1
 610 1490 l 1,5,-1
 419 343 l 2,6,7
 412 300 412 300 428 280 c 128,-1,8
 444 260 444 260 487 260 c 0,9,10
 502 260 502 260 515 260.5 c 128,-1,11
 528 261 528 261 536 263 c 1,12,-1
 520 11 l 1,13,14
 496 6 496 6 460.5 1.5 c 128,-1,15
 425 -3 425 -3 384 -3 c 0,0,1
EndSplineSet
EndChar

StartChar: uni026C.ss02
Encoding: 57428 57428 726
AltUni2: 00026c.ffffffff.0
Width: 1045
GlyphClass: 2
Flags: W
AnchorPoint: "Anchor-1" 815 1490 basechar 0
AnchorPoint: "Anchor-0" 626 0 basechar 0
LayerCount: 2
Fore
SplineSet
385 545 m 2,0,1
 220 545 220 545 134.5 633.5 c 128,-1,2
 49 722 49 722 74 867 c 0,3,4
 89 959 89 959 140 1030 c 128,-1,5
 191 1101 191 1101 265.5 1141 c 128,-1,6
 340 1181 340 1181 424 1181 c 0,7,8
 530 1181 530 1181 580.5 1121 c 128,-1,9
 631 1061 631 1061 640.5 961.5 c 128,-1,10
 650 862 650 862 630 744 c 2,11,-1
 619 677 l 1,12,-1
 507 677 l 1,13,-1
 532 833 l 2,14,15
 540 877 540 877 518.5 909.5 c 128,-1,16
 497 942 497 942 450 942 c 0,17,18
 416 942 416 942 392 922 c 128,-1,19
 368 902 368 902 362 869 c 0,20,21
 356 837 356 837 377.5 815 c 128,-1,22
 399 793 399 793 441 793 c 2,23,-1
 1044 799 l 1,24,-1
 1003 545 l 1,25,-1
 385 545 l 2,0,1
763 -3 m 0,26,27
 570 -3 570 -3 494.5 71 c 128,-1,28
 419 145 419 145 446 306 c 2,29,-1
 643 1490 l 1,30,-1
 989 1490 l 1,31,-1
 798 343 l 2,32,33
 791 300 791 300 807 280 c 128,-1,34
 823 260 823 260 866 260 c 0,35,36
 881 260 881 260 894 260.5 c 128,-1,37
 907 261 907 261 915 263 c 1,38,-1
 899 11 l 1,39,40
 875 6 875 6 839.5 1.5 c 128,-1,41
 804 -3 804 -3 763 -3 c 0,26,27
EndSplineSet
EndChar

StartChar: l.sc
Encoding: 60952 60952 736
Width: 853
GlyphClass: 2
Flags: W
AnchorPoint: "Anchor-1" 312 1087 basechar 0
AnchorPoint: "Anchor-0" 344 0 basechar 0
LayerCount: 2
Fore
SplineSet
-40 0 m 1,0,-1
 140 1087 l 1,1,-1
 487 1087 l 1,2,-1
 353 285 l 1,3,-1
 791 285 l 1,4,-1
 744 0 l 1,5,-1
 -40 0 l 1,0,-1
EndSplineSet
EndChar

StartChar: m
Encoding: 109 109 737
Width: 1873
GlyphClass: 2
Flags: W
AnchorPoint: "Anchor-1" 1027 1087 basechar 0
AnchorPoint: "Anchor-0" 847 0 basechar 0
LayerCount: 2
Fore
SplineSet
16 0 m 1,0,-1
 196 1087 l 1,1,-1
 522 1087 l 1,2,-1
 489 819 l 1,3,-1
 467 830 l 1,4,5
 509 931 509 931 569 991 c 128,-1,6
 629 1051 629 1051 698 1078.5 c 128,-1,7
 767 1106 767 1106 837 1106 c 0,8,9
 922 1106 922 1106 983.5 1070.5 c 128,-1,10
 1045 1035 1045 1035 1079.5 966.5 c 128,-1,11
 1114 898 1114 898 1116 795 c 1,12,-1
 1084 819 l 1,13,14
 1123 921 1123 921 1186.5 984 c 128,-1,15
 1250 1047 1250 1047 1328 1076.5 c 128,-1,16
 1406 1106 1406 1106 1486 1106 c 0,17,18
 1595 1106 1595 1106 1671.5 1058 c 128,-1,19
 1748 1010 1748 1010 1782 923 c 128,-1,20
 1816 836 1816 836 1797 717 c 2,21,-1
 1678 0 l 1,22,-1
 1332 0 l 1,23,-1
 1441 662 l 2,24,25
 1450 719 1450 719 1438.5 754.5 c 128,-1,26
 1427 790 1427 790 1398.5 807 c 128,-1,27
 1370 824 1370 824 1328 824 c 0,28,29
 1275 824 1275 824 1230 799 c 128,-1,30
 1185 774 1185 774 1156.5 731.5 c 128,-1,31
 1128 689 1128 689 1119 635 c 2,32,-1
 1014 0 l 1,33,-1
 681 0 l 1,34,-1
 791 667 l 2,35,36
 804 745 804 745 773 784.5 c 128,-1,37
 742 824 742 824 679 824 c 0,38,39
 628 824 628 824 583 799.5 c 128,-1,40
 538 775 538 775 507.5 731 c 128,-1,41
 477 687 477 687 467 629 c 2,42,-1
 362 0 l 1,43,-1
 16 0 l 1,0,-1
EndSplineSet
Substitution2: "'smcp' Lowercase to Small Capitals in Latin lookup 68 subtable" m.sc
Substitution2: "'c2sc' Capitals to Small Capitals in Latin lookup 67 subtable" m.sc
Substitution2: "'sups' Superscript in Latin lookup 39 subtable" m.sups
Substitution2: "'subs' Subscript in Latin lookup 38 subtable" m.subs
Substitution2: "'sinf' Scientific Inferiors in Latin lookup 18 subtable" m.subs
AlternateSubs2: "'aalt' Access All Alternates in Latin lookup 1 subtable" m.sups m.subs m.sc
EndChar

StartChar: uni0271
Encoding: 625 625 738
Width: 1873
GlyphClass: 2
Flags: W
AnchorPoint: "Anchor-1" 1027 1087 basechar 0
AnchorPoint: "Anchor-0" 847 0 basechar 0
LayerCount: 2
Fore
SplineSet
1228 -427 m 0,0,1
 1173 -427 1173 -427 1125 -424.5 c 128,-1,2
 1077 -422 1077 -422 1045 -417 c 1,3,-1
 1087 -159 l 1,4,5
 1108 -161 1108 -161 1139 -161.5 c 128,-1,6
 1170 -162 1170 -162 1201 -162 c 0,7,8
 1258 -162 1258 -162 1284.5 -141.5 c 128,-1,9
 1311 -121 1311 -121 1319 -74 c 2,10,-1
 1332 0 l 1,11,-1
 1678 0 l 1,12,-1
 1665 -83 l 2,13,14
 1636 -255 1636 -255 1529 -341 c 128,-1,15
 1422 -427 1422 -427 1228 -427 c 0,0,1
16 0 m 1,16,-1
 196 1087 l 1,17,-1
 522 1087 l 1,18,-1
 489 819 l 1,19,-1
 467 830 l 1,20,21
 509 931 509 931 569 991 c 128,-1,22
 629 1051 629 1051 698 1078.5 c 128,-1,23
 767 1106 767 1106 837 1106 c 0,24,25
 922 1106 922 1106 983.5 1070.5 c 128,-1,26
 1045 1035 1045 1035 1079.5 966.5 c 128,-1,27
 1114 898 1114 898 1116 795 c 1,28,-1
 1084 819 l 1,29,30
 1123 921 1123 921 1186.5 984 c 128,-1,31
 1250 1047 1250 1047 1328 1076.5 c 128,-1,32
 1406 1106 1406 1106 1486 1106 c 0,33,34
 1595 1106 1595 1106 1671.5 1058 c 128,-1,35
 1748 1010 1748 1010 1782 923 c 128,-1,36
 1816 836 1816 836 1797 717 c 2,37,-1
 1678 0 l 1,38,-1
 1332 0 l 1,39,-1
 1441 662 l 2,40,41
 1450 719 1450 719 1438.5 754.5 c 128,-1,42
 1427 790 1427 790 1398.5 807 c 128,-1,43
 1370 824 1370 824 1328 824 c 0,44,45
 1275 824 1275 824 1230 799 c 128,-1,46
 1185 774 1185 774 1156.5 731.5 c 128,-1,47
 1128 689 1128 689 1119 635 c 2,48,-1
 1014 0 l 1,49,-1
 681 0 l 1,50,-1
 791 667 l 2,51,52
 804 745 804 745 773 784.5 c 128,-1,53
 742 824 742 824 679 824 c 0,54,55
 628 824 628 824 583 799.5 c 128,-1,56
 538 775 538 775 507.5 731 c 128,-1,57
 477 687 477 687 467 629 c 2,58,-1
 362 0 l 1,59,-1
 16 0 l 1,16,-1
EndSplineSet
EndChar

StartChar: mturn
Encoding: 623 623 739
Width: 1873
GlyphClass: 2
Flags: W
AnchorPoint: "Anchor-1" 1027 1087 basechar 0
AnchorPoint: "Anchor-0" 847 0 basechar 0
LayerCount: 2
Fore
SplineSet
1858 1087 m 1,0,-1
 1678 0 l 1,1,-1
 1352 0 l 1,2,-1
 1384 268 l 1,3,-1
 1407 257 l 1,4,5
 1364 157 1364 157 1304.5 96.5 c 128,-1,6
 1245 36 1245 36 1176.5 8.5 c 128,-1,7
 1108 -19 1108 -19 1037 -19 c 0,8,9
 952 -19 952 -19 891 16.5 c 128,-1,10
 830 52 830 52 795.5 121.5 c 128,-1,11
 761 191 761 191 758 292 c 1,12,-1
 790 270 l 1,13,14
 751 168 751 168 687 104.5 c 128,-1,15
 623 41 623 41 545.5 11 c 128,-1,16
 468 -19 468 -19 388 -19 c 0,17,18
 279 -19 279 -19 202.5 29.5 c 128,-1,19
 126 78 126 78 92 165.5 c 128,-1,20
 58 253 58 253 78 370 c 2,21,-1
 196 1087 l 1,22,-1
 543 1087 l 1,23,-1
 433 425 l 2,24,25
 424 369 424 369 435.5 333.5 c 128,-1,26
 447 298 447 298 476 280.5 c 128,-1,27
 505 263 505 263 546 263 c 0,28,29
 600 263 600 263 644 288 c 128,-1,30
 688 313 688 313 717 356 c 128,-1,31
 746 399 746 399 756 452 c 2,32,-1
 861 1087 l 1,33,-1
 1194 1087 l 1,34,-1
 1083 421 l 2,35,36
 1070 343 1070 343 1100.5 303 c 128,-1,37
 1131 263 1131 263 1194 263 c 0,38,39
 1246 263 1246 263 1291 288 c 128,-1,40
 1336 313 1336 313 1367 356.5 c 128,-1,41
 1398 400 1398 400 1408 460 c 2,42,-1
 1511 1087 l 1,43,-1
 1858 1087 l 1,0,-1
EndSplineSet
EndChar

StartChar: mturndescend
Encoding: 624 624 740
Width: 1873
GlyphClass: 2
Flags: W
AnchorPoint: "Anchor-1" 1027 1087 basechar 0
AnchorPoint: "Anchor-0" 847 0 basechar 0
LayerCount: 2
Fore
SplineSet
1276 -418 m 1,0,-1
 1345 0 l 1,1,-1
 1676 0 l 1,2,-1
 1607 -418 l 1,3,-1
 1276 -418 l 1,0,-1
1858 1087 m 1,4,-1
 1678 0 l 1,5,-1
 1352 0 l 1,6,-1
 1384 268 l 1,7,-1
 1407 257 l 1,8,9
 1364 157 1364 157 1304.5 96.5 c 128,-1,10
 1245 36 1245 36 1176.5 8.5 c 128,-1,11
 1108 -19 1108 -19 1037 -19 c 0,12,13
 952 -19 952 -19 891 16.5 c 128,-1,14
 830 52 830 52 795.5 121.5 c 128,-1,15
 761 191 761 191 758 292 c 1,16,-1
 790 270 l 1,17,18
 751 168 751 168 687 104.5 c 128,-1,19
 623 41 623 41 545.5 11 c 128,-1,20
 468 -19 468 -19 388 -19 c 0,21,22
 279 -19 279 -19 202.5 29.5 c 128,-1,23
 126 78 126 78 92 165.5 c 128,-1,24
 58 253 58 253 78 370 c 2,25,-1
 196 1087 l 1,26,-1
 543 1087 l 1,27,-1
 433 425 l 2,28,29
 424 369 424 369 435.5 333.5 c 128,-1,30
 447 298 447 298 476 280.5 c 128,-1,31
 505 263 505 263 546 263 c 0,32,33
 600 263 600 263 644 288 c 128,-1,34
 688 313 688 313 717 356 c 128,-1,35
 746 399 746 399 756 452 c 2,36,-1
 861 1087 l 1,37,-1
 1194 1087 l 1,38,-1
 1083 421 l 2,39,40
 1070 343 1070 343 1100.5 303 c 128,-1,41
 1131 263 1131 263 1194 263 c 0,42,43
 1246 263 1246 263 1291 288 c 128,-1,44
 1336 313 1336 313 1367 356.5 c 128,-1,45
 1398 400 1398 400 1408 460 c 2,46,-1
 1511 1087 l 1,47,-1
 1858 1087 l 1,4,-1
EndSplineSet
EndChar

StartChar: n
Encoding: 110 110 744
Width: 1267
GlyphClass: 2
Flags: W
AnchorPoint: "Anchor-1" 723 1087 basechar 0
AnchorPoint: "Anchor-0" 543 0 basechar 0
LayerCount: 2
Fore
SplineSet
461 595 m 2,0,-1
 362 0 l 1,1,-1
 16 0 l 1,2,-1
 196 1087 l 1,3,-1
 530 1087 l 1,4,-1
 488 805 l 1,5,-1
 452 815 l 1,6,7
 520 952 520 952 619 1029 c 128,-1,8
 718 1106 718 1106 860 1106 c 0,9,10
 982 1106 982 1106 1061 1052 c 128,-1,11
 1140 998 1140 998 1172.5 901.5 c 128,-1,12
 1205 805 1205 805 1184 676 c 2,13,-1
 1072 0 l 1,14,-1
 724 0 l 1,15,-1
 828 630 l 2,16,17
 844 724 844 724 804.5 769.5 c 128,-1,18
 765 815 765 815 688 815 c 0,19,20
 628 815 628 815 581 788.5 c 128,-1,21
 534 762 534 762 503 713 c 128,-1,22
 472 664 472 664 461 595 c 2,0,-1
EndSplineSet
Substitution2: "'smcp' Lowercase to Small Capitals in Latin lookup 68 subtable" n.sc
Substitution2: "'c2sc' Capitals to Small Capitals in Latin lookup 67 subtable" n.sc
Substitution2: "'sups' Superscript in Latin lookup 39 subtable" n.sups
Substitution2: "'subs' Subscript in Latin lookup 38 subtable" n.subs
Substitution2: "'numr' Numerators in Latin lookup 19 subtable" n.numr
Substitution2: "'sinf' Scientific Inferiors in Latin lookup 18 subtable" n.subs
AlternateSubs2: "'aalt' Access All Alternates in Latin lookup 1 subtable" n.sc n.numr n.sups n.subs
EndChar

StartChar: nrthook
Encoding: 627 627 746
Width: 1267
GlyphClass: 2
Flags: W
AnchorPoint: "Anchor-1" 723 1087 basechar 0
AnchorPoint: "Anchor-0" 543 0 basechar 0
LayerCount: 2
Fore
SplineSet
1036 -427 m 0,0,1
 842 -427 842 -427 762.5 -341 c 128,-1,2
 683 -255 683 -255 710 -83 c 2,3,-1
 724 0 l 1,4,-1
 1072 0 l 1,5,-1
 1059 -74 l 2,6,7
 1051 -120 1051 -120 1071.5 -141 c 128,-1,8
 1092 -162 1092 -162 1148 -162 c 0,9,10
 1179 -162 1179 -162 1209.5 -161.5 c 128,-1,11
 1240 -161 1240 -161 1263 -159 c 1,12,-1
 1220 -417 l 1,13,14
 1185 -422 1185 -422 1138 -424.5 c 128,-1,15
 1091 -427 1091 -427 1036 -427 c 0,0,1
461 595 m 2,16,-1
 362 0 l 1,17,-1
 16 0 l 1,18,-1
 196 1087 l 1,19,-1
 530 1087 l 1,20,-1
 488 805 l 1,21,-1
 452 815 l 1,22,23
 520 952 520 952 619 1029 c 128,-1,24
 718 1106 718 1106 860 1106 c 0,25,26
 982 1106 982 1106 1061 1052 c 128,-1,27
 1140 998 1140 998 1172.5 901.5 c 128,-1,28
 1205 805 1205 805 1184 676 c 2,29,-1
 1072 0 l 1,30,-1
 724 0 l 1,31,-1
 828 630 l 2,32,33
 844 724 844 724 804.5 769.5 c 128,-1,34
 765 815 765 815 688 815 c 0,35,36
 628 815 628 815 581 788.5 c 128,-1,37
 534 762 534 762 503 713 c 128,-1,38
 472 664 472 664 461 595 c 2,16,-1
EndSplineSet
EndChar

StartChar: eng
Encoding: 331 331 747
Width: 1267
GlyphClass: 2
Flags: W
AnchorPoint: "Anchor-1" 723 1087 basechar 0
AnchorPoint: "Anchor-0" 543 0 basechar 0
LayerCount: 2
Fore
SplineSet
450 -417 m 1,0,-1
 495 -147 l 1,1,2
 521 -150 521 -150 545 -150.5 c 128,-1,3
 569 -151 569 -151 596 -151 c 0,4,5
 652 -151 652 -151 679 -130.5 c 128,-1,6
 706 -110 706 -110 714 -63 c 2,7,-1
 724 0 l 1,8,-1
 1072 0 l 1,9,-1
 1057 -83 l 2,10,11
 1028 -255 1028 -255 919 -341 c 128,-1,12
 810 -427 810 -427 616 -427 c 0,13,14
 562 -427 562 -427 522.5 -424.5 c 128,-1,15
 483 -422 483 -422 450 -417 c 1,0,-1
461 595 m 2,16,-1
 362 0 l 1,17,-1
 16 0 l 1,18,-1
 196 1087 l 1,19,-1
 530 1087 l 1,20,-1
 488 805 l 1,21,-1
 452 815 l 1,22,23
 520 952 520 952 619 1029 c 128,-1,24
 718 1106 718 1106 860 1106 c 0,25,26
 982 1106 982 1106 1061 1052 c 128,-1,27
 1140 998 1140 998 1172.5 901.5 c 128,-1,28
 1205 805 1205 805 1184 676 c 2,29,-1
 1072 0 l 1,30,-1
 724 0 l 1,31,-1
 828 630 l 2,32,33
 844 724 844 724 804.5 769.5 c 128,-1,34
 765 815 765 815 688 815 c 0,35,36
 628 815 628 815 581 788.5 c 128,-1,37
 534 762 534 762 503 713 c 128,-1,38
 472 664 472 664 461 595 c 2,16,-1
EndSplineSet
EndChar

StartChar: uni0235
Encoding: 565 565 748
Width: 1587
GlyphClass: 2
Flags: W
AnchorPoint: "Anchor-1" 723 1087 basechar 0
AnchorPoint: "Anchor-0" 543 0 basechar 0
LayerCount: 2
Fore
SplineSet
1091 -418 m 0,0,1
 939 -418 939 -418 850 -373.5 c 128,-1,2
 761 -329 761 -329 730 -243 c 128,-1,3
 699 -157 699 -157 719 -34 c 2,4,-1
 758 204 l 1,5,-1
 1105 204 l 1,6,-1
 1051 -122 l 2,7,8
 1043 -169 1043 -169 1067.5 -193 c 128,-1,9
 1092 -217 1092 -217 1134 -217 c 0,10,11
 1171 -217 1171 -217 1199 -198 c 128,-1,12
 1227 -179 1227 -179 1231 -146 c 0,13,14
 1238 -113 1238 -113 1216.5 -92 c 128,-1,15
 1195 -71 1195 -71 1147 -69 c 0,16,17
 1116 -68 1116 -68 1082 -76.5 c 128,-1,18
 1048 -85 1048 -85 998.5 -111 c 128,-1,19
 949 -137 949 -137 873 -186 c 2,20,-1
 527 -419 l 1,21,-1
 407 -221 l 1,22,-1
 756 10 l 2,23,24
 840 67 840 67 947 108.5 c 128,-1,25
 1054 150 1054 150 1169 150 c 0,26,27
 1356 150 1356 150 1449.5 61.5 c 128,-1,28
 1543 -27 1543 -27 1521 -159 c 0,29,30
 1501 -284 1501 -284 1390.5 -351 c 128,-1,31
 1280 -418 1280 -418 1091 -418 c 0,0,1
461 595 m 2,32,-1
 362 0 l 1,33,-1
 16 0 l 1,34,-1
 196 1087 l 1,35,-1
 530 1087 l 1,36,-1
 488 805 l 1,37,-1
 452 815 l 1,38,39
 520 952 520 952 619 1029 c 128,-1,40
 718 1106 718 1106 860 1106 c 0,41,42
 982 1106 982 1106 1061 1052 c 128,-1,43
 1140 998 1140 998 1172.5 901.5 c 128,-1,44
 1205 805 1205 805 1184 676 c 2,45,-1
 1072 0 l 1,46,-1
 724 0 l 1,47,-1
 828 630 l 2,48,49
 844 724 844 724 804.5 769.5 c 128,-1,50
 765 815 765 815 688 815 c 0,51,52
 628 815 628 815 581 788.5 c 128,-1,53
 534 762 534 762 503 713 c 128,-1,54
 472 664 472 664 461 595 c 2,32,-1
EndSplineSet
EndChar

StartChar: nlfthook
Encoding: 626 626 749
Width: 1267
GlyphClass: 2
Flags: W
AnchorPoint: "Anchor-1" 723 1087 basechar 0
AnchorPoint: "Anchor-0" 543 0 basechar 0
LayerCount: 2
Fore
SplineSet
-88 -427 m 0,0,1
 -142 -427 -142 -427 -190 -424.5 c 128,-1,2
 -238 -422 -238 -422 -271 -417 c 1,3,-1
 -228 -159 l 1,4,5
 -206 -161 -206 -161 -176 -161.5 c 128,-1,6
 -146 -162 -146 -162 -114 -162 c 0,7,8
 -58 -162 -58 -162 -31 -141.5 c 128,-1,9
 -4 -121 -4 -121 3 -74 c 2,10,-1
 16 0 l 1,11,-1
 363 0 l 1,12,-1
 349 -83 l 2,13,14
 320 -255 320 -255 213 -341 c 128,-1,15
 106 -427 106 -427 -88 -427 c 0,0,1
461 595 m 2,16,-1
 362 0 l 1,17,-1
 16 0 l 1,18,-1
 196 1087 l 1,19,-1
 530 1087 l 1,20,-1
 488 805 l 1,21,-1
 452 815 l 1,22,23
 520 952 520 952 619 1029 c 128,-1,24
 718 1106 718 1106 860 1106 c 0,25,26
 982 1106 982 1106 1061 1052 c 128,-1,27
 1140 998 1140 998 1172.5 901.5 c 128,-1,28
 1205 805 1205 805 1184 676 c 2,29,-1
 1072 0 l 1,30,-1
 724 0 l 1,31,-1
 828 630 l 2,32,33
 844 724 844 724 804.5 769.5 c 128,-1,34
 765 815 765 815 688 815 c 0,35,36
 628 815 628 815 581 788.5 c 128,-1,37
 534 762 534 762 503 713 c 128,-1,38
 472 664 472 664 461 595 c 2,16,-1
EndSplineSet
EndChar

StartChar: n.sc
Encoding: 60953 60953 760
Width: 1293
GlyphClass: 2
Flags: W
AnchorPoint: "Anchor-1" 737 1087 basechar 0
AnchorPoint: "Anchor-0" 557 0 basechar 0
LayerCount: 2
Fore
SplineSet
17 0 m 1,0,-1
 197 1087 l 1,1,-1
 527 1087 l 1,2,-1
 721 700 l 2,3,4
 770 601 770 601 805.5 515 c 128,-1,5
 841 429 841 429 872 349 c 1,6,-1
 826 349 l 1,7,8
 835 408 835 408 843 462 c 128,-1,9
 851 516 851 516 859.5 574 c 128,-1,10
 868 632 868 632 880 700 c 2,11,-1
 944 1087 l 1,12,-1
 1278 1087 l 1,13,-1
 1098 0 l 1,14,-1
 768 0 l 1,15,-1
 573 390 l 2,16,17
 525 487 525 487 489.5 573 c 128,-1,18
 454 659 454 659 423 739 c 1,19,-1
 468 739 l 1,20,21
 460 682 460 682 452 628 c 128,-1,22
 444 574 444 574 435.5 516 c 128,-1,23
 427 458 427 458 414 390 c 2,24,-1
 350 0 l 1,25,-1
 17 0 l 1,0,-1
EndSplineSet
EndChar

StartChar: o
Encoding: 111 111 761
Width: 1241
GlyphClass: 2
Flags: W
AnchorPoint: "Anchor-4" 1180 541 basechar 0
AnchorPoint: "Anchor-1" 711 1087 basechar 0
AnchorPoint: "Anchor-0" 531 0 basechar 0
LayerCount: 2
Fore
SplineSet
546 -22 m 0,0,1
 392 -22 392 -22 282.5 35.5 c 128,-1,2
 173 93 173 93 114 197 c 128,-1,3
 55 301 55 301 55 442 c 0,4,5
 55 578 55 578 100 698.5 c 128,-1,6
 145 819 145 819 229 910.5 c 128,-1,7
 313 1002 313 1002 431.5 1054 c 128,-1,8
 550 1106 550 1106 696 1106 c 0,9,10
 850 1106 850 1106 959.5 1049 c 128,-1,11
 1069 992 1069 992 1128 887.5 c 128,-1,12
 1187 783 1187 783 1187 641 c 0,13,14
 1187 509 1187 509 1143.5 389.5 c 128,-1,15
 1100 270 1100 270 1016.5 177 c 128,-1,16
 933 84 933 84 814.5 31 c 128,-1,17
 696 -22 696 -22 546 -22 c 0,0,1
563 249 m 0,18,19
 634 249 634 249 686 287 c 128,-1,20
 738 325 738 325 772.5 386 c 128,-1,21
 807 447 807 447 823 517 c 128,-1,22
 839 587 839 587 839 649 c 0,23,24
 839 709 839 709 819 750.5 c 128,-1,25
 799 792 799 792 763 814.5 c 128,-1,26
 727 837 727 837 679 837 c 0,27,28
 608 837 608 837 555.5 798.5 c 128,-1,29
 503 760 503 760 469.5 699.5 c 128,-1,30
 436 639 436 639 419.5 569.5 c 128,-1,31
 403 500 403 500 403 436 c 0,32,33
 403 347 403 347 447 298 c 128,-1,34
 491 249 491 249 563 249 c 0,18,19
EndSplineSet
Substitution2: "Single Substitution lookup 44 subtable" ordmasculine
Substitution2: "'sups' Superscript in Latin lookup 39 subtable" o.sups
Substitution2: "'subs' Subscript in Latin lookup 38 subtable" o.subs
Substitution2: "'sinf' Scientific Inferiors in Latin lookup 18 subtable" o.subs
AlternateSubs2: "'aalt' Access All Alternates in Latin lookup 1 subtable" ordmasculine o.sups o.subs
EndChar

StartChar: ohorn
Encoding: 417 417 765
Width: 1241
GlyphClass: 2
Flags: W
AnchorPoint: "Anchor-4" 1180 541 basechar 0
AnchorPoint: "Anchor-1" 711 1087 basechar 0
AnchorPoint: "Anchor-0" 531 0 basechar 0
LayerCount: 2
Fore
SplineSet
677 891 m 1,0,-1
 713 1106 l 1,1,2
 752 1106 752 1106 785 1103.5 c 128,-1,3
 818 1101 818 1101 849 1097 c 128,-1,4
 880 1093 880 1093 910 1091 c 128,-1,5
 940 1089 940 1089 971 1089 c 0,6,7
 1004 1089 1004 1089 1008 1117 c 2,8,-1
 1041 1311 l 1,9,-1
 1338 1311 l 1,10,-1
 1300 1091 l 2,11,12
 1289 1019 1289 1019 1246.5 975 c 128,-1,13
 1204 931 1204 931 1143.5 910 c 128,-1,14
 1083 889 1083 889 1015 889 c 0,15,16
 931 889 931 889 846.5 890 c 128,-1,17
 762 891 762 891 677 891 c 1,0,-1
546 -22 m 0,18,19
 392 -22 392 -22 282.5 35.5 c 128,-1,20
 173 93 173 93 114 197 c 128,-1,21
 55 301 55 301 55 442 c 0,22,23
 55 578 55 578 100 698.5 c 128,-1,24
 145 819 145 819 229 910.5 c 128,-1,25
 313 1002 313 1002 431.5 1054 c 128,-1,26
 550 1106 550 1106 696 1106 c 0,27,28
 850 1106 850 1106 959.5 1049 c 128,-1,29
 1069 992 1069 992 1128 887.5 c 128,-1,30
 1187 783 1187 783 1187 641 c 0,31,32
 1187 509 1187 509 1143.5 389.5 c 128,-1,33
 1100 270 1100 270 1016.5 177 c 128,-1,34
 933 84 933 84 814.5 31 c 128,-1,35
 696 -22 696 -22 546 -22 c 0,18,19
563 249 m 0,36,37
 634 249 634 249 686 287 c 128,-1,38
 738 325 738 325 772.5 386 c 128,-1,39
 807 447 807 447 823 517 c 128,-1,40
 839 587 839 587 839 649 c 0,41,42
 839 709 839 709 819 750.5 c 128,-1,43
 799 792 799 792 763 814.5 c 128,-1,44
 727 837 727 837 679 837 c 0,45,46
 608 837 608 837 555.5 798.5 c 128,-1,47
 503 760 503 760 469.5 699.5 c 128,-1,48
 436 639 436 639 419.5 569.5 c 128,-1,49
 403 500 403 500 403 436 c 0,50,51
 403 347 403 347 447 298 c 128,-1,52
 491 249 491 249 563 249 c 0,36,37
EndSplineSet
EndChar

StartChar: uni1EE1
Encoding: 7905 7905 795
Width: 1241
GlyphClass: 2
Flags: W
AnchorPoint: "Anchor-4" 1180 541 basechar 0
AnchorPoint: "Anchor-1" 773 1496 basechar 0
AnchorPoint: "Anchor-0" 531 0 basechar 0
LayerCount: 2
Fore
SplineSet
546 -22 m 0,0,1
 392 -22 392 -22 282.5 35.5 c 128,-1,2
 173 93 173 93 114 197 c 128,-1,3
 55 301 55 301 55 442 c 0,4,5
 55 578 55 578 100 698.5 c 128,-1,6
 145 819 145 819 229 910.5 c 128,-1,7
 313 1002 313 1002 431.5 1054 c 128,-1,8
 550 1106 550 1106 696 1106 c 0,9,10
 850 1106 850 1106 959.5 1049 c 128,-1,11
 1069 992 1069 992 1128 887.5 c 128,-1,12
 1187 783 1187 783 1187 641 c 0,13,14
 1187 509 1187 509 1143.5 389.5 c 128,-1,15
 1100 270 1100 270 1016.5 177 c 128,-1,16
 933 84 933 84 814.5 31 c 128,-1,17
 696 -22 696 -22 546 -22 c 0,0,1
563 249 m 0,18,19
 634 249 634 249 686 287 c 128,-1,20
 738 325 738 325 772.5 386 c 128,-1,21
 807 447 807 447 823 517 c 128,-1,22
 839 587 839 587 839 649 c 0,23,24
 839 709 839 709 819 750.5 c 128,-1,25
 799 792 799 792 763 814.5 c 128,-1,26
 727 837 727 837 679 837 c 0,27,28
 608 837 608 837 555.5 798.5 c 128,-1,29
 503 760 503 760 469.5 699.5 c 128,-1,30
 436 639 436 639 419.5 569.5 c 128,-1,31
 403 500 403 500 403 436 c 0,32,33
 403 347 403 347 447 298 c 128,-1,34
 491 249 491 249 563 249 c 0,18,19
677 891 m 1,35,-1
 713 1106 l 1,36,37
 752 1106 752 1106 785 1103.5 c 128,-1,38
 818 1101 818 1101 849 1097 c 128,-1,39
 880 1093 880 1093 910 1091 c 128,-1,40
 940 1089 940 1089 971 1089 c 0,41,42
 1004 1089 1004 1089 1008 1117 c 2,43,-1
 1041 1311 l 1,44,-1
 1338 1311 l 1,45,-1
 1300 1091 l 2,46,47
 1289 1019 1289 1019 1246.5 975 c 128,-1,48
 1204 931 1204 931 1143.5 910 c 128,-1,49
 1083 889 1083 889 1015 889 c 0,50,51
 931 889 931 889 846.5 890 c 128,-1,52
 762 891 762 891 677 891 c 1,35,-1
847 1267 m 0,53,54
 807 1267 807 1267 779.5 1280.5 c 128,-1,55
 752 1294 752 1294 731.5 1311.5 c 128,-1,56
 711 1329 711 1329 693.5 1342 c 128,-1,57
 676 1355 676 1355 657 1355 c 0,58,59
 632 1355 632 1355 615 1333 c 128,-1,60
 598 1311 598 1311 591 1273 c 1,61,-1
 454 1273 l 1,62,63
 474 1384 474 1384 531 1442 c 128,-1,64
 588 1500 588 1500 662 1500 c 0,65,66
 701 1500 701 1500 728 1486.5 c 128,-1,67
 755 1473 755 1473 775.5 1456 c 128,-1,68
 796 1439 796 1439 813.5 1426 c 128,-1,69
 831 1413 831 1413 851 1413 c 0,70,71
 880 1413 880 1413 895.5 1434 c 128,-1,72
 911 1455 911 1455 919 1495 c 1,73,-1
 1054 1495 l 1,74,75
 1034 1385 1034 1385 976.5 1326 c 128,-1,76
 919 1267 919 1267 847 1267 c 0,53,54
EndSplineSet
Ligature2: "'ccmp' Glyph Composition/Decomposition in Latin lookup 6 subtable" ohorn tildecomb
EndChar

StartChar: obar
Encoding: 629 629 808
Width: 1241
GlyphClass: 2
Flags: W
AnchorPoint: "Anchor-4" 1180 541 basechar 0
AnchorPoint: "Anchor-1" 711 1087 basechar 0
AnchorPoint: "Anchor-0" 531 0 basechar 0
LayerCount: 2
Fore
SplineSet
987 622 m 1,0,-1
 960 466 l 1,1,-1
 253 466 l 1,2,-1
 280 622 l 1,3,-1
 987 622 l 1,0,-1
546 -22 m 0,4,5
 392 -22 392 -22 282.5 35.5 c 128,-1,6
 173 93 173 93 114 197 c 128,-1,7
 55 301 55 301 55 442 c 0,8,9
 55 578 55 578 100 698.5 c 128,-1,10
 145 819 145 819 229 910.5 c 128,-1,11
 313 1002 313 1002 431.5 1054 c 128,-1,12
 550 1106 550 1106 696 1106 c 0,13,14
 850 1106 850 1106 959.5 1049 c 128,-1,15
 1069 992 1069 992 1128 887.5 c 128,-1,16
 1187 783 1187 783 1187 641 c 0,17,18
 1187 509 1187 509 1143.5 389.5 c 128,-1,19
 1100 270 1100 270 1016.5 177 c 128,-1,20
 933 84 933 84 814.5 31 c 128,-1,21
 696 -22 696 -22 546 -22 c 0,4,5
563 249 m 0,22,23
 634 249 634 249 686 287 c 128,-1,24
 738 325 738 325 772.5 386 c 128,-1,25
 807 447 807 447 823 517 c 128,-1,26
 839 587 839 587 839 649 c 0,27,28
 839 709 839 709 819 750.5 c 128,-1,29
 799 792 799 792 763 814.5 c 128,-1,30
 727 837 727 837 679 837 c 0,31,32
 608 837 608 837 555.5 798.5 c 128,-1,33
 503 760 503 760 469.5 699.5 c 128,-1,34
 436 639 436 639 419.5 569.5 c 128,-1,35
 403 500 403 500 403 436 c 0,36,37
 403 347 403 347 447 298 c 128,-1,38
 491 249 491 249 563 249 c 0,22,23
EndSplineSet
EndChar

StartChar: oe.sc
Encoding: 60954 60954 812
Width: 1629
GlyphClass: 2
Flags: W
AnchorPoint: "Anchor-4" 1502 0 basechar 0
AnchorPoint: "Anchor-3" 1080 0 basechar 0
AnchorPoint: "Anchor-1" 1260 1087 basechar 0
AnchorPoint: "Anchor-0" 1080 0 basechar 0
LayerCount: 2
Fore
SplineSet
656 0 m 1,0,-1
 836 1087 l 1,1,-1
 1685 1087 l 1,2,-1
 1638 803 l 1,3,-1
 1135 803 l 1,4,-1
 1116 684 l 1,5,-1
 1577 684 l 1,6,-1
 1531 408 l 1,7,-1
 1069 408 l 1,8,-1
 1049 285 l 1,9,-1
 1548 285 l 1,10,-1
 1502 0 l 1,11,-1
 656 0 l 1,0,-1
512 0 m 2,12,13
 356 0 356 0 244 61.5 c 128,-1,14
 132 123 132 123 82.5 244 c 128,-1,15
 33 365 33 365 62 542 c 0,16,17
 91 720 91 720 181.5 841 c 128,-1,18
 272 962 272 962 405 1024.5 c 128,-1,19
 538 1087 538 1087 696 1087 c 2,20,-1
 1004 1087 l 1,21,-1
 958 806 l 1,22,-1
 659 806 l 2,23,24
 594 806 594 806 544.5 783 c 128,-1,25
 495 760 495 760 462 702.5 c 128,-1,26
 429 645 429 645 412 542 c 0,27,28
 397 440 397 440 409.5 384 c 128,-1,29
 422 328 422 328 462.5 305.5 c 128,-1,30
 503 283 503 283 567 283 c 2,31,-1
 869 283 l 1,32,-1
 821 0 l 1,33,-1
 512 0 l 2,12,13
EndSplineSet
EndChar

StartChar: p
Encoding: 112 112 814
Width: 1278
GlyphClass: 2
Flags: W
AnchorPoint: "Anchor-1" 767 1087 basechar 0
AnchorPoint: "Anchor-0" 121 -411 basechar 0
LayerCount: 2
Fore
SplineSet
-53 -418 m 1,0,-1
 196 1087 l 1,1,-1
 538 1087 l 1,2,-1
 510 923 l 1,3,-1
 515 923 l 1,4,5
 550 978 550 978 598 1019 c 128,-1,6
 646 1060 646 1060 707 1083 c 128,-1,7
 768 1106 768 1106 842 1106 c 0,8,9
 955 1106 955 1106 1040.5 1054.5 c 128,-1,10
 1126 1003 1126 1003 1175.5 904.5 c 128,-1,11
 1225 806 1225 806 1225 664 c 0,12,13
 1225 547 1225 547 1191.5 426 c 128,-1,14
 1158 305 1158 305 1091 204.5 c 128,-1,15
 1024 104 1024 104 923.5 42 c 128,-1,16
 823 -20 823 -20 689 -20 c 0,17,18
 607 -20 607 -20 548 7.5 c 128,-1,19
 489 35 489 35 451.5 80 c 128,-1,20
 414 125 414 125 399 180 c 1,21,-1
 392 180 l 1,22,-1
 293 -418 l 1,23,-1
 -53 -418 l 1,0,-1
590 254 m 0,24,25
 662 254 662 254 715.5 292.5 c 128,-1,26
 769 331 769 331 804.5 390.5 c 128,-1,27
 840 450 840 450 857 519 c 128,-1,28
 874 588 874 588 874 649 c 0,29,30
 874 736 874 736 836 784.5 c 128,-1,31
 798 833 798 833 722 833 c 0,32,33
 653 833 653 833 598.5 798 c 128,-1,34
 544 763 544 763 506.5 705.5 c 128,-1,35
 469 648 469 648 450 580 c 128,-1,36
 431 512 431 512 431 446 c 0,37,38
 431 357 431 357 472.5 305.5 c 128,-1,39
 514 254 514 254 590 254 c 0,24,25
EndSplineSet
Substitution2: "'sups' Superscript in Latin lookup 39 subtable" p.sups
Substitution2: "'subs' Subscript in Latin lookup 38 subtable" p.subs
Substitution2: "'sinf' Scientific Inferiors in Latin lookup 18 subtable" p.subs
AlternateSubs2: "'aalt' Access All Alternates in Latin lookup 1 subtable" p.sups p.subs
EndChar

StartChar: uni048F
Encoding: 1167 1167 815
Width: 1233
GlyphClass: 2
Flags: W
AnchorPoint: "Anchor-1" 775 1087 basechar 0
AnchorPoint: "Anchor-0" 129 -411 basechar 0
LayerCount: 2
Fore
SplineSet
701 482 m 1,0,-1
 1032 -18 l 1,1,-1
 913 -98 l 1,2,-1
 585 403 l 1,3,-1
 701 482 l 1,0,-1
-46 -418 m 1,4,-1
 203 1087 l 1,5,-1
 546 1087 l 1,6,-1
 518 923 l 1,7,-1
 523 923 l 1,8,9
 557 978 557 978 605.5 1019 c 128,-1,10
 654 1060 654 1060 715 1083 c 128,-1,11
 776 1106 776 1106 850 1106 c 0,12,13
 962 1106 962 1106 1048 1054.5 c 128,-1,14
 1134 1003 1134 1003 1183.5 904.5 c 128,-1,15
 1233 806 1233 806 1233 664 c 0,16,17
 1233 547 1233 547 1199 426 c 128,-1,18
 1165 305 1165 305 1098 204.5 c 128,-1,19
 1031 104 1031 104 930.5 42 c 128,-1,20
 830 -20 830 -20 697 -20 c 0,21,22
 615 -20 615 -20 556 7.5 c 128,-1,23
 497 35 497 35 459.5 80 c 128,-1,24
 422 125 422 125 406 180 c 1,25,-1
 400 180 l 1,26,-1
 301 -418 l 1,27,-1
 -46 -418 l 1,4,-1
598 254 m 0,28,29
 670 254 670 254 723.5 292.5 c 128,-1,30
 777 331 777 331 812.5 390.5 c 128,-1,31
 848 450 848 450 864.5 519 c 128,-1,32
 881 588 881 588 881 649 c 0,33,34
 881 736 881 736 843 784.5 c 128,-1,35
 805 833 805 833 730 833 c 0,36,37
 660 833 660 833 606 798 c 128,-1,38
 552 763 552 763 514.5 705.5 c 128,-1,39
 477 648 477 648 458 580 c 128,-1,40
 439 512 439 512 439 446 c 0,41,42
 439 357 439 357 480.5 305.5 c 128,-1,43
 522 254 522 254 598 254 c 0,28,29
EndSplineSet
EndChar

StartChar: uni01A5
Encoding: 421 421 816
Width: 1278
GlyphClass: 2
Flags: W
AnchorPoint: "Anchor-1" 767 1087 basechar 0
AnchorPoint: "Anchor-0" 121 -411 basechar 0
LayerCount: 2
Fore
SplineSet
160 871 m 1,0,-1
 196 1087 l 1,1,-1
 206 1153 l 2,2,3
 235 1324 235 1324 345.5 1410.5 c 128,-1,4
 456 1497 456 1497 651 1497 c 0,5,6
 705 1497 705 1497 751.5 1495 c 128,-1,7
 798 1493 798 1493 831 1488 c 1,8,-1
 788 1228 l 1,9,10
 766 1230 766 1230 735.5 1231 c 128,-1,11
 705 1232 705 1232 673 1232 c 0,12,13
 618 1232 618 1232 589 1211.5 c 128,-1,14
 560 1191 560 1191 553 1145 c 2,15,-1
 542 1087 l 1,16,-1
 507 871 l 1,17,-1
 160 871 l 1,0,-1
-53 -418 m 1,18,-1
 196 1087 l 1,19,-1
 538 1087 l 1,20,-1
 510 923 l 1,21,-1
 515 923 l 1,22,23
 550 978 550 978 598 1019 c 128,-1,24
 646 1060 646 1060 707 1083 c 128,-1,25
 768 1106 768 1106 842 1106 c 0,26,27
 955 1106 955 1106 1040.5 1054.5 c 128,-1,28
 1126 1003 1126 1003 1175.5 904.5 c 128,-1,29
 1225 806 1225 806 1225 664 c 0,30,31
 1225 547 1225 547 1191.5 426 c 128,-1,32
 1158 305 1158 305 1091 204.5 c 128,-1,33
 1024 104 1024 104 923.5 42 c 128,-1,34
 823 -20 823 -20 689 -20 c 0,35,36
 607 -20 607 -20 548 7.5 c 128,-1,37
 489 35 489 35 451.5 80 c 128,-1,38
 414 125 414 125 399 180 c 1,39,-1
 392 180 l 1,40,-1
 293 -418 l 1,41,-1
 -53 -418 l 1,18,-1
590 254 m 0,42,43
 662 254 662 254 715.5 292.5 c 128,-1,44
 769 331 769 331 804.5 390.5 c 128,-1,45
 840 450 840 450 857 519 c 128,-1,46
 874 588 874 588 874 649 c 0,47,48
 874 736 874 736 836 784.5 c 128,-1,49
 798 833 798 833 722 833 c 0,50,51
 653 833 653 833 598.5 798 c 128,-1,52
 544 763 544 763 506.5 705.5 c 128,-1,53
 469 648 469 648 450 580 c 128,-1,54
 431 512 431 512 431 446 c 0,55,56
 431 357 431 357 472.5 305.5 c 128,-1,57
 514 254 514 254 590 254 c 0,42,43
EndSplineSet
EndChar

StartChar: q
Encoding: 113 113 820
Width: 1278
GlyphClass: 2
Flags: W
AnchorPoint: "Anchor-1" 730 1087 basechar 0
AnchorPoint: "Anchor-0" 840 -411 basechar 0
LayerCount: 2
Fore
SplineSet
1014 -418 m 1,0,-1
 666 -418 l 1,1,-1
 764 161 l 1,2,-1
 755 161 l 1,3,4
 722 105 722 105 676 65 c 128,-1,5
 630 25 630 25 571 2.5 c 128,-1,6
 512 -20 512 -20 440 -20 c 0,7,8
 322 -20 322 -20 235.5 32 c 128,-1,9
 149 84 149 84 101 182.5 c 128,-1,10
 53 281 53 281 53 420 c 0,11,12
 53 546 53 546 88.5 668 c 128,-1,13
 124 790 124 790 193 889 c 128,-1,14
 262 988 262 988 361 1047 c 128,-1,15
 460 1106 460 1106 586 1106 c 0,16,17
 670 1106 670 1106 729 1079 c 128,-1,18
 788 1052 788 1052 827 1007 c 128,-1,19
 866 962 866 962 884 907 c 1,20,-1
 890 907 l 1,21,-1
 920 1087 l 1,22,-1
 1263 1087 l 1,23,-1
 1014 -418 l 1,0,-1
557 254 m 0,24,25
 626 254 626 254 680 289.5 c 128,-1,26
 734 325 734 325 771.5 383 c 128,-1,27
 809 441 809 441 828.5 509 c 128,-1,28
 848 577 848 577 848 643 c 0,29,30
 848 732 848 732 806 782.5 c 128,-1,31
 764 833 764 833 688 833 c 0,32,33
 619 833 619 833 566 796.5 c 128,-1,34
 513 760 513 760 477 701.5 c 128,-1,35
 441 643 441 643 422.5 574 c 128,-1,36
 404 505 404 505 404 439 c 0,37,38
 404 351 404 351 443 302.5 c 128,-1,39
 482 254 482 254 557 254 c 0,24,25
EndSplineSet
Substitution2: "'sups' Superscript in Latin lookup 39 subtable" q.sups
Substitution2: "'subs' Subscript in Latin lookup 38 subtable" q.subs
Substitution2: "'sinf' Scientific Inferiors in Latin lookup 18 subtable" q.subs
AlternateSubs2: "'aalt' Access All Alternates in Latin lookup 1 subtable" q.sups q.subs
EndChar

StartChar: uni02A0
Encoding: 672 672 821
Width: 1278
GlyphClass: 2
Flags: W
AnchorPoint: "Anchor-1" 730 1087 basechar 0
AnchorPoint: "Anchor-0" 840 -411 basechar 0
LayerCount: 2
Fore
SplineSet
880 871 m 1,0,-1
 916 1087 l 1,1,-1
 927 1153 l 2,2,3
 955 1324 955 1324 1065.5 1410.5 c 128,-1,4
 1176 1497 1176 1497 1370 1497 c 0,5,6
 1425 1497 1425 1497 1471.5 1495 c 128,-1,7
 1518 1493 1518 1493 1550 1488 c 1,8,-1
 1508 1228 l 1,9,10
 1486 1230 1486 1230 1455.5 1231 c 128,-1,11
 1425 1232 1425 1232 1393 1232 c 0,12,13
 1338 1232 1338 1232 1309 1211.5 c 128,-1,14
 1280 1191 1280 1191 1272 1145 c 2,15,-1
 1263 1087 l 1,16,-1
 1227 871 l 1,17,-1
 880 871 l 1,0,-1
1014 -418 m 1,18,-1
 666 -418 l 1,19,-1
 764 161 l 1,20,-1
 755 161 l 1,21,22
 722 105 722 105 676 65 c 128,-1,23
 630 25 630 25 571 2.5 c 128,-1,24
 512 -20 512 -20 440 -20 c 0,25,26
 322 -20 322 -20 235.5 32 c 128,-1,27
 149 84 149 84 101 182.5 c 128,-1,28
 53 281 53 281 53 420 c 0,29,30
 53 546 53 546 88.5 668 c 128,-1,31
 124 790 124 790 193 889 c 128,-1,32
 262 988 262 988 361 1047 c 128,-1,33
 460 1106 460 1106 586 1106 c 0,34,35
 670 1106 670 1106 729 1079 c 128,-1,36
 788 1052 788 1052 827 1007 c 128,-1,37
 866 962 866 962 884 907 c 1,38,-1
 890 907 l 1,39,-1
 920 1087 l 1,40,-1
 1263 1087 l 1,41,-1
 1014 -418 l 1,18,-1
557 254 m 0,42,43
 626 254 626 254 680 289.5 c 128,-1,44
 734 325 734 325 771.5 383 c 128,-1,45
 809 441 809 441 828.5 509 c 128,-1,46
 848 577 848 577 848 643 c 0,47,48
 848 732 848 732 806 782.5 c 128,-1,49
 764 833 764 833 688 833 c 0,50,51
 619 833 619 833 566 796.5 c 128,-1,52
 513 760 513 760 477 701.5 c 128,-1,53
 441 643 441 643 422.5 574 c 128,-1,54
 404 505 404 505 404 439 c 0,55,56
 404 351 404 351 443 302.5 c 128,-1,57
 482 254 482 254 557 254 c 0,42,43
EndSplineSet
EndChar

StartChar: qrthook
Encoding: 587 587 822
Width: 1276
GlyphClass: 2
Flags: W
AnchorPoint: "Anchor-4" 1080 0 basechar 0
AnchorPoint: "Anchor-1" 735 1087 basechar 0
AnchorPoint: "Anchor-0" 552 0 basechar 0
LayerCount: 2
Fore
SplineSet
1045 -427 m 0,0,1
 851 -427 851 -427 773 -340.5 c 128,-1,2
 695 -254 695 -254 723 -83 c 2,3,-1
 771 203 l 1,4,-1
 1114 203 l 1,5,-1
 1068 -74 l 2,6,7
 1060 -121 1060 -121 1081 -141.5 c 128,-1,8
 1102 -162 1102 -162 1157 -162 c 0,9,10
 1188 -162 1188 -162 1218.5 -161.5 c 128,-1,11
 1249 -161 1249 -161 1272 -159 c 1,12,-1
 1230 -417 l 1,13,14
 1195 -422 1195 -422 1147.5 -424.5 c 128,-1,15
 1100 -427 1100 -427 1045 -427 c 0,0,1
420 -20 m 0,16,17
 290 -20 290 -20 198.5 47 c 128,-1,18
 107 114 107 114 69.5 240 c 128,-1,19
 32 366 32 366 62 545 c 256,20,21
 92 724 92 724 173 849 c 128,-1,22
 254 974 254 974 367 1040 c 128,-1,23
 480 1106 480 1106 605 1106 c 0,24,25
 684 1106 684 1106 740 1081.5 c 128,-1,26
 796 1057 796 1057 832 1016 c 128,-1,27
 868 975 868 975 885 923 c 1,28,-1
 891 923 l 1,29,-1
 919 1087 l 1,30,-1
 1260 1087 l 1,31,-1
 1080 0 l 1,32,-1
 740 0 l 1,33,-1
 768 170 l 1,34,-1
 760 170 l 1,35,36
 727 115 727 115 677 72 c 128,-1,37
 627 29 627 29 563 4.5 c 128,-1,38
 499 -20 499 -20 420 -20 c 0,16,17
575 254 m 256,39,40
 641 254 641 254 694.5 290 c 128,-1,41
 748 326 748 326 785.5 391 c 128,-1,42
 823 456 823 456 837 545 c 0,43,44
 851 633 851 633 835.5 697.5 c 128,-1,45
 820 762 820 762 778 797.5 c 128,-1,46
 736 833 736 833 669 833 c 0,47,48
 604 833 604 833 552 797.5 c 128,-1,49
 500 762 500 762 465 697.5 c 128,-1,50
 430 633 430 633 415 545 c 0,51,52
 401 456 401 456 415 391 c 128,-1,53
 429 326 429 326 469 290 c 128,-1,54
 509 254 509 254 575 254 c 256,39,40
EndSplineSet
EndChar

StartChar: r
Encoding: 114 114 823
Width: 834
GlyphClass: 2
Flags: W
AnchorPoint: "Anchor-1" 547 1087 basechar 0
AnchorPoint: "Anchor-0" 191 0 basechar 0
LayerCount: 2
Fore
SplineSet
17 0 m 1,0,-1
 197 1087 l 1,1,-1
 532 1087 l 1,2,-1
 501 892 l 1,3,-1
 508 892 l 1,4,5
 555 999 555 999 628.5 1047.5 c 128,-1,6
 702 1096 702 1096 801 1096 c 0,7,8
 827 1096 827 1096 851.5 1094 c 128,-1,9
 876 1092 876 1092 896 1090 c 1,10,-1
 847 795 l 1,11,12
 827 801 827 801 787 803.5 c 128,-1,13
 747 806 747 806 712 806 c 0,14,15
 649 806 649 806 595.5 778 c 128,-1,16
 542 750 542 750 506.5 698.5 c 128,-1,17
 471 647 471 647 459 575 c 2,18,-1
 363 0 l 1,19,-1
 17 0 l 1,0,-1
EndSplineSet
Substitution2: "'smcp' Lowercase to Small Capitals in Latin lookup 68 subtable" r.sc
Substitution2: "'c2sc' Capitals to Small Capitals in Latin lookup 67 subtable" r.sc
Substitution2: "'sups' Superscript in Latin lookup 39 subtable" r.sups
Substitution2: "'subs' Subscript in Latin lookup 38 subtable" r.subs
Substitution2: "'sinf' Scientific Inferiors in Latin lookup 18 subtable" r.subs
AlternateSubs2: "'aalt' Access All Alternates in Latin lookup 1 subtable" r.sc r.sups r.subs
EndChar

StartChar: rrthook
Encoding: 57437 57437 824
Width: 834
GlyphClass: 2
Flags: W
AnchorPoint: "Anchor-1" 547 1087 basechar 0
AnchorPoint: "Anchor-0" 191 0 basechar 0
LayerCount: 2
Fore
SplineSet
328 -427 m 0,0,1
 135 -427 135 -427 54.5 -341 c 128,-1,2
 -26 -255 -26 -255 3 -83 c 2,3,-1
 16 0 l 1,4,-1
 363 0 l 1,5,-1
 350 -74 l 2,6,7
 343 -120 343 -120 363.5 -141 c 128,-1,8
 384 -162 384 -162 439 -162 c 0,9,10
 472 -162 472 -162 502 -161.5 c 128,-1,11
 532 -161 532 -161 554 -159 c 1,12,-1
 512 -417 l 1,13,14
 477 -422 477 -422 430.5 -424.5 c 128,-1,15
 384 -427 384 -427 328 -427 c 0,0,1
17 0 m 1,16,-1
 197 1087 l 1,17,-1
 532 1087 l 1,18,-1
 501 892 l 1,19,-1
 508 892 l 1,20,21
 555 999 555 999 628.5 1047.5 c 128,-1,22
 702 1096 702 1096 801 1096 c 0,23,24
 827 1096 827 1096 851.5 1094 c 128,-1,25
 876 1092 876 1092 896 1090 c 1,26,-1
 847 795 l 1,27,28
 827 801 827 801 787 803.5 c 128,-1,29
 747 806 747 806 712 806 c 0,30,31
 649 806 649 806 595.5 778 c 128,-1,32
 542 750 542 750 506.5 698.5 c 128,-1,33
 471 647 471 647 459 575 c 2,34,-1
 363 0 l 1,35,-1
 17 0 l 1,16,-1
EndSplineSet
EndChar

StartChar: rturn
Encoding: 633 633 826
Width: 834
GlyphClass: 2
Flags: W
AnchorPoint: "Anchor-1" 645 1087 basechar 0
AnchorPoint: "Anchor-0" 343 0 basechar 0
LayerCount: 2
Fore
SplineSet
818 1087 m 1,0,-1
 638 0 l 1,1,-1
 302 0 l 1,2,-1
 335 195 l 1,3,-1
 328 195 l 1,4,5
 281 91 281 91 207 41 c 128,-1,6
 133 -9 133 -9 34 -9 c 0,7,8
 8 -9 8 -9 -16 -6.5 c 128,-1,9
 -40 -4 -40 -4 -61 -1 c 1,10,-1
 -13 292 l 1,11,12
 9 288 9 288 49 284.5 c 128,-1,13
 89 281 89 281 123 281 c 0,14,15
 186 281 186 281 239 309.5 c 128,-1,16
 292 338 292 338 328.5 389.5 c 128,-1,17
 365 441 365 441 376 512 c 2,18,-1
 472 1087 l 1,19,-1
 818 1087 l 1,0,-1
EndSplineSet
EndChar

StartChar: rturnrthook
Encoding: 635 635 827
Width: 834
GlyphClass: 2
Flags: W
AnchorPoint: "Anchor-1" 645 1087 basechar 0
AnchorPoint: "Anchor-0" 343 0 basechar 0
LayerCount: 2
Fore
SplineSet
573 -427 m 0,0,1
 402 -427 402 -427 330 -346 c 128,-1,2
 258 -265 258 -265 283 -107 c 2,3,-1
 301 0 l 1,4,-1
 637 0 l 1,5,-1
 623 -86 l 2,6,7
 616 -128 616 -128 635 -147 c 128,-1,8
 654 -166 654 -166 705 -166 c 0,9,10
 737 -166 737 -166 771.5 -165 c 128,-1,11
 806 -164 806 -164 828 -163 c 1,12,-1
 786 -417 l 1,13,14
 762 -421 762 -421 726 -423 c 128,-1,15
 690 -425 690 -425 649.5 -426 c 128,-1,16
 609 -427 609 -427 573 -427 c 0,0,1
818 1087 m 1,17,-1
 638 0 l 1,18,-1
 302 0 l 1,19,-1
 335 195 l 1,20,-1
 328 195 l 1,21,22
 281 91 281 91 207 41 c 128,-1,23
 133 -9 133 -9 34 -9 c 0,24,25
 8 -9 8 -9 -16 -6.5 c 128,-1,26
 -40 -4 -40 -4 -61 -1 c 1,27,-1
 -13 292 l 1,28,29
 9 288 9 288 49 284.5 c 128,-1,30
 89 281 89 281 123 281 c 0,31,32
 186 281 186 281 239 309.5 c 128,-1,33
 292 338 292 338 328.5 389.5 c 128,-1,34
 365 441 365 441 376 512 c 2,35,-1
 472 1087 l 1,36,-1
 818 1087 l 1,17,-1
EndSplineSet
EndChar

StartChar: rfishhookrev
Encoding: 639 639 828
Width: 797
Flags: W
LayerCount: 2
Fore
SplineSet
254 0 m 1,0,-1
 355 610 l 2,1,2
 367 679 367 679 350.5 723.5 c 128,-1,3
 334 768 334 768 294.5 789 c 128,-1,4
 255 810 255 810 198 810 c 0,5,6
 164 810 164 810 129.5 809 c 128,-1,7
 95 808 95 808 72 806 c 1,8,-1
 119 1089 l 1,9,10
 134 1091 134 1091 158.5 1092 c 128,-1,11
 183 1093 183 1093 212 1094 c 128,-1,12
 241 1095 241 1095 268 1095 c 0,13,14
 388 1095 388 1095 479 1067 c 128,-1,15
 570 1039 570 1039 627 982.5 c 128,-1,16
 684 926 684 926 705 841 c 128,-1,17
 726 756 726 756 707 641 c 2,18,-1
 601 0 l 1,19,-1
 254 0 l 1,0,-1
EndSplineSet
EndChar

StartChar: uni027E
Encoding: 638 638 829
Width: 797
Flags: W
LayerCount: 2
Fore
SplineSet
16 0 m 1,0,-1
 122 641 l 2,1,2
 147 794 147 794 225 894.5 c 128,-1,3
 303 995 303 995 426.5 1045 c 128,-1,4
 550 1095 550 1095 712 1095 c 0,5,6
 738 1095 738 1095 766.5 1094 c 128,-1,7
 795 1093 795 1093 819.5 1092 c 128,-1,8
 844 1091 844 1091 858 1089 c 1,9,-1
 812 806 l 1,10,11
 789 808 789 808 755 809 c 128,-1,12
 721 810 721 810 687 810 c 0,13,14
 630 810 630 810 584 788.5 c 128,-1,15
 538 767 538 767 506.5 723 c 128,-1,16
 475 679 475 679 463 610 c 2,17,-1
 362 0 l 1,18,-1
 16 0 l 1,0,-1
EndSplineSet
EndChar

StartChar: rdescend
Encoding: 57438 57438 830
Width: 836
GlyphClass: 2
Flags: W
AnchorPoint: "Anchor-1" 548 1087 basechar 0
AnchorPoint: "Anchor-0" 192 0 basechar 0
LayerCount: 2
Fore
SplineSet
-53 -418 m 1,0,-1
 17 0 l 1,1,-1
 364 0 l 1,2,-1
 294 -418 l 1,3,-1
 -53 -418 l 1,0,-1
18 0 m 1,4,-1
 198 1087 l 1,5,-1
 534 1087 l 1,6,-1
 502 892 l 1,7,-1
 510 892 l 1,8,9
 556 999 556 999 630 1047.5 c 128,-1,10
 704 1096 704 1096 803 1096 c 0,11,12
 829 1096 829 1096 853 1094 c 128,-1,13
 877 1092 877 1092 898 1090 c 1,14,-1
 849 795 l 1,15,16
 828 801 828 801 788 803.5 c 128,-1,17
 748 806 748 806 714 806 c 0,18,19
 651 806 651 806 597.5 778 c 128,-1,20
 544 750 544 750 508.5 698.5 c 128,-1,21
 473 647 473 647 460 575 c 2,22,-1
 365 0 l 1,23,-1
 18 0 l 1,4,-1
EndSplineSet
EndChar

StartChar: r.sc
Encoding: 60955 60955 840
Width: 1072
GlyphClass: 2
Flags: W
AnchorPoint: "Anchor-1" 646 1087 basechar 0
AnchorPoint: "Anchor-0" 482 0 basechar 0
LayerCount: 2
Fore
SplineSet
17 0 m 1,0,-1
 197 1087 l 1,1,-1
 685 1087 l 2,2,3
 815 1087 815 1087 904 1041 c 128,-1,4
 993 995 993 995 1032.5 908.5 c 128,-1,5
 1072 822 1072 822 1051 701 c 0,6,7
 1031 582 1031 582 962 499 c 128,-1,8
 893 416 893 416 785.5 372 c 128,-1,9
 678 328 678 328 543 328 c 2,10,-1
 282 328 l 1,11,-1
 326 596 l 1,12,-1
 547 596 l 2,13,14
 611 596 611 596 651.5 621 c 128,-1,15
 692 646 692 646 702 701 c 0,16,17
 712 755 712 755 679.5 782.5 c 128,-1,18
 647 810 647 810 583 810 c 2,19,-1
 496 810 l 1,20,-1
 362 0 l 1,21,-1
 17 0 l 1,0,-1
607 0 m 1,22,-1
 440 497 l 1,23,-1
 795 497 l 1,24,-1
 970 0 l 1,25,-1
 607 0 l 1,22,-1
EndSplineSet
EndChar

StartChar: rinv.sc
Encoding: 60956 60956 841
Width: 1178
Flags: W
LayerCount: 2
Fore
SplineSet
17 0 m 1,0,-1
 197 1087 l 1,1,-1
 523 1087 l 1,2,-1
 387 266 l 1,3,-1
 559 266 l 2,4,5
 648 266 648 266 694.5 295.5 c 128,-1,6
 741 325 741 325 752 387 c 0,7,8
 763 448 763 448 724.5 477.5 c 128,-1,9
 686 507 686 507 593 507 c 2,10,-1
 292 507 l 1,11,-1
 330 744 l 1,12,-1
 675 744 l 2,13,14
 898 744 898 744 1010.5 648 c 128,-1,15
 1123 552 1123 552 1095 383 c 0,16,17
 1075 264 1075 264 1004.5 178.5 c 128,-1,18
 934 93 934 93 822 46.5 c 128,-1,19
 710 0 710 0 564 0 c 2,20,-1
 17 0 l 1,0,-1
492 600 m 1,21,-1
 883 1087 l 1,22,-1
 1256 1087 l 1,23,-1
 858 600 l 1,24,-1
 492 600 l 1,21,-1
EndSplineSet
EndChar

StartChar: s
Encoding: 115 115 842
Width: 1139
GlyphClass: 2
Flags: W
AnchorPoint: "Anchor-3" 482 0 basechar 0
AnchorPoint: "Anchor-1" 659 1087 basechar 0
AnchorPoint: "Anchor-0" 480 0 basechar 0
LayerCount: 2
Fore
SplineSet
496 -23 m 0,0,1
 354 -23 354 -23 247.5 19 c 128,-1,2
 141 61 141 61 82 138.5 c 128,-1,3
 23 216 23 216 21 321 c 0,4,5
 21 325 21 325 21 328.5 c 128,-1,6
 21 332 21 332 21 335 c 2,7,-1
 352 349 l 1,8,9
 355 282 355 282 393 250 c 128,-1,10
 431 218 431 218 511 218 c 0,11,12
 558 218 558 218 599 230 c 128,-1,13
 640 242 640 242 666.5 266 c 128,-1,14
 693 290 693 290 694 324 c 0,15,16
 695 355 695 355 669.5 374.5 c 128,-1,17
 644 394 644 394 587 405 c 2,18,-1
 400 441 l 2,19,20
 257 469 257 469 184 542.5 c 128,-1,21
 111 616 111 616 114 728 c 0,22,23
 116 846 116 846 186.5 931 c 128,-1,24
 257 1016 257 1016 375.5 1060.5 c 128,-1,25
 494 1105 494 1105 640 1105 c 0,26,27
 849 1105 849 1105 967 1021 c 128,-1,28
 1085 937 1085 937 1090 796 c 0,29,30
 1091 788 1091 788 1090.5 779.5 c 128,-1,31
 1090 771 1090 771 1089 763 c 1,32,-1
 777 750 l 1,33,34
 777 807 777 807 741.5 837 c 128,-1,35
 706 867 706 867 637 867 c 0,36,37
 594 867 594 867 554 854.5 c 128,-1,38
 514 842 514 842 489.5 817.5 c 128,-1,39
 465 793 465 793 464 758 c 0,40,41
 462 730 462 730 483.5 710.5 c 128,-1,42
 505 691 505 691 557 680 c 2,43,-1
 765 641 l 2,44,45
 911 614 911 614 982.5 547 c 128,-1,46
 1054 480 1054 480 1052 373 c 0,47,48
 1050 283 1050 283 1006 209.5 c 128,-1,49
 962 136 962 136 885 84 c 128,-1,50
 808 32 808 32 708.5 4.5 c 128,-1,51
 609 -23 609 -23 496 -23 c 0,0,1
EndSplineSet
Substitution2: "'sups' Superscript in Latin lookup 39 subtable" s.sups
Substitution2: "'subs' Subscript in Latin lookup 38 subtable" s.subs
Substitution2: "'sinf' Scientific Inferiors in Latin lookup 18 subtable" s.subs
AlternateSubs2: "'aalt' Access All Alternates in Latin lookup 1 subtable" s.sups s.subs
EndChar

